{"glyphs":{"0":{"ha":833,"x_min":43,"x_max":790,"o":"m 417 -12 q 139 117 235 -12 q 43 490 43 246 q 139 863 43 733 q 417 992 235 992 q 694 863 597 992 q 790 490 790 733 q 694 117 790 246 q 417 -12 599 -12 m 417 181 q 513 253 483 181 q 542 490 542 325 q 513 726 542 654 q 417 799 483 799 q 321 727 350 799 q 292 490 292 656 q 321 253 292 325 q 417 181 350 181 z "},"1":{"ha":833,"x_min":88,"x_max":832,"o":"m 711 203 q 803 178 774 203 q 832 103 832 153 q 711 0 832 0 l 229 0 q 108 103 108 0 q 138 178 108 153 q 229 203 167 203 l 342 203 l 342 704 l 231 639 q 182 625 207 625 q 115 659 143 625 q 88 735 88 693 q 136 821 88 792 l 358 950 q 474 985 419 985 q 563 951 529 985 q 597 861 597 918 l 597 203 l 711 203 z "},"2":{"ha":835,"x_min":50,"x_max":796,"o":"m 675 203 q 766 178 736 203 q 796 103 796 154 q 766 25 796 50 q 675 0 736 0 l 168 0 q 89 30 118 0 q 60 106 60 60 q 107 214 60 165 l 401 521 q 493 697 493 617 q 466 769 493 744 q 389 794 439 794 q 315 783 349 794 q 236 749 281 771 l 208 735 q 187 723 203 732 q 158 710 171 714 q 132 706 146 706 q 74 737 97 706 q 50 811 50 768 q 59 861 50 842 q 93 897 68 881 q 240 967 158 942 q 400 992 321 992 q 581 958 503 992 q 701 860 658 924 q 743 715 743 797 q 709 560 743 631 q 593 404 675 490 l 396 203 l 675 203 z "},"3":{"ha":833,"x_min":35,"x_max":768,"o":"m 593 504 q 722 418 675 481 q 768 267 768 356 q 722 119 768 182 q 592 23 676 57 q 396 -11 508 -11 q 222 13 306 -11 q 78 83 139 38 q 44 122 54 101 q 35 169 35 142 q 58 242 35 213 q 117 272 82 272 q 151 266 136 272 q 193 246 167 260 q 206 240 199 243 q 224 232 214 236 q 303 198 268 210 q 383 186 339 186 q 495 211 461 186 q 529 294 529 236 q 494 372 529 349 q 381 396 460 396 l 294 396 q 229 425 253 396 q 206 494 206 454 q 229 564 206 535 q 294 593 253 593 l 356 593 q 467 615 432 593 q 501 686 501 638 q 471 766 501 738 q 386 794 440 794 q 313 782 347 794 q 238 749 279 769 l 208 735 q 167 715 182 721 q 132 708 151 708 q 74 738 97 708 q 50 811 50 768 q 60 860 50 840 q 93 897 69 879 q 234 967 153 942 q 399 992 315 992 q 580 958 501 992 q 701 864 658 925 q 743 722 743 803 q 703 588 743 646 q 593 504 664 531 z "},"4":{"ha":833,"x_min":18,"x_max":836,"o":"m 715 360 q 836 264 836 360 q 715 165 836 165 l 685 165 l 685 118 q 650 24 685 56 q 560 -8 615 -8 q 470 24 504 -8 q 436 118 436 56 l 436 165 l 126 165 q 47 196 76 165 q 18 272 18 226 q 49 364 18 321 l 446 931 q 495 973 465 958 q 557 988 525 988 q 647 954 610 988 q 685 861 685 921 l 685 360 l 715 360 m 269 360 l 436 360 l 436 600 l 269 360 z "},"5":{"ha":833,"x_min":61,"x_max":794,"o":"m 485 640 q 645 601 575 640 q 755 490 715 561 q 794 325 794 418 q 747 149 794 225 q 614 31 700 72 q 415 -11 528 -11 q 247 14 329 -11 q 104 83 164 39 q 72 122 82 101 q 61 169 61 142 q 85 242 61 213 q 143 272 108 272 q 178 267 164 272 q 219 246 192 261 l 247 232 q 326 199 290 211 q 403 186 361 186 q 518 217 481 186 q 556 315 556 249 q 517 413 556 378 q 408 447 478 447 q 333 440 367 447 q 253 415 299 433 q 190 400 224 400 q 125 423 151 400 q 99 483 99 446 l 99 860 q 129 949 99 918 q 217 979 160 979 l 647 979 q 768 883 768 979 q 647 786 768 786 l 347 786 l 347 615 q 485 640 406 640 z "},"6":{"ha":833,"x_min":42,"x_max":794,"o":"m 500 644 q 650 603 583 644 q 755 490 717 563 q 793 325 793 417 q 749 151 793 228 q 628 31 706 74 q 451 -12 550 -12 q 149 115 256 -12 q 42 479 42 243 q 92 751 42 635 q 235 929 143 867 q 451 992 328 992 q 610 967 529 992 q 750 897 692 942 q 784 860 774 879 q 794 811 794 840 q 770 738 794 768 q 711 708 746 708 q 676 715 692 708 q 635 735 661 721 l 604 750 q 528 783 558 772 q 464 794 497 794 q 349 730 393 794 q 297 549 306 665 q 383 619 329 593 q 500 644 436 644 m 436 183 q 522 219 490 183 q 554 315 554 256 q 523 412 554 376 q 436 447 492 447 q 349 411 382 447 q 317 315 317 375 q 350 220 317 257 q 436 183 383 183 z "},"7":{"ha":833,"x_min":32,"x_max":801,"o":"m 697 979 q 774 949 747 979 q 801 874 801 919 q 775 782 801 826 l 354 53 q 306 3 335 19 q 247 -12 278 -12 q 161 20 199 -12 q 124 100 124 53 q 143 167 124 133 l 500 776 l 153 776 q 60 801 89 776 q 32 876 32 826 q 61 953 32 928 q 153 979 90 979 l 697 979 z "},"8":{"ha":833,"x_min":31,"x_max":803,"o":"m 628 504 q 758 419 713 479 q 803 269 803 358 q 699 63 803 138 q 417 -11 596 -11 q 134 63 238 -11 q 31 269 31 138 q 76 422 31 361 q 207 504 122 482 q 96 590 135 532 q 57 725 57 647 q 154 920 57 849 q 417 992 251 992 q 680 920 583 992 q 776 725 776 849 q 737 586 776 644 q 628 504 697 528 m 417 799 q 324 774 354 799 q 293 696 293 750 q 324 617 293 642 q 417 592 354 592 q 510 617 479 592 q 540 696 540 642 q 510 774 540 750 q 417 799 479 799 m 417 182 q 568 290 568 182 q 417 399 568 399 q 265 290 265 399 q 417 182 265 182 z "},"9":{"ha":833,"x_min":39,"x_max":792,"o":"m 382 992 q 685 864 578 992 q 792 500 792 736 q 741 228 792 344 q 598 50 690 113 q 382 -12 506 -12 q 223 13 304 -12 q 83 82 142 38 q 49 119 60 100 q 39 168 39 139 q 63 241 39 211 q 122 271 88 271 q 157 265 142 271 q 199 244 172 258 l 229 229 q 306 196 275 207 q 369 185 336 185 q 484 249 440 185 q 536 431 528 314 q 451 360 504 386 q 333 335 397 335 q 183 376 250 335 q 78 490 117 417 q 40 654 40 563 q 84 828 40 751 q 206 949 128 906 q 382 992 283 992 m 397 532 q 484 568 451 532 q 517 664 517 604 q 483 759 517 722 q 397 796 450 796 q 311 760 343 796 q 279 664 279 724 q 310 567 279 603 q 397 532 342 532 z "},"\u0000":{"ha":0,"x_min":0,"x_max":0,"o":""},"\r":{"ha":397,"x_min":0,"x_max":0,"o":""}," ":{"ha":397,"x_min":0,"x_max":0,"o":""},"A":{"ha":1057,"x_min":17,"x_max":1039,"o":"m 1026 157 q 1039 106 1039 131 q 1002 28 1039 60 q 918 -4 965 -4 q 860 13 886 -4 q 818 63 833 29 l 756 203 l 306 203 l 242 63 q 199 13 226 29 q 140 -4 172 -4 q 55 28 93 -4 q 17 106 17 60 q 29 157 17 131 l 396 910 q 449 967 414 947 q 528 988 485 988 q 606 967 569 988 q 660 910 642 947 l 1026 157 m 392 394 l 669 394 l 531 704 l 392 394 z "},"Á":{"ha":1057,"x_min":17,"x_max":1039,"o":"m 1026 157 q 1039 106 1039 131 q 1002 28 1039 60 q 918 -4 965 -4 q 860 13 886 -4 q 818 63 833 29 l 756 203 l 306 203 l 242 63 q 199 13 226 29 q 140 -4 172 -4 q 55 28 93 -4 q 17 106 17 60 q 29 157 17 131 l 396 910 q 449 967 414 947 q 528 988 485 988 q 606 967 569 988 q 660 910 642 947 l 1026 157 m 392 394 l 669 394 l 531 704 l 392 394 m 554 1061 q 526 1056 542 1056 q 486 1071 503 1056 q 469 1107 469 1086 q 490 1149 469 1128 l 603 1254 q 678 1289 639 1289 q 740 1263 714 1289 q 765 1201 765 1236 q 703 1119 765 1149 l 554 1061 z "},"Ă":{"ha":1057,"x_min":17,"x_max":1039,"o":"m 1026 157 q 1039 106 1039 131 q 1002 28 1039 60 q 918 -4 965 -4 q 860 13 886 -4 q 818 63 833 29 l 756 203 l 306 203 l 242 63 q 199 13 226 29 q 140 -4 172 -4 q 55 28 93 -4 q 17 106 17 60 q 29 157 17 131 l 396 910 q 449 967 414 947 q 528 988 485 988 q 606 967 569 988 q 660 910 642 947 l 1026 157 m 392 394 l 669 394 l 531 704 l 392 394 m 528 1072 q 381 1101 444 1072 q 290 1174 317 1129 q 279 1214 279 1194 q 297 1255 279 1239 q 339 1271 314 1271 q 394 1249 368 1271 q 454 1224 417 1233 q 528 1214 492 1214 q 601 1224 564 1214 q 661 1249 639 1233 q 718 1272 686 1272 q 760 1256 743 1272 q 778 1215 778 1240 q 765 1174 778 1197 q 675 1101 739 1131 q 528 1072 611 1072 z "},"Ắ":{"ha":1057,"x_min":17,"x_max":1039,"o":"m 1026 157 q 1039 106 1039 131 q 1002 28 1039 60 q 918 -4 965 -4 q 860 13 886 -4 q 818 63 833 29 l 756 203 l 306 203 l 242 63 q 199 13 226 29 q 140 -4 172 -4 q 55 28 93 -4 q 17 106 17 60 q 29 157 17 131 l 396 910 q 449 967 414 947 q 528 988 485 988 q 606 967 569 988 q 660 910 642 947 l 1026 157 m 392 394 l 669 394 l 531 704 l 392 394 m 546 1210 q 524 1206 536 1206 q 488 1219 503 1206 q 472 1254 472 1233 q 500 1304 472 1281 l 604 1386 q 672 1415 639 1415 q 725 1392 704 1415 q 746 1340 746 1369 q 733 1299 746 1318 q 692 1267 719 1279 l 546 1210 m 528 1056 q 381 1084 444 1056 q 290 1157 317 1113 q 278 1201 278 1182 q 291 1237 278 1224 q 325 1250 304 1250 q 378 1229 353 1250 q 528 1174 456 1174 q 678 1229 600 1174 q 728 1250 703 1250 q 763 1235 749 1250 q 778 1199 778 1221 q 765 1157 778 1176 q 675 1085 739 1114 q 528 1056 611 1056 z "},"Ặ":{"ha":1057,"x_min":17,"x_max":1039,"o":"m 1026 157 q 1039 106 1039 131 q 1002 28 1039 60 q 918 -4 965 -4 q 860 13 886 -4 q 818 63 833 29 l 756 203 l 306 203 l 242 63 q 199 13 226 29 q 140 -4 172 -4 q 55 28 93 -4 q 17 106 17 60 q 29 157 17 131 l 396 910 q 449 967 414 947 q 528 988 485 988 q 606 967 569 988 q 660 910 642 947 l 1026 157 m 392 394 l 669 394 l 531 704 l 392 394 m 529 -292 q 446 -261 478 -292 q 414 -181 414 -231 q 445 -101 414 -131 q 529 -72 476 -72 q 613 -102 581 -72 q 644 -181 644 -132 q 613 -261 644 -231 q 529 -292 581 -292 m 528 1072 q 381 1101 444 1072 q 290 1174 317 1129 q 279 1214 279 1194 q 297 1255 279 1239 q 339 1271 314 1271 q 394 1249 368 1271 q 454 1224 417 1233 q 528 1214 492 1214 q 601 1224 564 1214 q 661 1249 639 1233 q 718 1272 686 1272 q 760 1256 743 1272 q 778 1215 778 1240 q 765 1174 778 1197 q 675 1101 739 1131 q 528 1072 611 1072 z "},"Ằ":{"ha":1057,"x_min":17,"x_max":1039,"o":"m 1026 157 q 1039 106 1039 131 q 1002 28 1039 60 q 918 -4 965 -4 q 860 13 886 -4 q 818 63 833 29 l 756 203 l 306 203 l 242 63 q 199 13 226 29 q 140 -4 172 -4 q 55 28 93 -4 q 17 106 17 60 q 29 157 17 131 l 396 910 q 449 967 414 947 q 528 988 485 988 q 606 967 569 988 q 660 910 642 947 l 1026 157 m 392 394 l 669 394 l 531 704 l 392 394 m 364 1267 q 323 1299 336 1279 q 310 1340 310 1318 q 331 1392 310 1369 q 383 1415 353 1415 q 451 1386 418 1415 l 556 1304 q 583 1254 583 1281 q 568 1219 583 1233 q 532 1206 553 1206 q 510 1210 519 1206 l 364 1267 m 528 1056 q 381 1085 444 1056 q 290 1157 317 1114 q 278 1200 278 1181 q 292 1236 278 1222 q 328 1250 306 1250 q 378 1229 353 1250 q 528 1174 456 1174 q 678 1229 600 1174 q 729 1250 703 1250 q 764 1236 750 1250 q 778 1200 778 1222 q 765 1157 778 1181 q 675 1084 739 1113 q 528 1056 611 1056 z "},"Ẳ":{"ha":1057,"x_min":17,"x_max":1039,"o":"m 1026 157 q 1039 106 1039 131 q 1002 28 1039 60 q 918 -4 965 -4 q 860 13 886 -4 q 818 63 833 29 l 756 203 l 306 203 l 242 63 q 199 13 226 29 q 140 -4 172 -4 q 55 28 93 -4 q 17 106 17 60 q 29 157 17 131 l 396 910 q 449 967 414 947 q 528 988 485 988 q 606 967 569 988 q 660 910 642 947 l 1026 157 m 392 394 l 669 394 l 531 704 l 392 394 m 588 1229 q 567 1212 583 1218 q 532 1206 551 1206 q 489 1215 507 1206 q 471 1244 471 1225 q 490 1283 471 1271 q 535 1304 508 1296 q 563 1318 563 1313 q 553 1328 563 1325 q 518 1331 543 1331 q 490 1328 506 1331 q 457 1326 474 1326 q 419 1339 435 1326 q 404 1367 404 1351 q 431 1399 404 1389 q 539 1415 476 1415 q 659 1392 615 1415 q 703 1332 703 1368 q 686 1292 703 1306 q 639 1267 669 1279 q 603 1249 615 1256 q 588 1229 592 1242 m 528 1056 q 381 1085 444 1056 q 290 1157 317 1114 q 278 1200 278 1181 q 292 1236 278 1222 q 328 1250 306 1250 q 378 1229 353 1250 q 528 1174 456 1174 q 678 1229 600 1174 q 729 1250 703 1250 q 764 1236 750 1250 q 778 1200 778 1222 q 765 1157 778 1181 q 675 1084 739 1113 q 528 1056 611 1056 z "},"Ẵ":{"ha":1057,"x_min":17,"x_max":1039,"o":"m 1026 157 q 1039 106 1039 131 q 1002 28 1039 60 q 918 -4 965 -4 q 860 13 886 -4 q 818 63 833 29 l 756 203 l 306 203 l 242 63 q 199 13 226 29 q 140 -4 172 -4 q 55 28 93 -4 q 17 106 17 60 q 29 157 17 131 l 396 910 q 449 967 414 947 q 528 988 485 988 q 606 967 569 988 q 660 910 642 947 l 1026 157 m 392 394 l 669 394 l 531 704 l 392 394 m 633 1261 q 575 1267 608 1261 q 513 1282 542 1274 q 472 1291 503 1285 q 424 1297 442 1297 q 402 1292 411 1297 q 382 1278 393 1288 q 332 1256 360 1256 q 297 1268 310 1256 q 283 1303 283 1281 q 302 1348 283 1322 q 353 1392 321 1374 q 422 1410 385 1410 q 543 1390 465 1410 q 632 1375 604 1375 q 653 1380 644 1375 q 674 1394 663 1385 q 724 1417 696 1417 q 760 1404 747 1417 q 772 1369 772 1392 q 753 1324 772 1350 q 703 1280 735 1299 q 633 1261 671 1261 m 528 1056 q 381 1085 444 1056 q 290 1157 317 1114 q 279 1193 279 1175 q 297 1229 279 1215 q 338 1243 314 1243 q 378 1229 363 1243 q 528 1174 456 1174 q 678 1229 600 1174 q 721 1244 697 1244 q 760 1231 744 1244 q 776 1194 776 1218 q 765 1157 776 1175 q 675 1084 739 1113 q 528 1056 611 1056 z "},"Â":{"ha":1057,"x_min":17,"x_max":1039,"o":"m 1026 157 q 1039 106 1039 131 q 1002 28 1039 60 q 918 -4 965 -4 q 860 13 886 -4 q 818 63 833 29 l 756 203 l 306 203 l 242 63 q 199 13 226 29 q 140 -4 172 -4 q 55 28 93 -4 q 17 106 17 60 q 29 157 17 131 l 396 910 q 449 967 414 947 q 528 988 485 988 q 606 967 569 988 q 660 910 642 947 l 1026 157 m 392 394 l 669 394 l 531 704 l 392 394 m 440 1081 q 385 1057 415 1057 q 335 1076 356 1057 q 314 1122 314 1096 q 343 1176 314 1153 l 449 1257 q 528 1286 483 1286 q 607 1257 572 1286 l 713 1176 q 740 1122 740 1153 q 720 1076 740 1096 q 671 1057 700 1057 q 615 1081 640 1057 l 528 1158 l 440 1081 z "},"Ấ":{"ha":1057,"x_min":17,"x_max":1039,"o":"m 1026 157 q 1039 106 1039 131 q 1002 28 1039 60 q 918 -4 965 -4 q 860 13 886 -4 q 818 63 833 29 l 756 203 l 306 203 l 242 63 q 199 13 226 29 q 140 -4 172 -4 q 55 28 93 -4 q 17 106 17 60 q 29 157 17 131 l 396 910 q 449 967 414 947 q 528 988 485 988 q 606 967 569 988 q 660 910 642 947 l 1026 157 m 392 394 l 669 394 l 531 704 l 392 394 m 742 1211 q 717 1206 731 1206 q 679 1222 694 1206 q 664 1260 664 1238 q 679 1299 664 1279 l 743 1379 q 814 1418 774 1418 q 876 1389 849 1418 q 903 1324 903 1360 q 888 1278 903 1299 q 843 1244 874 1257 l 742 1211 m 428 1071 q 386 1057 408 1057 q 337 1077 358 1057 q 315 1124 315 1097 q 356 1185 315 1160 l 449 1233 q 528 1260 494 1260 q 607 1233 561 1260 l 700 1185 q 742 1122 742 1158 q 720 1076 742 1096 q 671 1056 699 1056 q 632 1068 650 1056 l 528 1135 l 428 1071 z "},"Ậ":{"ha":1057,"x_min":17,"x_max":1039,"o":"m 1026 157 q 1039 106 1039 131 q 1002 28 1039 60 q 918 -4 965 -4 q 860 13 886 -4 q 818 63 833 29 l 756 203 l 306 203 l 242 63 q 199 13 226 29 q 140 -4 172 -4 q 55 28 93 -4 q 17 106 17 60 q 29 157 17 131 l 396 910 q 449 967 414 947 q 528 988 485 988 q 606 967 569 988 q 660 910 642 947 l 1026 157 m 392 394 l 669 394 l 531 704 l 392 394 m 529 -292 q 446 -261 478 -292 q 414 -181 414 -231 q 445 -101 414 -131 q 529 -72 476 -72 q 613 -102 581 -72 q 644 -181 644 -132 q 613 -261 644 -231 q 529 -292 581 -292 m 440 1081 q 385 1057 415 1057 q 335 1076 356 1057 q 314 1122 314 1096 q 343 1176 314 1153 l 449 1257 q 528 1286 483 1286 q 607 1257 572 1286 l 713 1176 q 740 1122 740 1153 q 720 1076 740 1096 q 671 1057 700 1057 q 615 1081 640 1057 l 528 1158 l 440 1081 z "},"Ầ":{"ha":1057,"x_min":17,"x_max":1039,"o":"m 1026 157 q 1039 106 1039 131 q 1002 28 1039 60 q 918 -4 965 -4 q 860 13 886 -4 q 818 63 833 29 l 756 203 l 306 203 l 242 63 q 199 13 226 29 q 140 -4 172 -4 q 55 28 93 -4 q 17 106 17 60 q 29 157 17 131 l 396 910 q 449 967 414 947 q 528 988 485 988 q 606 967 569 988 q 660 910 642 947 l 1026 157 m 392 394 l 669 394 l 531 704 l 392 394 m 640 1251 q 589 1324 589 1278 q 619 1388 589 1358 q 685 1417 649 1417 q 751 1376 726 1417 l 806 1289 q 817 1254 817 1272 q 802 1219 817 1233 q 765 1206 788 1206 q 724 1217 749 1206 l 640 1251 m 428 1071 q 386 1057 408 1057 q 337 1077 358 1057 q 315 1124 315 1097 q 356 1185 315 1160 l 449 1233 q 528 1260 494 1260 q 607 1233 561 1260 l 700 1185 q 742 1122 742 1158 q 720 1076 742 1096 q 671 1056 699 1056 q 632 1068 650 1056 l 528 1135 l 428 1071 z "},"Ẩ":{"ha":1057,"x_min":17,"x_max":1039,"o":"m 1026 157 q 1039 106 1039 131 q 1002 28 1039 60 q 918 -4 965 -4 q 860 13 886 -4 q 818 63 833 29 l 756 203 l 306 203 l 242 63 q 199 13 226 29 q 140 -4 172 -4 q 55 28 93 -4 q 17 106 17 60 q 29 157 17 131 l 396 910 q 449 967 414 947 q 528 988 485 988 q 606 967 569 988 q 660 910 642 947 l 1026 157 m 392 394 l 669 394 l 531 704 l 392 394 m 779 1229 q 760 1212 775 1218 q 724 1206 744 1206 q 681 1215 699 1206 q 664 1244 664 1225 q 683 1283 664 1271 q 728 1304 701 1296 q 756 1318 756 1313 q 746 1328 756 1325 q 711 1331 736 1331 l 683 1329 q 649 1326 661 1326 q 612 1339 628 1326 q 596 1368 596 1351 q 622 1399 596 1389 q 731 1415 668 1415 q 851 1392 807 1415 q 894 1332 894 1368 q 878 1292 894 1306 q 831 1267 861 1279 q 795 1249 807 1257 q 779 1229 783 1242 m 428 1071 q 386 1057 408 1057 q 337 1077 358 1057 q 315 1124 315 1097 q 356 1185 315 1160 l 449 1233 q 528 1260 494 1260 q 607 1233 561 1260 l 700 1185 q 742 1122 742 1158 q 720 1076 742 1096 q 671 1056 699 1056 q 632 1068 650 1056 l 528 1135 l 428 1071 z "},"Ẫ":{"ha":1057,"x_min":17,"x_max":1039,"o":"m 1026 157 q 1039 106 1039 131 q 1002 28 1039 60 q 918 -4 965 -4 q 860 13 886 -4 q 818 63 833 29 l 756 203 l 306 203 l 242 63 q 199 13 226 29 q 140 -4 172 -4 q 55 28 93 -4 q 17 106 17 60 q 29 157 17 131 l 396 910 q 449 967 414 947 q 528 988 485 988 q 606 967 569 988 q 660 910 642 947 l 1026 157 m 392 394 l 669 394 l 531 704 l 392 394 m 633 1261 q 575 1267 608 1261 q 513 1282 542 1274 q 472 1291 503 1285 q 424 1297 442 1297 q 402 1292 411 1297 q 382 1278 393 1288 q 332 1256 360 1256 q 297 1268 310 1256 q 283 1303 283 1281 q 302 1348 283 1322 q 353 1392 321 1374 q 422 1410 385 1410 q 543 1390 465 1410 q 632 1375 604 1375 q 653 1380 644 1375 q 674 1394 663 1385 q 724 1417 696 1417 q 760 1404 747 1417 q 772 1369 772 1392 q 753 1324 772 1350 q 703 1280 735 1299 q 633 1261 671 1261 m 428 1071 q 386 1057 408 1057 q 337 1077 358 1057 q 315 1124 315 1097 q 356 1185 315 1160 l 449 1233 q 528 1260 494 1260 q 607 1233 561 1260 l 700 1185 q 742 1122 742 1158 q 720 1076 742 1096 q 671 1056 699 1056 q 632 1068 650 1056 l 528 1135 l 428 1071 z "},"Ȁ":{"ha":1057,"x_min":17,"x_max":1039,"o":"m 1026 157 q 1039 106 1039 131 q 1002 28 1039 60 q 918 -4 965 -4 q 860 13 886 -4 q 818 63 833 29 l 756 203 l 306 203 l 242 63 q 199 13 226 29 q 140 -4 172 -4 q 55 28 93 -4 q 17 106 17 60 q 29 157 17 131 l 396 910 q 449 967 414 947 q 528 988 485 988 q 606 967 569 988 q 660 910 642 947 l 1026 157 m 392 394 l 669 394 l 531 704 l 392 394 m 299 1153 q 274 1206 274 1176 q 302 1262 274 1238 q 364 1286 331 1286 q 431 1239 408 1286 l 474 1135 q 479 1108 479 1122 q 464 1071 479 1086 q 428 1056 449 1056 q 383 1075 403 1056 l 299 1153 m 501 1153 q 476 1206 476 1176 q 505 1262 476 1238 q 567 1286 533 1286 q 633 1239 611 1286 l 676 1135 q 682 1108 682 1122 q 667 1071 682 1086 q 631 1056 651 1056 q 586 1075 606 1056 l 501 1153 z "},"Ä":{"ha":1057,"x_min":17,"x_max":1039,"o":"m 1026 157 q 1039 106 1039 131 q 1002 28 1039 60 q 918 -4 965 -4 q 860 13 886 -4 q 818 63 833 29 l 756 203 l 306 203 l 242 63 q 199 13 226 29 q 140 -4 172 -4 q 55 28 93 -4 q 17 106 17 60 q 29 157 17 131 l 396 910 q 449 967 414 947 q 528 988 485 988 q 606 967 569 988 q 660 910 642 947 l 1026 157 m 392 394 l 669 394 l 531 704 l 392 394 m 390 1061 q 306 1092 338 1061 q 274 1174 274 1122 q 306 1253 274 1224 q 390 1283 338 1283 q 476 1253 443 1283 q 508 1174 508 1224 q 476 1092 508 1122 q 390 1061 443 1061 m 665 1061 q 581 1092 613 1061 q 549 1174 549 1122 q 581 1253 549 1224 q 665 1283 613 1283 q 749 1253 717 1283 q 782 1174 782 1224 q 750 1092 782 1122 q 665 1061 718 1061 z "},"Ạ":{"ha":1057,"x_min":17,"x_max":1039,"o":"m 1026 157 q 1039 106 1039 131 q 1002 28 1039 60 q 918 -4 965 -4 q 860 13 886 -4 q 818 63 833 29 l 756 203 l 306 203 l 242 63 q 199 13 226 29 q 140 -4 172 -4 q 55 28 93 -4 q 17 106 17 60 q 29 157 17 131 l 396 910 q 449 967 414 947 q 528 988 485 988 q 606 967 569 988 q 660 910 642 947 l 1026 157 m 392 394 l 669 394 l 531 704 l 392 394 m 529 -292 q 446 -261 478 -292 q 414 -181 414 -231 q 445 -101 414 -131 q 529 -72 476 -72 q 613 -102 581 -72 q 644 -181 644 -132 q 613 -261 644 -231 q 529 -292 581 -292 z "},"À":{"ha":1057,"x_min":17,"x_max":1039,"o":"m 1026 157 q 1039 106 1039 131 q 1002 28 1039 60 q 918 -4 965 -4 q 860 13 886 -4 q 818 63 833 29 l 756 203 l 306 203 l 242 63 q 199 13 226 29 q 140 -4 172 -4 q 55 28 93 -4 q 17 106 17 60 q 29 157 17 131 l 396 910 q 449 967 414 947 q 528 988 485 988 q 606 967 569 988 q 660 910 642 947 l 1026 157 m 392 394 l 669 394 l 531 704 l 392 394 m 353 1119 q 289 1201 289 1149 q 315 1261 289 1235 q 376 1288 340 1288 q 453 1254 415 1288 l 565 1149 q 585 1107 585 1129 q 568 1071 585 1086 q 529 1056 551 1056 q 501 1061 514 1056 l 353 1119 z "},"Ả":{"ha":1057,"x_min":17,"x_max":1039,"o":"m 1026 157 q 1039 106 1039 131 q 1002 28 1039 60 q 918 -4 965 -4 q 860 13 886 -4 q 818 63 833 29 l 756 203 l 306 203 l 242 63 q 199 13 226 29 q 140 -4 172 -4 q 55 28 93 -4 q 17 106 17 60 q 29 157 17 131 l 396 910 q 449 967 414 947 q 528 988 485 988 q 606 967 569 988 q 660 910 642 947 l 1026 157 m 392 394 l 669 394 l 531 704 l 392 394 m 588 1088 q 567 1064 582 1072 q 532 1056 551 1056 q 490 1067 508 1056 q 472 1099 472 1079 q 489 1139 472 1126 q 535 1163 506 1151 q 552 1169 544 1165 q 560 1176 560 1172 q 518 1199 560 1199 q 498 1197 507 1199 q 481 1194 489 1196 q 443 1189 453 1189 q 416 1202 426 1189 q 406 1233 406 1215 q 431 1269 406 1260 q 539 1286 476 1286 q 658 1260 614 1286 q 703 1199 703 1235 q 685 1154 703 1169 q 636 1125 668 1139 q 603 1108 615 1117 q 588 1088 592 1100 z "},"Ȃ":{"ha":1057,"x_min":17,"x_max":1039,"o":"m 1026 157 q 1039 106 1039 131 q 1002 28 1039 60 q 918 -4 965 -4 q 860 13 886 -4 q 818 63 833 29 l 756 203 l 306 203 l 242 63 q 199 13 226 29 q 140 -4 172 -4 q 55 28 93 -4 q 17 106 17 60 q 29 157 17 131 l 396 910 q 449 967 414 947 q 528 988 485 988 q 606 967 569 988 q 660 910 642 947 l 1026 157 m 392 394 l 669 394 l 531 704 l 392 394 m 394 1094 q 338 1071 369 1071 q 295 1087 313 1071 q 278 1128 278 1103 q 290 1169 278 1147 q 381 1242 317 1213 q 528 1271 444 1271 q 676 1242 613 1271 q 765 1169 739 1214 q 776 1129 776 1149 q 759 1088 776 1104 q 717 1072 742 1072 q 661 1094 688 1072 q 602 1119 639 1110 q 528 1129 565 1129 q 453 1119 490 1129 q 394 1094 417 1110 z "},"Ā":{"ha":1057,"x_min":17,"x_max":1039,"o":"m 1026 157 q 1039 106 1039 131 q 1002 28 1039 60 q 918 -4 965 -4 q 860 13 886 -4 q 818 63 833 29 l 756 203 l 306 203 l 242 63 q 199 13 226 29 q 140 -4 172 -4 q 55 28 93 -4 q 17 106 17 60 q 29 157 17 131 l 396 910 q 449 967 414 947 q 528 988 485 988 q 606 967 569 988 q 660 910 642 947 l 1026 157 m 392 394 l 669 394 l 531 704 l 392 394 m 360 1097 q 305 1117 326 1097 q 283 1171 283 1136 q 305 1226 283 1206 q 360 1246 326 1246 l 696 1246 q 751 1226 729 1246 q 772 1171 772 1206 q 751 1117 772 1136 q 696 1097 729 1097 l 360 1097 z "},"Ą":{"ha":1057,"x_min":17,"x_max":1088,"o":"m 1036 -143 q 1047 -142 1040 -142 q 1076 -157 1065 -142 q 1088 -193 1088 -172 q 1063 -242 1088 -226 q 932 -275 1006 -275 q 802 -231 854 -275 q 750 -117 750 -186 q 772 -35 750 -74 q 838 32 794 4 q 818 63 825 47 l 756 203 l 306 203 l 242 63 q 199 13 226 29 q 140 -4 172 -4 q 55 28 93 -4 q 17 106 17 60 q 29 157 17 131 l 396 910 q 449 967 414 947 q 528 988 485 988 q 606 967 569 988 q 660 910 642 947 l 1026 157 q 1039 104 1039 128 q 1021 47 1039 72 q 975 8 1003 22 q 948 -10 969 4 q 915 -42 926 -24 q 903 -83 903 -60 q 922 -135 903 -117 q 969 -153 942 -153 q 999 -151 985 -153 q 1036 -143 1014 -150 m 392 394 l 669 394 l 531 704 l 392 394 z "},"Å":{"ha":1057,"x_min":17,"x_max":1039,"o":"m 1026 157 q 1039 104 1039 131 q 1002 26 1039 58 q 918 -6 965 -6 q 860 12 888 -6 q 818 63 833 29 l 756 203 l 306 203 l 242 63 q 199 11 225 28 q 139 -6 172 -6 q 54 26 92 -6 q 17 106 17 58 q 29 157 17 131 l 424 968 q 372 1083 372 1013 q 418 1192 372 1147 q 529 1236 464 1236 q 640 1192 594 1236 q 685 1083 685 1147 q 633 968 685 1013 l 1026 157 m 529 1143 q 488 1126 504 1143 q 471 1083 471 1108 q 488 1040 471 1057 q 529 1022 504 1022 q 570 1040 554 1022 q 586 1083 586 1057 q 570 1126 586 1108 q 529 1143 554 1143 m 392 394 l 669 394 l 531 704 l 392 394 z "},"Ǻ":{"ha":1057,"x_min":17,"x_max":1039,"o":"m 1026 157 q 1039 104 1039 131 q 1002 26 1039 58 q 918 -6 965 -6 q 860 12 888 -6 q 818 63 833 29 l 756 203 l 306 203 l 242 63 q 199 11 225 28 q 139 -6 172 -6 q 54 26 92 -6 q 17 106 17 58 q 29 157 17 131 l 424 968 q 372 1083 372 1013 q 418 1192 372 1147 q 529 1236 464 1236 q 596 1221 565 1236 l 719 1300 q 786 1322 751 1322 q 847 1297 822 1322 q 871 1238 871 1271 q 851 1187 871 1210 q 793 1153 832 1164 l 678 1128 q 685 1083 685 1104 q 633 968 685 1013 l 1026 157 m 529 1143 q 488 1126 504 1143 q 471 1083 471 1108 q 488 1040 471 1057 q 529 1022 504 1022 q 570 1040 554 1022 q 586 1083 586 1057 q 570 1126 586 1108 q 529 1143 554 1143 m 392 394 l 669 394 l 531 704 l 392 394 z "},"Ã":{"ha":1057,"x_min":17,"x_max":1039,"o":"m 1026 157 q 1039 106 1039 131 q 1002 28 1039 60 q 918 -4 965 -4 q 860 13 886 -4 q 818 63 833 29 l 756 203 l 306 203 l 242 63 q 199 13 226 29 q 140 -4 172 -4 q 55 28 93 -4 q 17 106 17 60 q 29 157 17 131 l 396 910 q 449 967 414 947 q 528 988 485 988 q 606 967 569 988 q 660 910 642 947 l 1026 157 m 392 394 l 669 394 l 531 704 l 392 394 m 633 1079 q 528 1097 592 1079 q 424 1114 458 1114 q 403 1110 411 1114 q 382 1096 394 1106 q 332 1074 360 1074 q 297 1088 310 1074 q 283 1128 283 1103 q 301 1191 283 1158 q 351 1245 319 1224 q 422 1267 383 1267 q 528 1249 464 1267 q 632 1232 597 1232 q 674 1250 653 1232 q 724 1271 697 1271 q 760 1257 747 1271 q 772 1218 772 1243 q 753 1155 772 1188 q 703 1101 735 1122 q 633 1079 671 1079 z "},"Æ":{"ha":1394,"x_min":1,"x_max":1374,"o":"m 1253 196 q 1374 97 1374 196 q 1343 25 1374 50 q 1253 0 1313 0 l 874 0 q 801 18 831 0 q 763 67 771 36 l 732 203 l 319 203 l 232 63 q 178 10 210 28 q 113 -7 147 -7 q 35 20 68 -7 q 1 88 1 47 q 25 157 1 122 l 519 910 q 580 960 542 942 q 663 979 618 979 l 1253 979 q 1343 954 1313 979 q 1374 882 1374 929 q 1342 808 1374 833 q 1253 783 1311 783 l 833 783 l 876 596 l 1225 596 q 1346 497 1346 596 q 1225 400 1346 400 l 921 400 l 967 196 l 1253 196 m 440 394 l 689 394 l 624 689 l 440 394 z "},"Ǽ":{"ha":1394,"x_min":1,"x_max":1374,"o":"m 1253 196 q 1374 97 1374 196 q 1343 25 1374 50 q 1253 0 1313 0 l 874 0 q 801 18 831 0 q 763 67 771 36 l 732 203 l 319 203 l 232 63 q 178 10 210 28 q 113 -7 147 -7 q 35 20 68 -7 q 1 88 1 47 q 25 157 1 122 l 519 910 q 580 960 542 942 q 663 979 618 979 l 1253 979 q 1343 954 1313 979 q 1374 882 1374 929 q 1342 808 1374 833 q 1253 783 1311 783 l 833 783 l 876 596 l 1225 596 q 1346 497 1346 596 q 1225 400 1346 400 l 921 400 l 967 196 l 1253 196 m 440 394 l 689 394 l 624 689 l 440 394 m 731 1061 q 703 1056 718 1056 q 663 1071 679 1056 q 646 1107 646 1086 q 667 1149 646 1128 l 779 1254 q 854 1289 815 1289 q 916 1263 890 1289 q 942 1201 942 1236 q 879 1119 942 1149 l 731 1061 z "},"B":{"ha":965,"x_min":89,"x_max":924,"o":"m 746 508 q 878 420 832 482 q 924 268 924 358 q 881 127 924 188 q 760 33 839 67 q 576 0 682 0 l 207 0 q 119 31 150 0 q 89 118 89 61 l 89 861 q 119 949 89 918 q 207 979 150 979 l 563 979 q 808 910 717 979 q 899 725 899 842 q 858 592 899 650 q 746 508 818 535 m 338 594 l 519 594 q 625 617 592 594 q 658 688 658 639 q 625 763 658 739 q 519 786 592 786 l 338 786 l 338 594 m 544 193 q 653 217 621 193 q 686 297 686 242 q 653 377 686 353 q 544 401 621 401 l 338 401 l 338 193 l 544 193 z "},"C":{"ha":942,"x_min":64,"x_max":907,"o":"m 553 -12 q 295 49 406 -12 q 124 224 185 110 q 64 490 64 338 q 124 756 64 642 q 295 931 185 869 q 553 992 406 992 q 863 899 729 992 q 897 863 886 882 q 907 813 907 843 q 883 740 907 769 q 824 710 858 710 q 786 716 803 710 q 747 736 769 722 q 656 778 699 765 q 567 790 613 790 q 383 716 443 790 q 322 490 322 642 q 383 263 322 338 q 567 189 443 189 q 647 202 608 189 q 747 243 686 215 q 790 264 776 258 q 824 269 804 269 q 883 240 858 269 q 907 167 907 210 q 897 117 907 138 q 863 81 886 97 q 553 -12 729 -12 z "},"Ć":{"ha":942,"x_min":64,"x_max":907,"o":"m 553 -12 q 295 49 406 -12 q 124 224 185 110 q 64 490 64 338 q 124 756 64 642 q 295 931 185 869 q 553 992 406 992 q 863 899 729 992 q 897 863 886 882 q 907 813 907 843 q 883 740 907 769 q 824 710 858 710 q 786 716 803 710 q 747 736 769 722 q 656 778 699 765 q 567 790 613 790 q 383 716 443 790 q 322 490 322 642 q 383 263 322 338 q 567 189 443 189 q 647 202 608 189 q 747 243 686 215 q 790 264 776 258 q 824 269 804 269 q 883 240 858 269 q 907 167 907 210 q 897 117 907 138 q 863 81 886 97 q 553 -12 729 -12 m 579 1061 q 551 1056 567 1056 q 511 1071 528 1056 q 494 1107 494 1086 q 515 1149 494 1128 l 628 1254 q 703 1289 664 1289 q 765 1263 739 1289 q 790 1201 790 1236 q 728 1119 790 1149 l 579 1061 z "},"Č":{"ha":942,"x_min":64,"x_max":907,"o":"m 553 -12 q 295 49 406 -12 q 124 224 185 110 q 64 490 64 338 q 124 756 64 642 q 295 931 185 869 q 553 992 406 992 q 863 899 729 992 q 897 863 886 882 q 907 813 907 843 q 883 740 907 769 q 824 710 858 710 q 786 716 803 710 q 747 736 769 722 q 656 778 699 765 q 567 790 613 790 q 383 716 443 790 q 322 490 322 642 q 383 263 322 338 q 567 189 443 189 q 647 202 608 189 q 747 243 686 215 q 790 264 776 258 q 824 269 804 269 q 883 240 858 269 q 907 167 907 210 q 897 117 907 138 q 863 81 886 97 q 553 -12 729 -12 m 553 1056 q 474 1085 508 1056 l 368 1167 q 340 1219 340 1190 q 361 1266 340 1246 q 410 1286 382 1286 q 465 1263 440 1286 l 553 1183 l 640 1263 q 696 1286 665 1286 q 744 1266 724 1286 q 765 1219 765 1246 q 738 1167 765 1189 l 632 1085 q 553 1056 597 1056 z "},"Ç":{"ha":942,"x_min":64,"x_max":907,"o":"m 824 269 q 883 240 858 269 q 907 167 907 210 q 897 117 907 138 q 863 81 886 97 q 600 -11 744 -1 l 592 -57 q 621 -56 603 -56 q 694 -82 664 -56 q 724 -151 724 -108 q 673 -241 724 -207 q 528 -275 622 -275 q 428 -262 465 -275 q 397 -218 397 -253 q 410 -181 397 -197 q 442 -171 424 -165 q 519 -182 497 -182 q 578 -151 578 -182 q 547 -128 578 -128 q 518 -131 536 -128 q 490 -135 500 -135 q 468 -127 476 -135 q 463 -106 460 -119 l 475 -8 q 256 72 349 7 q 114 244 164 138 q 64 490 64 351 q 124 756 64 642 q 295 931 185 869 q 553 992 406 992 q 863 899 729 992 q 897 863 886 882 q 907 813 907 843 q 883 740 907 769 q 824 710 858 710 q 786 716 803 710 q 747 736 769 722 q 656 778 699 765 q 567 790 613 790 q 383 716 443 790 q 322 490 322 642 q 383 263 322 338 q 567 189 443 189 q 647 202 608 189 q 747 243 686 215 q 790 264 776 258 q 824 269 804 269 z "},"Ḉ":{"ha":942,"x_min":64,"x_max":907,"o":"m 579 1061 q 551 1056 567 1056 q 511 1071 528 1056 q 494 1107 494 1086 q 515 1149 494 1128 l 628 1254 q 703 1289 664 1289 q 765 1263 739 1289 q 790 1201 790 1236 q 728 1119 790 1149 l 579 1061 m 824 269 q 883 240 858 269 q 907 167 907 210 q 897 117 907 138 q 863 81 886 97 q 600 -11 744 -1 l 592 -57 q 621 -56 603 -56 q 694 -82 664 -56 q 724 -151 724 -108 q 673 -241 724 -207 q 528 -275 622 -275 q 428 -262 465 -275 q 397 -218 397 -253 q 410 -181 397 -197 q 442 -171 424 -165 q 519 -182 497 -182 q 578 -151 578 -182 q 547 -128 578 -128 q 518 -131 536 -128 q 490 -135 500 -135 q 468 -127 476 -135 q 463 -106 460 -119 l 475 -8 q 256 72 349 7 q 114 244 164 138 q 64 490 64 351 q 124 756 64 642 q 295 931 185 869 q 553 992 406 992 q 863 899 729 992 q 897 863 886 882 q 907 813 907 843 q 883 740 907 769 q 824 710 858 710 q 786 716 803 710 q 747 736 769 722 q 656 778 699 765 q 567 790 613 790 q 383 716 443 790 q 322 490 322 642 q 383 263 322 338 q 567 189 443 189 q 647 202 608 189 q 747 243 686 215 q 790 264 776 258 q 824 269 804 269 z "},"Ĉ":{"ha":942,"x_min":64,"x_max":907,"o":"m 553 -12 q 295 49 406 -12 q 124 224 185 110 q 64 490 64 338 q 124 756 64 642 q 295 931 185 869 q 553 992 406 992 q 863 899 729 992 q 897 863 886 882 q 907 813 907 843 q 883 740 907 769 q 824 710 858 710 q 786 716 803 710 q 747 736 769 722 q 656 778 699 765 q 567 790 613 790 q 383 716 443 790 q 322 490 322 642 q 383 263 322 338 q 567 189 443 189 q 647 202 608 189 q 747 243 686 215 q 790 264 776 258 q 824 269 804 269 q 883 240 858 269 q 907 167 907 210 q 897 117 907 138 q 863 81 886 97 q 553 -12 729 -12 m 465 1081 q 410 1057 440 1057 q 360 1076 381 1057 q 339 1122 339 1096 q 368 1176 339 1153 l 474 1257 q 553 1286 508 1286 q 632 1257 597 1286 l 738 1176 q 765 1122 765 1153 q 745 1076 765 1096 q 696 1057 725 1057 q 640 1081 665 1057 l 553 1158 l 465 1081 z "},"Ċ":{"ha":942,"x_min":64,"x_max":907,"o":"m 553 -12 q 295 49 406 -12 q 124 224 185 110 q 64 490 64 338 q 124 756 64 642 q 295 931 185 869 q 553 992 406 992 q 863 899 729 992 q 897 863 886 882 q 907 813 907 843 q 883 740 907 769 q 824 710 858 710 q 786 716 803 710 q 747 736 769 722 q 656 778 699 765 q 567 790 613 790 q 383 716 443 790 q 322 490 322 642 q 383 263 322 338 q 567 189 443 189 q 647 202 608 189 q 747 243 686 215 q 790 264 776 258 q 824 269 804 269 q 883 240 858 269 q 907 167 907 210 q 897 117 907 138 q 863 81 886 97 q 553 -12 729 -12 m 553 1054 q 453 1087 490 1054 q 417 1174 417 1119 q 453 1258 417 1226 q 553 1290 490 1290 q 651 1258 614 1290 q 689 1174 689 1226 q 652 1087 689 1119 q 553 1054 615 1054 z "},"D":{"ha":1074,"x_min":89,"x_max":1010,"o":"m 207 0 q 119 31 150 0 q 89 118 89 61 l 89 861 q 119 949 89 918 q 207 979 150 979 l 488 979 q 767 920 650 979 q 947 751 885 861 q 1010 490 1010 642 q 948 227 1010 338 q 769 58 886 117 q 488 0 651 0 l 207 0 m 469 206 q 684 276 613 206 q 756 490 756 346 q 684 704 756 635 q 469 774 613 774 l 344 774 l 344 206 l 469 206 z "},"Ǆ":{"ha":1910,"x_min":89,"x_max":1888,"o":"m 207 0 q 119 31 150 0 q 89 118 89 61 l 89 861 q 119 949 89 918 q 207 979 150 979 l 488 979 q 767 920 650 979 q 947 751 885 861 q 1010 490 1010 642 q 948 227 1010 338 q 769 58 886 117 q 488 0 651 0 l 207 0 m 469 206 q 684 276 613 206 q 756 490 756 346 q 684 704 756 635 q 469 774 613 774 l 344 774 l 344 206 l 469 206 z "},"Ð":{"ha":1124,"x_min":0,"x_max":1060,"o":"m 538 979 q 817 920 700 979 q 997 751 935 861 q 1060 490 1060 642 q 998 227 1060 338 q 819 58 936 117 q 538 0 701 0 l 257 0 q 169 31 200 0 q 139 118 139 61 l 139 397 l 114 397 q 29 422 58 397 q 0 494 0 447 q 29 565 0 540 q 114 590 58 590 l 139 590 l 139 861 q 169 949 139 918 q 257 979 200 979 l 538 979 m 519 206 q 734 276 663 206 q 806 490 806 346 q 734 704 806 635 q 519 774 663 774 l 394 774 l 394 590 l 558 590 q 642 565 613 590 q 672 494 672 540 q 642 422 672 447 q 558 397 613 397 l 394 397 l 394 206 l 519 206 z "},"Ď":{"ha":1074,"x_min":89,"x_max":1010,"o":"m 207 0 q 119 31 150 0 q 89 118 89 61 l 89 861 q 119 949 89 918 q 207 979 150 979 l 488 979 q 767 920 650 979 q 947 751 885 861 q 1010 490 1010 642 q 948 227 1010 338 q 769 58 886 117 q 488 0 651 0 l 207 0 m 469 206 q 684 276 613 206 q 756 490 756 346 q 684 704 756 635 q 469 774 613 774 l 344 774 l 344 206 l 469 206 m 536 1056 q 457 1085 492 1056 l 351 1167 q 324 1219 324 1190 q 344 1266 324 1246 q 393 1286 365 1286 q 449 1263 424 1286 l 536 1183 l 624 1263 q 679 1286 649 1286 q 728 1266 707 1286 q 749 1219 749 1246 q 721 1167 749 1189 l 615 1085 q 536 1056 581 1056 z "},"Đ":{"ha":1124,"x_min":0,"x_max":1060,"o":"m 538 979 q 817 920 700 979 q 997 751 935 861 q 1060 490 1060 642 q 998 227 1060 338 q 819 58 936 117 q 538 0 701 0 l 257 0 q 169 31 200 0 q 139 118 139 61 l 139 397 l 114 397 q 29 422 58 397 q 0 494 0 447 q 29 565 0 540 q 114 590 58 590 l 139 590 l 139 861 q 169 949 139 918 q 257 979 200 979 l 538 979 m 519 206 q 734 276 663 206 q 806 490 806 346 q 734 704 806 635 q 519 774 663 774 l 394 774 l 394 590 l 558 590 q 642 565 613 590 q 672 494 672 540 q 642 422 672 447 q 558 397 613 397 l 394 397 l 394 206 l 519 206 z "},"Ḍ":{"ha":1074,"x_min":89,"x_max":1010,"o":"m 207 0 q 119 31 150 0 q 89 118 89 61 l 89 861 q 119 949 89 918 q 207 979 150 979 l 488 979 q 767 920 650 979 q 947 751 885 861 q 1010 490 1010 642 q 948 227 1010 338 q 769 58 886 117 q 488 0 651 0 l 207 0 m 469 206 q 684 276 613 206 q 756 490 756 346 q 684 704 756 635 q 469 774 613 774 l 344 774 l 344 206 l 469 206 m 536 -292 q 453 -261 485 -292 q 421 -181 421 -231 q 452 -101 421 -131 q 536 -72 483 -72 q 619 -102 588 -72 q 651 -181 651 -132 q 619 -261 651 -231 q 536 -292 588 -292 z "},"Ḏ":{"ha":1074,"x_min":89,"x_max":1010,"o":"m 207 0 q 119 31 150 0 q 89 118 89 61 l 89 861 q 119 949 89 918 q 207 979 150 979 l 488 979 q 767 920 650 979 q 947 751 885 861 q 1010 490 1010 642 q 948 227 1010 338 q 769 58 886 117 q 488 0 651 0 l 207 0 m 469 206 q 684 276 613 206 q 756 490 756 346 q 684 704 756 635 q 469 774 613 774 l 344 774 l 344 206 l 469 206 m 368 -251 q 313 -233 335 -251 q 292 -182 292 -214 q 313 -133 292 -151 q 368 -114 335 -114 l 704 -114 q 759 -133 738 -114 q 781 -182 781 -151 q 759 -233 781 -214 q 704 -251 738 -251 l 368 -251 z "},"ǅ":{"ha":1793,"x_min":89,"x_max":1775,"o":"m 207 0 q 119 31 150 0 q 89 118 89 61 l 89 861 q 119 949 89 918 q 207 979 150 979 l 488 979 q 767 920 650 979 q 947 751 885 861 q 1010 490 1010 642 q 948 227 1010 338 q 769 58 886 117 q 488 0 651 0 l 207 0 m 469 206 q 684 276 613 206 q 756 490 756 346 q 684 704 756 635 q 469 774 613 774 l 344 774 l 344 206 l 469 206 z "},"E":{"ha":829,"x_min":89,"x_max":808,"o":"m 207 0 q 119 31 150 0 q 89 118 89 61 l 89 861 q 119 949 89 918 q 207 979 150 979 l 688 979 q 778 954 747 979 q 808 882 808 929 q 688 782 808 782 l 338 782 l 338 596 l 660 596 q 781 497 781 596 q 750 425 781 450 q 660 400 719 400 l 338 400 l 338 197 l 688 197 q 808 97 808 197 q 778 25 808 50 q 688 0 747 0 l 207 0 z "},"É":{"ha":829,"x_min":89,"x_max":808,"o":"m 207 0 q 119 31 150 0 q 89 118 89 61 l 89 861 q 119 949 89 918 q 207 979 150 979 l 688 979 q 778 954 747 979 q 808 882 808 929 q 688 782 808 782 l 338 782 l 338 596 l 660 596 q 781 497 781 596 q 750 425 781 450 q 660 400 719 400 l 338 400 l 338 197 l 688 197 q 808 97 808 197 q 778 25 808 50 q 688 0 747 0 l 207 0 m 489 1061 q 461 1056 476 1056 q 421 1071 438 1056 q 404 1107 404 1086 q 425 1149 404 1128 l 538 1254 q 613 1289 574 1289 q 674 1263 649 1289 q 700 1201 700 1236 q 638 1119 700 1149 l 489 1061 z "},"Ĕ":{"ha":829,"x_min":89,"x_max":808,"o":"m 207 0 q 119 31 150 0 q 89 118 89 61 l 89 861 q 119 949 89 918 q 207 979 150 979 l 688 979 q 778 954 747 979 q 808 882 808 929 q 688 782 808 782 l 338 782 l 338 596 l 660 596 q 781 497 781 596 q 750 425 781 450 q 660 400 719 400 l 338 400 l 338 197 l 688 197 q 808 97 808 197 q 778 25 808 50 q 688 0 747 0 l 207 0 m 463 1072 q 315 1101 379 1072 q 225 1174 251 1129 q 214 1214 214 1194 q 231 1255 214 1239 q 274 1271 249 1271 q 329 1249 303 1271 q 389 1224 351 1233 q 463 1214 426 1214 q 536 1224 499 1214 q 596 1249 574 1233 q 653 1272 621 1272 q 695 1256 678 1272 q 713 1215 713 1240 q 700 1174 713 1197 q 610 1101 674 1131 q 463 1072 546 1072 z "},"Ě":{"ha":829,"x_min":89,"x_max":808,"o":"m 207 0 q 119 31 150 0 q 89 118 89 61 l 89 861 q 119 949 89 918 q 207 979 150 979 l 688 979 q 778 954 747 979 q 808 882 808 929 q 688 782 808 782 l 338 782 l 338 596 l 660 596 q 781 497 781 596 q 750 425 781 450 q 660 400 719 400 l 338 400 l 338 197 l 688 197 q 808 97 808 197 q 778 25 808 50 q 688 0 747 0 l 207 0 m 463 1056 q 383 1085 418 1056 l 278 1167 q 250 1219 250 1190 q 271 1266 250 1246 q 319 1286 292 1286 q 375 1263 350 1286 l 463 1183 l 550 1263 q 606 1286 575 1286 q 654 1266 633 1286 q 675 1219 675 1246 q 647 1167 675 1189 l 542 1085 q 463 1056 507 1056 z "},"Ȩ":{"ha":829,"x_min":89,"x_max":808,"o":"m 688 197 q 808 97 808 197 q 778 25 808 50 q 688 0 747 0 l 511 0 l 501 -57 q 531 -56 513 -56 q 603 -82 574 -56 q 633 -151 633 -108 q 583 -241 633 -207 q 438 -275 532 -275 q 338 -262 375 -275 q 307 -218 307 -253 q 320 -181 307 -197 q 351 -171 333 -165 q 429 -182 407 -182 q 488 -151 488 -182 q 457 -128 488 -128 q 428 -131 446 -128 q 400 -135 410 -135 q 378 -127 386 -135 q 372 -106 369 -119 l 386 0 l 207 0 q 119 31 150 0 q 89 118 89 61 l 89 861 q 119 949 89 918 q 207 979 150 979 l 688 979 q 778 954 747 979 q 808 882 808 929 q 688 782 808 782 l 338 782 l 338 596 l 660 596 q 781 497 781 596 q 750 425 781 450 q 660 400 719 400 l 338 400 l 338 197 l 688 197 z "},"Ḝ":{"ha":829,"x_min":89,"x_max":808,"o":"m 463 1072 q 315 1101 379 1072 q 225 1174 251 1129 q 214 1214 214 1194 q 231 1255 214 1239 q 274 1271 249 1271 q 329 1249 303 1271 q 389 1224 351 1233 q 463 1214 426 1214 q 536 1224 499 1214 q 596 1249 574 1233 q 653 1272 621 1272 q 695 1256 678 1272 q 713 1215 713 1240 q 700 1174 713 1197 q 610 1101 674 1131 q 463 1072 546 1072 m 688 197 q 808 97 808 197 q 778 25 808 50 q 688 0 747 0 l 511 0 l 501 -57 q 531 -56 513 -56 q 603 -82 574 -56 q 633 -151 633 -108 q 583 -241 633 -207 q 438 -275 532 -275 q 338 -262 375 -275 q 307 -218 307 -253 q 320 -181 307 -197 q 351 -171 333 -165 q 429 -182 407 -182 q 488 -151 488 -182 q 457 -128 488 -128 q 428 -131 446 -128 q 400 -135 410 -135 q 378 -127 386 -135 q 372 -106 369 -119 l 386 0 l 207 0 q 119 31 150 0 q 89 118 89 61 l 89 861 q 119 949 89 918 q 207 979 150 979 l 688 979 q 778 954 747 979 q 808 882 808 929 q 688 782 808 782 l 338 782 l 338 596 l 660 596 q 781 497 781 596 q 750 425 781 450 q 660 400 719 400 l 338 400 l 338 197 l 688 197 z "},"Ê":{"ha":829,"x_min":89,"x_max":808,"o":"m 207 0 q 119 31 150 0 q 89 118 89 61 l 89 861 q 119 949 89 918 q 207 979 150 979 l 688 979 q 778 954 747 979 q 808 882 808 929 q 688 782 808 782 l 338 782 l 338 596 l 660 596 q 781 497 781 596 q 750 425 781 450 q 660 400 719 400 l 338 400 l 338 197 l 688 197 q 808 97 808 197 q 778 25 808 50 q 688 0 747 0 l 207 0 m 375 1081 q 319 1057 350 1057 q 269 1076 290 1057 q 249 1122 249 1096 q 278 1176 249 1153 l 383 1257 q 463 1286 418 1286 q 542 1257 507 1286 l 647 1176 q 675 1122 675 1153 q 655 1076 675 1096 q 606 1057 635 1057 q 550 1081 575 1057 l 463 1158 l 375 1081 z "},"Ế":{"ha":829,"x_min":89,"x_max":838,"o":"m 207 0 q 119 31 150 0 q 89 118 89 61 l 89 861 q 119 949 89 918 q 207 979 150 979 l 688 979 q 778 954 747 979 q 808 882 808 929 q 688 782 808 782 l 338 782 l 338 596 l 660 596 q 781 497 781 596 q 750 425 781 450 q 660 400 719 400 l 338 400 l 338 197 l 688 197 q 808 97 808 197 q 778 25 808 50 q 688 0 747 0 l 207 0 m 676 1211 q 651 1206 665 1206 q 614 1222 629 1206 q 599 1260 599 1238 q 614 1299 599 1279 l 678 1379 q 749 1418 708 1418 q 810 1389 783 1418 q 838 1324 838 1360 q 823 1278 838 1299 q 778 1244 808 1257 l 676 1211 m 363 1071 q 321 1057 343 1057 q 272 1077 293 1057 q 250 1124 250 1097 q 290 1185 250 1160 l 383 1233 q 463 1260 429 1260 q 542 1233 496 1260 l 635 1185 q 676 1122 676 1158 q 655 1076 676 1096 q 606 1056 633 1056 q 567 1068 585 1056 l 463 1135 l 363 1071 z "},"Ệ":{"ha":829,"x_min":89,"x_max":808,"o":"m 207 0 q 119 31 150 0 q 89 118 89 61 l 89 861 q 119 949 89 918 q 207 979 150 979 l 688 979 q 778 954 747 979 q 808 882 808 929 q 688 782 808 782 l 338 782 l 338 596 l 660 596 q 781 497 781 596 q 750 425 781 450 q 660 400 719 400 l 338 400 l 338 197 l 688 197 q 808 97 808 197 q 778 25 808 50 q 688 0 747 0 l 207 0 m 463 -292 q 379 -261 411 -292 q 347 -181 347 -231 q 378 -101 347 -131 q 463 -72 410 -72 q 546 -102 514 -72 q 578 -181 578 -132 q 546 -261 578 -231 q 463 -292 514 -292 m 375 1081 q 319 1057 350 1057 q 269 1076 290 1057 q 249 1122 249 1096 q 278 1176 249 1153 l 383 1257 q 463 1286 418 1286 q 542 1257 507 1286 l 647 1176 q 675 1122 675 1153 q 655 1076 675 1096 q 606 1057 635 1057 q 550 1081 575 1057 l 463 1158 l 375 1081 z "},"Ề":{"ha":829,"x_min":89,"x_max":808,"o":"m 207 0 q 119 31 150 0 q 89 118 89 61 l 89 861 q 119 949 89 918 q 207 979 150 979 l 688 979 q 778 954 747 979 q 808 882 808 929 q 688 782 808 782 l 338 782 l 338 596 l 660 596 q 781 497 781 596 q 750 425 781 450 q 660 400 719 400 l 338 400 l 338 197 l 688 197 q 808 97 808 197 q 778 25 808 50 q 688 0 747 0 l 207 0 m 575 1251 q 524 1324 524 1278 q 553 1388 524 1358 q 619 1417 583 1417 q 686 1376 661 1417 l 740 1289 q 751 1254 751 1272 q 737 1219 751 1233 q 700 1206 722 1206 q 658 1217 683 1206 l 575 1251 m 363 1071 q 321 1057 343 1057 q 272 1077 293 1057 q 250 1124 250 1097 q 290 1185 250 1160 l 383 1233 q 463 1260 429 1260 q 542 1233 496 1260 l 635 1185 q 676 1122 676 1158 q 655 1076 676 1096 q 606 1056 633 1056 q 567 1068 585 1056 l 463 1135 l 363 1071 z "},"Ể":{"ha":829,"x_min":89,"x_max":829,"o":"m 207 0 q 119 31 150 0 q 89 118 89 61 l 89 861 q 119 949 89 918 q 207 979 150 979 l 688 979 q 778 954 747 979 q 808 882 808 929 q 688 782 808 782 l 338 782 l 338 596 l 660 596 q 781 497 781 596 q 750 425 781 450 q 660 400 719 400 l 338 400 l 338 197 l 688 197 q 808 97 808 197 q 778 25 808 50 q 688 0 747 0 l 207 0 m 714 1229 q 694 1212 710 1218 q 658 1206 679 1206 q 616 1215 633 1206 q 599 1244 599 1225 q 617 1283 599 1271 q 663 1304 636 1296 q 690 1318 690 1313 q 681 1328 690 1325 q 646 1331 671 1331 l 618 1329 q 583 1326 596 1326 q 547 1339 563 1326 q 531 1368 531 1351 q 557 1399 531 1389 q 665 1415 603 1415 q 785 1392 742 1415 q 829 1332 829 1368 q 813 1292 829 1306 q 765 1267 796 1279 q 730 1249 742 1257 q 714 1229 718 1242 m 363 1071 q 321 1057 343 1057 q 272 1077 293 1057 q 250 1124 250 1097 q 290 1185 250 1160 l 383 1233 q 463 1260 429 1260 q 542 1233 496 1260 l 635 1185 q 676 1122 676 1158 q 655 1076 676 1096 q 606 1056 633 1056 q 567 1068 585 1056 l 463 1135 l 363 1071 z "},"Ễ":{"ha":829,"x_min":89,"x_max":808,"o":"m 207 0 q 119 31 150 0 q 89 118 89 61 l 89 861 q 119 949 89 918 q 207 979 150 979 l 688 979 q 778 954 747 979 q 808 882 808 929 q 688 782 808 782 l 338 782 l 338 596 l 660 596 q 781 497 781 596 q 750 425 781 450 q 660 400 719 400 l 338 400 l 338 197 l 688 197 q 808 97 808 197 q 778 25 808 50 q 688 0 747 0 l 207 0 m 568 1261 q 510 1267 543 1261 q 447 1282 476 1274 q 407 1291 438 1285 q 358 1297 376 1297 q 337 1292 346 1297 q 317 1278 328 1288 q 267 1256 294 1256 q 231 1268 244 1256 q 218 1303 218 1281 q 237 1348 218 1322 q 288 1392 256 1374 q 357 1410 319 1410 q 478 1390 400 1410 q 567 1375 539 1375 q 588 1380 579 1375 q 608 1394 597 1385 q 658 1417 631 1417 q 694 1404 682 1417 q 707 1369 707 1392 q 688 1324 707 1350 q 638 1280 669 1299 q 568 1261 606 1261 m 363 1071 q 321 1057 343 1057 q 272 1077 293 1057 q 250 1124 250 1097 q 290 1185 250 1160 l 383 1233 q 463 1260 429 1260 q 542 1233 496 1260 l 635 1185 q 676 1122 676 1158 q 655 1076 676 1096 q 606 1056 633 1056 q 567 1068 585 1056 l 463 1135 l 363 1071 z "},"Ȅ":{"ha":829,"x_min":89,"x_max":808,"o":"m 207 0 q 119 31 150 0 q 89 118 89 61 l 89 861 q 119 949 89 918 q 207 979 150 979 l 688 979 q 778 954 747 979 q 808 882 808 929 q 688 782 808 782 l 338 782 l 338 596 l 660 596 q 781 497 781 596 q 750 425 781 450 q 660 400 719 400 l 338 400 l 338 197 l 688 197 q 808 97 808 197 q 778 25 808 50 q 688 0 747 0 l 207 0 m 233 1153 q 208 1206 208 1176 q 237 1262 208 1238 q 299 1286 265 1286 q 365 1239 343 1286 l 408 1135 q 414 1108 414 1122 q 399 1071 414 1086 q 363 1056 383 1056 q 318 1075 338 1056 l 233 1153 m 436 1153 q 411 1206 411 1176 q 440 1262 411 1238 q 501 1286 468 1286 q 568 1239 546 1286 l 611 1135 q 617 1108 617 1122 q 601 1071 617 1086 q 565 1056 586 1056 q 521 1075 540 1056 l 436 1153 z "},"Ë":{"ha":829,"x_min":89,"x_max":808,"o":"m 207 0 q 119 31 150 0 q 89 118 89 61 l 89 861 q 119 949 89 918 q 207 979 150 979 l 688 979 q 778 954 747 979 q 808 882 808 929 q 688 782 808 782 l 338 782 l 338 596 l 660 596 q 781 497 781 596 q 750 425 781 450 q 660 400 719 400 l 338 400 l 338 197 l 688 197 q 808 97 808 197 q 778 25 808 50 q 688 0 747 0 l 207 0 m 325 1061 q 240 1092 272 1061 q 208 1174 208 1122 q 240 1253 208 1224 q 325 1283 272 1283 q 410 1253 378 1283 q 443 1174 443 1224 q 410 1092 443 1122 q 325 1061 378 1061 m 600 1061 q 515 1092 547 1061 q 483 1174 483 1122 q 515 1253 483 1224 q 600 1283 547 1283 q 684 1253 651 1283 q 717 1174 717 1224 q 685 1092 717 1122 q 600 1061 653 1061 z "},"Ė":{"ha":829,"x_min":89,"x_max":808,"o":"m 207 0 q 119 31 150 0 q 89 118 89 61 l 89 861 q 119 949 89 918 q 207 979 150 979 l 688 979 q 778 954 747 979 q 808 882 808 929 q 688 782 808 782 l 338 782 l 338 596 l 660 596 q 781 497 781 596 q 750 425 781 450 q 660 400 719 400 l 338 400 l 338 197 l 688 197 q 808 97 808 197 q 778 25 808 50 q 688 0 747 0 l 207 0 m 463 1054 q 363 1087 400 1054 q 326 1174 326 1119 q 363 1258 326 1226 q 463 1290 400 1290 q 561 1258 524 1290 q 599 1174 599 1226 q 562 1087 599 1119 q 463 1054 525 1054 z "},"Ẹ":{"ha":829,"x_min":89,"x_max":808,"o":"m 207 0 q 119 31 150 0 q 89 118 89 61 l 89 861 q 119 949 89 918 q 207 979 150 979 l 688 979 q 778 954 747 979 q 808 882 808 929 q 688 782 808 782 l 338 782 l 338 596 l 660 596 q 781 497 781 596 q 750 425 781 450 q 660 400 719 400 l 338 400 l 338 197 l 688 197 q 808 97 808 197 q 778 25 808 50 q 688 0 747 0 l 207 0 m 463 -292 q 379 -261 411 -292 q 347 -181 347 -231 q 378 -101 347 -131 q 463 -72 410 -72 q 546 -102 514 -72 q 578 -181 578 -132 q 546 -261 578 -231 q 463 -292 514 -292 z "},"È":{"ha":829,"x_min":89,"x_max":808,"o":"m 207 0 q 119 31 150 0 q 89 118 89 61 l 89 861 q 119 949 89 918 q 207 979 150 979 l 688 979 q 778 954 747 979 q 808 882 808 929 q 688 782 808 782 l 338 782 l 338 596 l 660 596 q 781 497 781 596 q 750 425 781 450 q 660 400 719 400 l 338 400 l 338 197 l 688 197 q 808 97 808 197 q 778 25 808 50 q 688 0 747 0 l 207 0 m 288 1119 q 224 1201 224 1149 q 249 1261 224 1235 q 311 1288 275 1288 q 388 1254 350 1288 l 500 1149 q 519 1107 519 1129 q 503 1071 519 1086 q 464 1056 486 1056 q 436 1061 449 1056 l 288 1119 z "},"Ẻ":{"ha":829,"x_min":89,"x_max":808,"o":"m 207 0 q 119 31 150 0 q 89 118 89 61 l 89 861 q 119 949 89 918 q 207 979 150 979 l 688 979 q 778 954 747 979 q 808 882 808 929 q 688 782 808 782 l 338 782 l 338 596 l 660 596 q 781 497 781 596 q 750 425 781 450 q 660 400 719 400 l 338 400 l 338 197 l 688 197 q 808 97 808 197 q 778 25 808 50 q 688 0 747 0 l 207 0 m 522 1088 q 501 1064 517 1072 q 467 1056 486 1056 q 425 1067 443 1056 q 407 1099 407 1079 q 424 1139 407 1126 q 469 1163 440 1151 q 487 1169 479 1165 q 494 1176 494 1172 q 453 1199 494 1199 q 433 1197 442 1199 q 415 1194 424 1196 q 378 1189 388 1189 q 351 1202 361 1189 q 340 1233 340 1215 q 365 1269 340 1260 q 474 1286 411 1286 q 593 1260 549 1286 q 638 1199 638 1235 q 620 1154 638 1169 q 571 1125 603 1139 q 538 1108 550 1117 q 522 1088 526 1100 z "},"Ȇ":{"ha":829,"x_min":89,"x_max":808,"o":"m 207 0 q 119 31 150 0 q 89 118 89 61 l 89 861 q 119 949 89 918 q 207 979 150 979 l 688 979 q 778 954 747 979 q 808 882 808 929 q 688 782 808 782 l 338 782 l 338 596 l 660 596 q 781 497 781 596 q 750 425 781 450 q 660 400 719 400 l 338 400 l 338 197 l 688 197 q 808 97 808 197 q 778 25 808 50 q 688 0 747 0 l 207 0 m 329 1094 q 272 1071 304 1071 q 230 1087 247 1071 q 213 1128 213 1103 q 225 1169 213 1147 q 315 1242 251 1213 q 463 1271 379 1271 q 610 1242 547 1271 q 700 1169 674 1214 q 711 1129 711 1149 q 694 1088 711 1104 q 651 1072 676 1072 q 596 1094 622 1072 q 537 1119 574 1110 q 463 1129 500 1129 q 388 1119 425 1129 q 329 1094 351 1110 z "},"Ē":{"ha":829,"x_min":89,"x_max":808,"o":"m 207 0 q 119 31 150 0 q 89 118 89 61 l 89 861 q 119 949 89 918 q 207 979 150 979 l 688 979 q 778 954 747 979 q 808 882 808 929 q 688 782 808 782 l 338 782 l 338 596 l 660 596 q 781 497 781 596 q 750 425 781 450 q 660 400 719 400 l 338 400 l 338 197 l 688 197 q 808 97 808 197 q 778 25 808 50 q 688 0 747 0 l 207 0 m 294 1097 q 240 1117 261 1097 q 218 1171 218 1136 q 240 1226 218 1206 q 294 1246 261 1246 l 631 1246 q 685 1226 664 1246 q 707 1171 707 1206 q 685 1117 707 1136 q 631 1097 664 1097 l 294 1097 z "},"Ḗ":{"ha":829,"x_min":89,"x_max":808,"o":"m 207 0 q 119 31 150 0 q 89 118 89 61 l 89 861 q 119 949 89 918 q 207 979 150 979 l 688 979 q 778 954 747 979 q 808 882 808 929 q 688 782 808 782 l 338 782 l 338 596 l 660 596 q 781 497 781 596 q 750 425 781 450 q 660 400 719 400 l 338 400 l 338 197 l 688 197 q 808 97 808 197 q 778 25 808 50 q 688 0 747 0 l 207 0 m 294 1097 q 240 1117 261 1097 q 218 1171 218 1136 q 240 1226 218 1206 q 294 1246 261 1246 l 631 1246 q 685 1226 664 1246 q 707 1171 707 1206 q 685 1117 707 1136 q 631 1097 664 1097 l 294 1097 m 489 1283 q 461 1278 476 1278 q 421 1293 438 1278 q 404 1329 404 1308 q 425 1371 404 1350 l 538 1476 q 613 1511 574 1511 q 674 1485 649 1511 q 700 1424 700 1458 q 638 1342 700 1371 l 489 1283 z "},"Ḕ":{"ha":829,"x_min":89,"x_max":808,"o":"m 207 0 q 119 31 150 0 q 89 118 89 61 l 89 861 q 119 949 89 918 q 207 979 150 979 l 688 979 q 778 954 747 979 q 808 882 808 929 q 688 782 808 782 l 338 782 l 338 596 l 660 596 q 781 497 781 596 q 750 425 781 450 q 660 400 719 400 l 338 400 l 338 197 l 688 197 q 808 97 808 197 q 778 25 808 50 q 688 0 747 0 l 207 0 m 294 1097 q 240 1117 261 1097 q 218 1171 218 1136 q 240 1226 218 1206 q 294 1246 261 1246 l 631 1246 q 685 1226 664 1246 q 707 1171 707 1206 q 685 1117 707 1136 q 631 1097 664 1097 l 294 1097 m 288 1342 q 224 1424 224 1371 q 249 1483 224 1457 q 311 1510 275 1510 q 388 1476 350 1510 l 500 1371 q 519 1329 519 1351 q 503 1293 519 1308 q 464 1278 486 1278 q 436 1283 449 1278 l 288 1342 z "},"Ę":{"ha":829,"x_min":89,"x_max":851,"o":"m 799 -143 q 810 -142 803 -142 q 840 -157 828 -142 q 851 -193 851 -172 q 825 -242 851 -225 q 694 -275 768 -275 q 564 -232 615 -275 q 513 -121 513 -189 q 565 0 513 -49 l 207 0 q 119 31 150 0 q 89 118 89 61 l 89 861 q 119 949 89 918 q 207 979 150 979 l 688 979 q 778 954 747 979 q 808 882 808 929 q 688 782 808 782 l 338 782 l 338 596 l 660 596 q 781 497 781 596 q 750 425 781 450 q 660 400 719 400 l 338 400 l 338 197 l 688 197 q 808 97 808 197 q 788 34 808 57 q 724 0 768 11 q 681 -31 696 -10 q 665 -83 665 -53 q 683 -134 665 -115 q 732 -153 701 -153 q 799 -143 757 -153 z "},"Ẽ":{"ha":829,"x_min":89,"x_max":808,"o":"m 207 0 q 119 31 150 0 q 89 118 89 61 l 89 861 q 119 949 89 918 q 207 979 150 979 l 688 979 q 778 954 747 979 q 808 882 808 929 q 688 782 808 782 l 338 782 l 338 596 l 660 596 q 781 497 781 596 q 750 425 781 450 q 660 400 719 400 l 338 400 l 338 197 l 688 197 q 808 97 808 197 q 778 25 808 50 q 688 0 747 0 l 207 0 m 568 1079 q 463 1097 526 1079 q 358 1114 393 1114 q 338 1110 346 1114 q 317 1096 329 1106 q 267 1074 294 1074 q 231 1088 244 1074 q 218 1128 218 1103 q 236 1191 218 1158 q 286 1245 254 1224 q 357 1267 318 1267 q 463 1249 399 1267 q 567 1232 532 1232 q 608 1250 588 1232 q 658 1271 632 1271 q 694 1257 682 1271 q 707 1218 707 1243 q 688 1155 707 1188 q 638 1101 669 1122 q 568 1079 606 1079 z "},"F":{"ha":803,"x_min":89,"x_max":794,"o":"m 215 -8 q 124 26 158 -8 q 89 118 89 61 l 89 861 q 119 949 89 918 q 207 979 150 979 l 674 979 q 765 955 736 979 q 794 878 794 931 q 765 803 794 826 q 674 779 735 779 l 340 779 l 340 599 l 646 599 q 737 574 707 599 q 767 497 767 549 q 737 422 767 446 q 646 399 707 399 l 340 399 l 340 118 q 306 26 340 60 q 215 -8 272 -8 z "},"G":{"ha":1033,"x_min":64,"x_max":956,"o":"m 856 553 q 928 527 901 553 q 956 458 956 501 l 956 217 q 945 110 956 147 q 908 53 935 74 q 826 17 881 32 q 706 -5 772 3 q 583 -12 640 -12 q 306 48 424 -12 q 126 222 189 108 q 64 490 64 335 q 126 756 64 643 q 304 931 189 869 q 574 992 419 992 q 748 969 671 992 q 892 899 825 946 q 926 863 915 882 q 936 813 936 843 q 913 740 936 769 q 856 710 889 710 q 817 716 833 710 q 776 738 801 722 q 680 778 725 765 q 582 790 635 790 q 385 717 450 790 q 321 490 321 643 q 388 258 321 333 q 594 182 456 182 q 726 196 661 182 l 726 378 l 626 378 q 556 401 581 378 q 531 465 531 424 q 556 530 531 507 q 626 553 581 553 l 856 553 z "},"Ğ":{"ha":1033,"x_min":64,"x_max":956,"o":"m 856 553 q 928 527 901 553 q 956 458 956 501 l 956 217 q 945 110 956 147 q 908 53 935 74 q 826 17 881 32 q 706 -5 772 3 q 583 -12 640 -12 q 306 48 424 -12 q 126 222 189 108 q 64 490 64 335 q 126 756 64 643 q 304 931 189 869 q 574 992 419 992 q 748 969 671 992 q 892 899 825 946 q 926 863 915 882 q 936 813 936 843 q 913 740 936 769 q 856 710 889 710 q 817 716 833 710 q 776 738 801 722 q 680 778 725 765 q 582 790 635 790 q 385 717 450 790 q 321 490 321 643 q 388 258 321 333 q 594 182 456 182 q 726 196 661 182 l 726 378 l 626 378 q 556 401 581 378 q 531 465 531 424 q 556 530 531 507 q 626 553 581 553 l 856 553 m 574 1072 q 426 1101 490 1072 q 336 1174 363 1129 q 325 1214 325 1194 q 342 1255 325 1239 q 385 1271 360 1271 q 440 1249 414 1271 q 500 1224 463 1233 q 574 1214 538 1214 q 647 1224 610 1214 q 707 1249 685 1233 q 764 1272 732 1272 q 806 1256 789 1272 q 824 1215 824 1240 q 811 1174 824 1197 q 721 1101 785 1131 q 574 1072 657 1072 z "},"Ǧ":{"ha":1033,"x_min":64,"x_max":956,"o":"m 856 553 q 928 527 901 553 q 956 458 956 501 l 956 217 q 945 110 956 147 q 908 53 935 74 q 826 17 881 32 q 706 -5 772 3 q 583 -12 640 -12 q 306 48 424 -12 q 126 222 189 108 q 64 490 64 335 q 126 756 64 643 q 304 931 189 869 q 574 992 419 992 q 748 969 671 992 q 892 899 825 946 q 926 863 915 882 q 936 813 936 843 q 913 740 936 769 q 856 710 889 710 q 817 716 833 710 q 776 738 801 722 q 680 778 725 765 q 582 790 635 790 q 385 717 450 790 q 321 490 321 643 q 388 258 321 333 q 594 182 456 182 q 726 196 661 182 l 726 378 l 626 378 q 556 401 581 378 q 531 465 531 424 q 556 530 531 507 q 626 553 581 553 l 856 553 m 574 1056 q 494 1085 529 1056 l 389 1167 q 361 1219 361 1190 q 382 1266 361 1246 q 431 1286 403 1286 q 486 1263 461 1286 l 574 1183 l 661 1263 q 717 1286 686 1286 q 765 1266 744 1286 q 786 1219 786 1246 q 758 1167 786 1189 l 653 1085 q 574 1056 618 1056 z "},"Ĝ":{"ha":1033,"x_min":64,"x_max":956,"o":"m 856 553 q 928 527 901 553 q 956 458 956 501 l 956 217 q 945 110 956 147 q 908 53 935 74 q 826 17 881 32 q 706 -5 772 3 q 583 -12 640 -12 q 306 48 424 -12 q 126 222 189 108 q 64 490 64 335 q 126 756 64 643 q 304 931 189 869 q 574 992 419 992 q 748 969 671 992 q 892 899 825 946 q 926 863 915 882 q 936 813 936 843 q 913 740 936 769 q 856 710 889 710 q 817 716 833 710 q 776 738 801 722 q 680 778 725 765 q 582 790 635 790 q 385 717 450 790 q 321 490 321 643 q 388 258 321 333 q 594 182 456 182 q 726 196 661 182 l 726 378 l 626 378 q 556 401 581 378 q 531 465 531 424 q 556 530 531 507 q 626 553 581 553 l 856 553 m 486 1081 q 431 1057 461 1057 q 381 1076 401 1057 q 360 1122 360 1096 q 389 1176 360 1153 l 494 1257 q 574 1286 529 1286 q 653 1257 618 1286 l 758 1176 q 786 1122 786 1153 q 766 1076 786 1096 q 717 1057 746 1057 q 661 1081 686 1057 l 574 1158 l 486 1081 z "},"Ģ":{"ha":1033,"x_min":64,"x_max":956,"o":"m 856 553 q 928 527 901 553 q 956 458 956 501 l 956 217 q 945 110 956 147 q 908 53 935 74 q 826 17 881 32 q 706 -5 772 3 q 583 -12 640 -12 q 306 48 424 -12 q 126 222 189 108 q 64 490 64 335 q 126 756 64 643 q 304 931 189 869 q 574 992 419 992 q 748 969 671 992 q 892 899 825 946 q 926 863 915 882 q 936 813 936 843 q 913 740 936 769 q 856 710 889 710 q 817 716 833 710 q 776 738 801 722 q 680 778 725 765 q 582 790 635 790 q 385 717 450 790 q 321 490 321 643 q 388 258 321 333 q 594 182 456 182 q 726 196 661 182 l 726 378 l 626 378 q 556 401 581 378 q 531 465 531 424 q 556 530 531 507 q 626 553 581 553 l 856 553 m 581 -81 q 674 -115 639 -81 q 710 -217 710 -150 q 695 -299 710 -261 q 661 -358 681 -336 q 633 -380 649 -372 q 600 -387 617 -387 q 562 -376 578 -387 q 546 -347 546 -365 q 557 -318 546 -333 q 581 -271 571 -297 l 572 -271 q 498 -248 529 -271 q 467 -183 467 -225 q 499 -108 467 -136 q 581 -81 531 -81 z "},"Ġ":{"ha":1033,"x_min":64,"x_max":956,"o":"m 856 553 q 928 527 901 553 q 956 458 956 501 l 956 217 q 945 110 956 147 q 908 53 935 74 q 826 17 881 32 q 706 -5 772 3 q 583 -12 640 -12 q 306 48 424 -12 q 126 222 189 108 q 64 490 64 335 q 126 756 64 643 q 304 931 189 869 q 574 992 419 992 q 748 969 671 992 q 892 899 825 946 q 926 863 915 882 q 936 813 936 843 q 913 740 936 769 q 856 710 889 710 q 817 716 833 710 q 776 738 801 722 q 680 778 725 765 q 582 790 635 790 q 385 717 450 790 q 321 490 321 643 q 388 258 321 333 q 594 182 456 182 q 726 196 661 182 l 726 378 l 626 378 q 556 401 581 378 q 531 465 531 424 q 556 530 531 507 q 626 553 581 553 l 856 553 m 574 1054 q 474 1087 511 1054 q 438 1174 438 1119 q 474 1258 438 1226 q 574 1290 511 1290 q 672 1258 635 1290 q 710 1174 710 1226 q 673 1087 710 1119 q 574 1054 636 1054 z "},"Ḡ":{"ha":1033,"x_min":64,"x_max":956,"o":"m 856 553 q 928 527 901 553 q 956 458 956 501 l 956 217 q 945 110 956 147 q 908 53 935 74 q 826 17 881 32 q 706 -5 772 3 q 583 -12 640 -12 q 306 48 424 -12 q 126 222 189 108 q 64 490 64 335 q 126 756 64 643 q 304 931 189 869 q 574 992 419 992 q 748 969 671 992 q 892 899 825 946 q 926 863 915 882 q 936 813 936 843 q 913 740 936 769 q 856 710 889 710 q 817 716 833 710 q 776 738 801 722 q 680 778 725 765 q 582 790 635 790 q 385 717 450 790 q 321 490 321 643 q 388 258 321 333 q 594 182 456 182 q 726 196 661 182 l 726 378 l 626 378 q 556 401 581 378 q 531 465 531 424 q 556 530 531 507 q 626 553 581 553 l 856 553 m 406 1097 q 351 1117 372 1097 q 329 1171 329 1136 q 351 1226 329 1206 q 406 1246 372 1246 l 742 1246 q 797 1226 775 1246 q 818 1171 818 1206 q 797 1117 818 1136 q 742 1097 775 1097 l 406 1097 z "},"H":{"ha":1078,"x_min":89,"x_max":989,"o":"m 864 986 q 955 952 921 986 q 989 861 989 918 l 989 118 q 955 26 989 61 q 864 -8 921 -8 q 773 26 807 -8 q 739 118 739 60 l 739 396 l 339 396 l 339 118 q 305 26 339 61 q 214 -8 271 -8 q 123 26 157 -8 q 89 118 89 60 l 89 861 q 123 952 89 918 q 214 986 157 986 q 305 952 271 986 q 339 861 339 918 l 339 599 l 739 599 l 739 861 q 773 952 739 918 q 864 986 807 986 z "},"Ħ":{"ha":1178,"x_min":0,"x_max":1178,"o":"m 1064 881 q 1149 856 1119 881 q 1178 788 1178 831 q 1149 721 1178 746 q 1064 696 1119 696 l 1039 696 l 1039 118 q 1003 24 1039 57 q 914 -8 968 -8 q 824 24 860 -8 q 789 118 789 57 l 789 396 l 389 396 l 389 118 q 353 24 389 57 q 264 -8 318 -8 q 174 24 210 -8 q 139 118 139 57 l 139 696 l 114 696 q 29 721 58 696 q 0 788 0 746 q 29 856 0 831 q 114 881 58 881 l 140 881 q 181 959 146 932 q 264 986 215 986 q 347 959 313 986 q 388 881 382 932 l 790 881 q 831 959 796 932 q 914 986 865 986 q 997 959 963 986 q 1038 881 1032 932 l 1064 881 m 789 599 l 789 696 l 389 696 l 389 599 l 789 599 z "},"Ḫ":{"ha":1078,"x_min":89,"x_max":989,"o":"m 864 986 q 955 952 921 986 q 989 861 989 918 l 989 118 q 955 26 989 61 q 864 -8 921 -8 q 773 26 807 -8 q 739 118 739 60 l 739 396 l 339 396 l 339 118 q 305 26 339 61 q 214 -8 271 -8 q 123 26 157 -8 q 89 118 89 60 l 89 861 q 123 952 89 918 q 214 986 157 986 q 305 952 271 986 q 339 861 339 918 l 339 599 l 739 599 l 739 861 q 773 952 739 918 q 864 986 807 986 m 539 -324 q 384 -280 454 -324 q 289 -171 314 -236 q 283 -143 283 -151 q 302 -97 283 -115 q 347 -79 321 -79 q 407 -111 383 -79 q 539 -169 454 -169 q 671 -111 624 -169 q 731 -79 694 -79 q 776 -97 757 -79 q 794 -142 794 -114 q 789 -171 794 -158 q 694 -280 764 -236 q 539 -324 624 -324 z "},"Ĥ":{"ha":1078,"x_min":89,"x_max":989,"o":"m 864 986 q 955 952 921 986 q 989 861 989 918 l 989 118 q 955 26 989 61 q 864 -8 921 -8 q 773 26 807 -8 q 739 118 739 60 l 739 396 l 339 396 l 339 118 q 305 26 339 61 q 214 -8 271 -8 q 123 26 157 -8 q 89 118 89 60 l 89 861 q 123 952 89 918 q 214 986 157 986 q 305 952 271 986 q 339 861 339 918 l 339 599 l 739 599 l 739 861 q 773 952 739 918 q 864 986 807 986 m 451 1081 q 396 1057 426 1057 q 346 1076 367 1057 q 325 1122 325 1096 q 354 1176 325 1153 l 460 1257 q 539 1286 494 1286 q 618 1257 583 1286 l 724 1176 q 751 1122 751 1153 q 731 1076 751 1096 q 682 1057 711 1057 q 626 1081 651 1057 l 539 1158 l 451 1081 z "},"Ḥ":{"ha":1078,"x_min":89,"x_max":989,"o":"m 864 986 q 955 952 921 986 q 989 861 989 918 l 989 118 q 955 26 989 61 q 864 -8 921 -8 q 773 26 807 -8 q 739 118 739 60 l 739 396 l 339 396 l 339 118 q 305 26 339 61 q 214 -8 271 -8 q 123 26 157 -8 q 89 118 89 60 l 89 861 q 123 952 89 918 q 214 986 157 986 q 305 952 271 986 q 339 861 339 918 l 339 599 l 739 599 l 739 861 q 773 952 739 918 q 864 986 807 986 m 539 -292 q 456 -261 488 -292 q 424 -181 424 -231 q 455 -101 424 -131 q 539 -72 486 -72 q 622 -102 590 -72 q 654 -181 654 -132 q 622 -261 654 -231 q 539 -292 590 -292 z "},"I":{"ha":433,"x_min":89,"x_max":344,"o":"m 215 -8 q 123 26 157 -8 q 89 118 89 60 l 89 861 q 123 952 89 918 q 215 986 157 986 q 310 952 275 986 q 344 861 344 918 l 344 118 q 310 26 344 60 q 215 -8 275 -8 z "},"Í":{"ha":433,"x_min":89,"x_max":453,"o":"m 215 -8 q 123 26 157 -8 q 89 118 89 60 l 89 861 q 123 952 89 918 q 215 986 157 986 q 310 952 275 986 q 344 861 344 918 l 344 118 q 310 26 344 60 q 215 -8 275 -8 m 242 1061 q 214 1056 229 1056 q 174 1071 190 1056 q 157 1107 157 1086 q 178 1149 157 1128 l 290 1254 q 365 1289 326 1289 q 427 1263 401 1289 q 453 1201 453 1236 q 390 1119 453 1149 l 242 1061 z "},"Ĭ":{"ha":433,"x_min":-33,"x_max":465,"o":"m 215 -8 q 123 26 157 -8 q 89 118 89 60 l 89 861 q 123 952 89 918 q 215 986 157 986 q 310 952 275 986 q 344 861 344 918 l 344 118 q 310 26 344 60 q 215 -8 275 -8 m 215 1072 q 68 1101 132 1072 q -22 1174 4 1129 q -33 1214 -33 1194 q -16 1255 -33 1239 q 26 1271 1 1271 q 82 1249 56 1271 q 142 1224 104 1233 q 215 1214 179 1214 q 289 1224 251 1214 q 349 1249 326 1233 q 406 1272 374 1272 q 448 1256 431 1272 q 465 1215 465 1240 q 453 1174 465 1197 q 363 1101 426 1131 q 215 1072 299 1072 z "},"Î":{"ha":433,"x_min":1,"x_max":428,"o":"m 215 -8 q 123 26 157 -8 q 89 118 89 60 l 89 861 q 123 952 89 918 q 215 986 157 986 q 310 952 275 986 q 344 861 344 918 l 344 118 q 310 26 344 60 q 215 -8 275 -8 m 128 1081 q 72 1057 103 1057 q 22 1076 43 1057 q 1 1122 1 1096 q 31 1176 1 1153 l 136 1257 q 215 1286 171 1286 q 294 1257 260 1286 l 400 1176 q 428 1122 428 1153 q 408 1076 428 1096 q 358 1057 388 1057 q 303 1081 328 1057 l 215 1158 l 128 1081 z "},"Ȉ":{"ha":433,"x_min":-39,"x_max":369,"o":"m 215 -8 q 123 26 157 -8 q 89 118 89 60 l 89 861 q 123 952 89 918 q 215 986 157 986 q 310 952 275 986 q 344 861 344 918 l 344 118 q 310 26 344 60 q 215 -8 275 -8 m -14 1153 q -39 1206 -39 1176 q -10 1262 -39 1238 q 51 1286 18 1286 q 118 1239 96 1286 l 161 1135 q 167 1108 167 1122 q 151 1071 167 1086 q 115 1056 136 1056 q 71 1075 90 1056 l -14 1153 m 189 1153 q 164 1206 164 1176 q 192 1262 164 1238 q 254 1286 221 1286 q 321 1239 299 1286 l 364 1135 q 369 1108 369 1122 q 354 1071 369 1086 q 318 1056 339 1056 q 274 1075 293 1056 l 189 1153 z "},"Ï":{"ha":433,"x_min":-39,"x_max":469,"o":"m 215 -8 q 123 26 157 -8 q 89 118 89 60 l 89 861 q 123 952 89 918 q 215 986 157 986 q 310 952 275 986 q 344 861 344 918 l 344 118 q 310 26 344 60 q 215 -8 275 -8 m 78 1061 q -7 1092 25 1061 q -39 1174 -39 1122 q -7 1253 -39 1224 q 78 1283 25 1283 q 163 1253 131 1283 q 196 1174 196 1224 q 163 1092 196 1122 q 78 1061 131 1061 m 353 1061 q 268 1092 300 1061 q 236 1174 236 1122 q 268 1253 236 1224 q 353 1283 300 1283 q 437 1253 404 1283 q 469 1174 469 1224 q 438 1092 469 1122 q 353 1061 406 1061 z "},"Ḯ":{"ha":433,"x_min":-39,"x_max":469,"o":"m 215 -8 q 123 26 157 -8 q 89 118 89 60 l 89 861 q 123 952 89 918 q 215 986 157 986 q 310 952 275 986 q 344 861 344 918 l 344 118 q 310 26 344 60 q 215 -8 275 -8 m 78 1061 q -7 1092 25 1061 q -39 1174 -39 1122 q -7 1253 -39 1224 q 78 1283 25 1283 q 163 1253 131 1283 q 196 1174 196 1224 q 163 1092 196 1122 q 78 1061 131 1061 m 353 1061 q 268 1092 300 1061 q 236 1174 236 1122 q 268 1253 236 1224 q 353 1283 300 1283 q 437 1253 404 1283 q 469 1174 469 1224 q 438 1092 469 1122 q 353 1061 406 1061 m 242 1283 q 214 1278 229 1278 q 174 1293 190 1278 q 157 1329 157 1308 q 178 1371 157 1350 l 290 1476 q 365 1511 326 1511 q 427 1485 401 1511 q 453 1424 453 1458 q 390 1342 453 1371 l 242 1283 z "},"İ":{"ha":433,"x_min":79,"x_max":351,"o":"m 215 -8 q 123 26 157 -8 q 89 118 89 60 l 89 861 q 123 952 89 918 q 215 986 157 986 q 310 952 275 986 q 344 861 344 918 l 344 118 q 310 26 344 60 q 215 -8 275 -8 m 215 1054 q 116 1087 153 1054 q 79 1174 79 1119 q 116 1258 79 1226 q 215 1290 153 1290 q 314 1258 276 1290 q 351 1174 351 1226 q 315 1087 351 1119 q 215 1054 278 1054 z "},"Ị":{"ha":433,"x_min":89,"x_max":344,"o":"m 215 -8 q 123 26 157 -8 q 89 118 89 60 l 89 861 q 123 952 89 918 q 215 986 157 986 q 310 952 275 986 q 344 861 344 918 l 344 118 q 310 26 344 60 q 215 -8 275 -8 m 215 -292 q 132 -261 164 -292 q 100 -181 100 -231 q 131 -101 100 -131 q 215 -72 163 -72 q 299 -102 267 -72 q 331 -181 331 -132 q 299 -261 331 -231 q 215 -292 267 -292 z "},"Ì":{"ha":433,"x_min":-24,"x_max":344,"o":"m 215 -8 q 123 26 157 -8 q 89 118 89 60 l 89 861 q 123 952 89 918 q 215 986 157 986 q 310 952 275 986 q 344 861 344 918 l 344 118 q 310 26 344 60 q 215 -8 275 -8 m 40 1119 q -24 1201 -24 1149 q 2 1261 -24 1235 q 64 1288 28 1288 q 140 1254 103 1288 l 253 1149 q 272 1107 272 1129 q 256 1071 272 1086 q 217 1056 239 1056 q 189 1061 201 1056 l 40 1119 z "},"Ỉ":{"ha":433,"x_min":89,"x_max":390,"o":"m 215 -8 q 123 26 157 -8 q 89 118 89 60 l 89 861 q 123 952 89 918 q 215 986 157 986 q 310 952 275 986 q 344 861 344 918 l 344 118 q 310 26 344 60 q 215 -8 275 -8 m 275 1088 q 254 1064 269 1072 q 219 1056 239 1056 q 178 1067 196 1056 q 160 1099 160 1079 q 176 1139 160 1126 q 222 1163 193 1151 q 240 1169 232 1165 q 247 1176 247 1172 q 206 1199 247 1199 q 185 1197 194 1199 q 168 1194 176 1196 q 131 1189 140 1189 q 103 1202 114 1189 q 93 1233 93 1215 q 118 1269 93 1260 q 226 1286 164 1286 q 346 1260 301 1286 q 390 1199 390 1235 q 373 1154 390 1169 q 324 1125 356 1139 q 291 1108 303 1117 q 275 1088 279 1100 z "},"Ȋ":{"ha":433,"x_min":-35,"x_max":464,"o":"m 215 -8 q 123 26 157 -8 q 89 118 89 60 l 89 861 q 123 952 89 918 q 215 986 157 986 q 310 952 275 986 q 344 861 344 918 l 344 118 q 310 26 344 60 q 215 -8 275 -8 m 82 1094 q 25 1071 57 1071 q -17 1087 0 1071 q -35 1128 -35 1103 q -22 1169 -35 1147 q 68 1242 4 1213 q 215 1271 132 1271 q 363 1242 300 1271 q 453 1169 426 1214 q 464 1129 464 1149 q 447 1088 464 1104 q 404 1072 429 1072 q 349 1094 375 1072 q 290 1119 326 1110 q 215 1129 253 1129 q 141 1119 178 1129 q 82 1094 104 1110 z "},"Ī":{"ha":433,"x_min":-29,"x_max":460,"o":"m 215 -8 q 123 26 157 -8 q 89 118 89 60 l 89 861 q 123 952 89 918 q 215 986 157 986 q 310 952 275 986 q 344 861 344 918 l 344 118 q 310 26 344 60 q 215 -8 275 -8 m 47 1097 q -8 1117 14 1097 q -29 1171 -29 1136 q -8 1226 -29 1206 q 47 1246 14 1246 l 383 1246 q 438 1226 417 1246 q 460 1171 460 1206 q 438 1117 460 1136 q 383 1097 417 1097 l 47 1097 z "},"Į":{"ha":433,"x_min":64,"x_max":401,"o":"m 350 -143 q 361 -142 354 -142 q 390 -157 379 -142 q 401 -193 401 -172 q 376 -242 401 -226 q 246 -275 319 -275 q 114 -231 164 -275 q 64 -115 64 -187 q 132 19 64 -37 q 89 118 89 53 l 89 861 q 123 952 89 918 q 215 986 157 986 q 310 952 275 986 q 344 861 344 918 l 344 118 q 330 51 344 81 q 289 11 315 22 q 217 -83 217 -31 q 235 -134 217 -115 q 283 -153 253 -153 q 317 -151 304 -153 q 350 -143 329 -149 z "},"Ĩ":{"ha":433,"x_min":-29,"x_max":460,"o":"m 215 -8 q 123 26 157 -8 q 89 118 89 60 l 89 861 q 123 952 89 918 q 215 986 157 986 q 310 952 275 986 q 344 861 344 918 l 344 118 q 310 26 344 60 q 215 -8 275 -8 m 321 1079 q 215 1097 279 1079 q 111 1114 146 1114 q 90 1110 99 1114 q 69 1096 82 1106 q 19 1074 47 1074 q -16 1088 -3 1074 q -29 1128 -29 1103 q -11 1191 -29 1158 q 39 1245 7 1224 q 110 1267 71 1267 q 215 1249 151 1267 q 319 1232 285 1232 q 361 1250 340 1232 q 411 1271 385 1271 q 447 1257 435 1271 q 460 1218 460 1243 q 441 1155 460 1188 q 390 1101 422 1122 q 321 1079 358 1079 z "},"J":{"ha":551,"x_min":-25,"x_max":463,"o":"m 128 -8 q -25 94 -25 -15 q -1 167 -25 143 q 74 193 22 190 l 121 196 q 184 223 163 197 q 206 293 206 249 l 206 861 q 240 952 206 918 q 335 986 275 986 q 427 952 392 986 q 463 861 463 918 l 463 297 q 390 81 463 158 q 172 -6 317 4 l 128 -8 z "},"Ĵ":{"ha":551,"x_min":-25,"x_max":547,"o":"m 128 -8 q -25 94 -25 -15 q -1 167 -25 143 q 74 193 22 190 l 121 196 q 184 223 163 197 q 206 293 206 249 l 206 861 q 240 952 206 918 q 335 986 275 986 q 427 952 392 986 q 463 861 463 918 l 463 297 q 390 81 463 158 q 172 -6 317 4 l 128 -8 m 247 1081 q 192 1057 222 1057 q 142 1076 163 1057 q 121 1122 121 1096 q 150 1176 121 1153 l 256 1257 q 335 1286 290 1286 q 414 1257 379 1286 l 519 1176 q 547 1122 547 1153 q 527 1076 547 1096 q 478 1057 507 1057 q 422 1081 447 1057 l 335 1158 l 247 1081 z "},"K":{"ha":969,"x_min":89,"x_max":951,"o":"m 915 192 q 951 111 951 157 q 917 31 951 65 q 835 -4 882 -4 q 740 40 783 -4 l 344 446 l 344 118 q 310 26 344 60 q 215 -8 275 -8 q 123 26 157 -8 q 89 118 89 60 l 89 861 q 123 952 89 918 q 215 986 157 986 q 310 952 275 986 q 344 861 344 918 l 344 556 l 735 949 q 817 986 771 986 q 897 952 863 986 q 932 872 932 918 q 892 788 932 826 l 607 508 l 915 192 z "},"Ķ":{"ha":969,"x_min":89,"x_max":951,"o":"m 915 192 q 951 111 951 157 q 917 31 951 65 q 835 -4 882 -4 q 740 40 783 -4 l 344 446 l 344 118 q 310 26 344 60 q 215 -8 275 -8 q 123 26 157 -8 q 89 118 89 60 l 89 861 q 123 952 89 918 q 215 986 157 986 q 310 952 275 986 q 344 861 344 918 l 344 556 l 735 949 q 817 986 771 986 q 897 952 863 986 q 932 872 932 918 q 892 788 932 826 l 607 508 l 915 192 m 485 -81 q 578 -115 543 -81 q 614 -217 614 -150 q 599 -299 614 -261 q 565 -358 585 -336 q 537 -380 553 -372 q 504 -387 521 -387 q 466 -376 482 -387 q 450 -347 450 -365 q 461 -318 450 -333 q 485 -271 475 -297 l 476 -271 q 402 -248 433 -271 q 371 -183 371 -225 q 403 -108 371 -136 q 485 -81 435 -81 z "},"L":{"ha":794,"x_min":89,"x_max":785,"o":"m 207 0 q 119 31 150 0 q 89 119 89 61 l 89 861 q 123 952 89 918 q 215 986 157 986 q 310 952 275 986 q 344 861 344 918 l 344 207 l 664 207 q 785 103 785 207 q 755 25 785 50 q 664 0 725 0 l 207 0 z "},"Ǉ":{"ha":1353,"x_min":89,"x_max":1264,"o":"m 207 0 q 119 31 150 0 q 89 119 89 61 l 89 861 q 123 952 89 918 q 215 986 157 986 q 310 952 275 986 q 344 861 344 918 l 344 207 l 622 207 q 743 103 743 207 q 713 25 743 50 q 622 0 683 0 l 207 0 m 928 -8 q 815 13 854 -14 q 776 94 776 39 q 800 167 776 143 q 875 193 824 190 l 922 196 q 984 224 963 199 q 1006 293 1006 249 l 1006 861 q 1041 952 1006 918 q 1135 986 1076 986 q 1228 952 1193 986 q 1264 861 1264 918 l 1264 297 q 1191 81 1264 158 q 974 -6 1118 3 l 928 -8 z "},"Ĺ":{"ha":794,"x_min":89,"x_max":785,"o":"m 207 0 q 119 31 150 0 q 89 119 89 61 l 89 861 q 123 952 89 918 q 215 986 157 986 q 310 952 275 986 q 344 861 344 918 l 344 207 l 664 207 q 785 103 785 207 q 755 25 785 50 q 664 0 725 0 l 207 0 m 242 1061 q 214 1056 229 1056 q 174 1071 190 1056 q 157 1107 157 1086 q 178 1149 157 1128 l 290 1254 q 365 1289 326 1289 q 427 1263 401 1289 q 453 1201 453 1236 q 390 1119 453 1149 l 242 1061 z "},"Ľ":{"ha":794,"x_min":89,"x_max":785,"o":"m 207 0 q 119 31 150 0 q 89 119 89 61 l 89 861 q 123 952 89 918 q 215 986 157 986 q 310 952 275 986 q 344 861 344 918 l 344 207 l 664 207 q 785 103 785 207 q 755 25 785 50 q 664 0 725 0 l 207 0 m 578 722 q 557 692 572 703 q 522 682 542 682 q 483 697 500 682 q 467 733 467 711 l 467 908 q 492 968 467 947 q 551 989 517 989 q 610 970 585 989 q 635 918 635 951 q 631 893 635 908 l 578 722 z "},"Ļ":{"ha":794,"x_min":89,"x_max":785,"o":"m 207 0 q 119 31 150 0 q 89 119 89 61 l 89 861 q 123 952 89 918 q 215 986 157 986 q 310 952 275 986 q 344 861 344 918 l 344 207 l 664 207 q 785 103 785 207 q 755 25 785 50 q 664 0 725 0 l 207 0 m 433 -81 q 527 -115 492 -81 q 563 -217 563 -150 q 548 -299 563 -261 q 514 -358 533 -336 q 485 -380 501 -372 q 453 -387 469 -387 q 415 -376 431 -387 q 399 -347 399 -365 q 410 -318 399 -333 q 433 -271 424 -297 l 425 -271 q 351 -248 382 -271 q 319 -183 319 -225 q 351 -108 319 -136 q 433 -81 383 -81 z "},"Ŀ":{"ha":794,"x_min":89,"x_max":785,"o":"m 207 0 q 119 31 150 0 q 89 119 89 61 l 89 861 q 123 952 89 918 q 215 986 157 986 q 310 952 275 986 q 344 861 344 918 l 344 207 l 664 207 q 785 103 785 207 q 755 25 785 50 q 664 0 725 0 l 207 0 m 565 372 q 466 405 503 372 q 429 492 429 438 q 466 578 429 546 q 565 610 503 610 q 664 578 626 610 q 701 492 701 546 q 665 405 701 438 q 565 372 628 372 z "},"Ḷ":{"ha":794,"x_min":89,"x_max":785,"o":"m 207 0 q 119 31 150 0 q 89 119 89 61 l 89 861 q 123 952 89 918 q 215 986 157 986 q 310 952 275 986 q 344 861 344 918 l 344 207 l 664 207 q 785 103 785 207 q 755 25 785 50 q 664 0 725 0 l 207 0 m 436 -292 q 353 -261 385 -292 q 321 -181 321 -231 q 352 -101 321 -131 q 436 -72 383 -72 q 519 -102 488 -72 q 551 -181 551 -132 q 519 -261 551 -231 q 436 -292 488 -292 z "},"ǈ":{"ha":1186,"x_min":89,"x_max":1124,"o":"m 207 0 q 119 31 150 0 q 89 119 89 61 l 89 861 q 123 952 89 918 q 215 986 157 986 q 310 952 275 986 q 344 861 344 918 l 344 207 l 664 207 q 785 103 785 207 q 755 25 785 50 q 664 0 725 0 l 207 0 z "},"Ḻ":{"ha":794,"x_min":89,"x_max":785,"o":"m 207 0 q 119 31 150 0 q 89 119 89 61 l 89 861 q 123 952 89 918 q 215 986 157 986 q 310 952 275 986 q 344 861 344 918 l 344 207 l 664 207 q 785 103 785 207 q 755 25 785 50 q 664 0 725 0 l 207 0 m 268 -251 q 213 -233 235 -251 q 192 -182 192 -214 q 213 -133 192 -151 q 268 -114 235 -114 l 604 -114 q 659 -133 638 -114 q 681 -182 681 -151 q 659 -233 681 -214 q 604 -251 638 -251 l 268 -251 z "},"Ł":{"ha":846,"x_min":1,"x_max":835,"o":"m 714 207 q 835 103 835 207 q 805 25 835 50 q 714 0 775 0 l 257 0 q 169 31 200 0 q 139 119 139 61 l 139 313 q 90 301 117 301 q 26 329 51 301 q 1 393 1 357 q 15 442 1 418 q 57 481 29 465 l 139 528 l 139 861 q 174 952 139 918 q 265 986 208 986 q 360 952 325 986 q 394 861 394 918 l 394 675 l 513 743 q 569 760 542 760 q 635 733 608 760 q 661 669 661 706 q 604 582 661 615 l 394 460 l 394 207 l 714 207 z "},"M":{"ha":1169,"x_min":92,"x_max":1078,"o":"m 958 986 q 1044 951 1011 986 q 1078 861 1078 917 l 1078 106 q 1047 22 1078 53 q 967 -8 1017 -8 q 887 22 918 -8 q 856 106 856 53 l 856 514 l 697 222 q 647 159 674 178 q 585 140 621 140 q 522 159 549 140 q 472 222 496 178 l 315 506 l 315 106 q 284 23 315 54 q 203 -8 253 -8 q 123 22 154 -8 q 92 106 92 53 l 92 861 q 126 951 92 917 q 213 986 160 986 q 281 965 250 986 q 332 903 311 943 l 588 422 l 842 903 q 958 986 885 986 z "},"Ṃ":{"ha":1169,"x_min":92,"x_max":1078,"o":"m 958 986 q 1044 951 1011 986 q 1078 861 1078 917 l 1078 106 q 1047 22 1078 53 q 967 -8 1017 -8 q 887 22 918 -8 q 856 106 856 53 l 856 514 l 697 222 q 647 159 674 178 q 585 140 621 140 q 522 159 549 140 q 472 222 496 178 l 315 506 l 315 106 q 284 23 315 54 q 203 -8 253 -8 q 123 22 154 -8 q 92 106 92 53 l 92 861 q 126 951 92 917 q 213 986 160 986 q 281 965 250 986 q 332 903 311 943 l 588 422 l 842 903 q 958 986 885 986 m 585 -292 q 501 -261 533 -292 q 469 -181 469 -231 q 501 -101 469 -131 q 585 -72 532 -72 q 668 -102 636 -72 q 700 -181 700 -132 q 668 -261 700 -231 q 585 -292 636 -292 z "},"N":{"ha":1051,"x_min":89,"x_max":963,"o":"m 842 986 q 928 951 894 986 q 963 861 963 917 l 963 118 q 929 26 963 61 q 843 -8 896 -8 q 749 33 781 -8 l 326 560 l 326 118 q 294 26 326 61 q 208 -8 263 -8 q 122 26 156 -8 q 89 118 89 61 l 89 861 q 122 951 89 917 q 208 986 156 986 q 301 944 268 986 l 724 419 l 724 861 q 756 952 724 918 q 842 986 789 986 z "},"Ǌ":{"ha":1603,"x_min":89,"x_max":1514,"o":"m 842 986 q 928 951 894 986 q 963 861 963 917 l 963 118 q 929 26 963 61 q 843 -8 896 -8 q 749 33 781 -8 l 326 560 l 326 118 q 294 26 326 61 q 208 -8 263 -8 q 122 26 156 -8 q 89 118 89 61 l 89 861 q 122 951 89 917 q 208 986 156 986 q 301 944 268 986 l 724 419 l 724 861 q 756 952 724 918 q 842 986 789 986 m 1179 -8 q 1026 94 1026 -15 q 1050 167 1026 143 q 1125 193 1074 190 l 1172 196 q 1235 223 1214 197 q 1257 293 1257 249 l 1257 861 q 1292 952 1257 918 q 1386 986 1326 986 q 1478 952 1443 986 q 1514 861 1514 918 l 1514 297 q 1441 81 1514 158 q 1224 -6 1368 4 l 1179 -8 z "},"Ń":{"ha":1051,"x_min":89,"x_max":963,"o":"m 842 986 q 928 951 894 986 q 963 861 963 917 l 963 118 q 929 26 963 61 q 843 -8 896 -8 q 749 33 781 -8 l 326 560 l 326 118 q 294 26 326 61 q 208 -8 263 -8 q 122 26 156 -8 q 89 118 89 61 l 89 861 q 122 951 89 917 q 208 986 156 986 q 301 944 268 986 l 724 419 l 724 861 q 756 952 724 918 q 842 986 789 986 m 551 1061 q 524 1056 539 1056 q 483 1071 500 1056 q 467 1107 467 1086 q 488 1149 467 1128 l 600 1254 q 675 1289 636 1289 q 737 1263 711 1289 q 763 1201 763 1236 q 700 1119 763 1149 l 551 1061 z "},"Ň":{"ha":1051,"x_min":89,"x_max":963,"o":"m 842 986 q 928 951 894 986 q 963 861 963 917 l 963 118 q 929 26 963 61 q 843 -8 896 -8 q 749 33 781 -8 l 326 560 l 326 118 q 294 26 326 61 q 208 -8 263 -8 q 122 26 156 -8 q 89 118 89 61 l 89 861 q 122 951 89 917 q 208 986 156 986 q 301 944 268 986 l 724 419 l 724 861 q 756 952 724 918 q 842 986 789 986 m 525 1056 q 446 1085 481 1056 l 340 1167 q 313 1219 313 1190 q 333 1266 313 1246 q 382 1286 354 1286 q 438 1263 413 1286 l 525 1183 l 613 1263 q 668 1286 638 1286 q 717 1266 696 1286 q 738 1219 738 1246 q 710 1167 738 1189 l 604 1085 q 525 1056 569 1056 z "},"Ņ":{"ha":1051,"x_min":89,"x_max":963,"o":"m 842 986 q 928 951 894 986 q 963 861 963 917 l 963 118 q 929 26 963 61 q 843 -8 896 -8 q 749 33 781 -8 l 326 560 l 326 118 q 294 26 326 61 q 208 -8 263 -8 q 122 26 156 -8 q 89 118 89 61 l 89 861 q 122 951 89 917 q 208 986 156 986 q 301 944 268 986 l 724 419 l 724 861 q 756 952 724 918 q 842 986 789 986 m 524 -81 q 617 -115 582 -81 q 653 -217 653 -150 q 638 -299 653 -261 q 604 -358 624 -336 q 576 -380 592 -372 q 543 -387 560 -387 q 505 -376 521 -387 q 489 -347 489 -365 q 500 -318 489 -333 q 524 -271 514 -297 l 515 -271 q 441 -248 472 -271 q 410 -183 410 -225 q 442 -108 410 -136 q 524 -81 474 -81 z "},"Ṅ":{"ha":1051,"x_min":89,"x_max":963,"o":"m 842 986 q 928 951 894 986 q 963 861 963 917 l 963 118 q 929 26 963 61 q 843 -8 896 -8 q 749 33 781 -8 l 326 560 l 326 118 q 294 26 326 61 q 208 -8 263 -8 q 122 26 156 -8 q 89 118 89 61 l 89 861 q 122 951 89 917 q 208 986 156 986 q 301 944 268 986 l 724 419 l 724 861 q 756 952 724 918 q 842 986 789 986 m 525 1054 q 426 1087 463 1054 q 389 1174 389 1119 q 426 1258 389 1226 q 525 1290 463 1290 q 624 1258 586 1290 q 661 1174 661 1226 q 624 1087 661 1119 q 525 1054 588 1054 z "},"Ṇ":{"ha":1051,"x_min":89,"x_max":963,"o":"m 842 986 q 928 951 894 986 q 963 861 963 917 l 963 118 q 929 26 963 61 q 843 -8 896 -8 q 749 33 781 -8 l 326 560 l 326 118 q 294 26 326 61 q 208 -8 263 -8 q 122 26 156 -8 q 89 118 89 61 l 89 861 q 122 951 89 917 q 208 986 156 986 q 301 944 268 986 l 724 419 l 724 861 q 756 952 724 918 q 842 986 789 986 m 526 -292 q 443 -261 475 -292 q 411 -181 411 -231 q 442 -101 411 -131 q 526 -72 474 -72 q 610 -102 578 -72 q 642 -181 642 -132 q 610 -261 642 -231 q 526 -292 578 -292 z "},"Ŋ":{"ha":1051,"x_min":89,"x_max":963,"o":"m 842 986 q 928 951 894 986 q 963 861 963 917 l 963 50 q 890 -166 963 -89 q 672 -253 817 -243 l 628 -256 q 515 -235 556 -260 q 475 -160 475 -210 q 499 -92 475 -115 q 574 -67 524 -69 l 621 -64 q 694 -33 667 -61 q 721 33 721 -6 l 721 68 l 326 560 l 326 118 q 294 26 326 61 q 208 -8 261 -8 q 122 26 156 -8 q 89 118 89 61 l 89 861 q 122 951 89 917 q 208 986 156 986 q 301 944 268 986 l 724 419 l 724 861 q 756 952 724 918 q 842 986 789 986 z "},"ǋ":{"ha":1442,"x_min":89,"x_max":1381,"o":"m 842 986 q 928 951 894 986 q 963 861 963 917 l 963 118 q 929 26 963 61 q 843 -8 896 -8 q 749 33 781 -8 l 326 560 l 326 118 q 294 26 326 61 q 208 -8 263 -8 q 122 26 156 -8 q 89 118 89 61 l 89 861 q 122 951 89 917 q 208 986 156 986 q 301 944 268 986 l 724 419 l 724 861 q 756 952 724 918 q 842 986 789 986 z "},"Ṉ":{"ha":1051,"x_min":89,"x_max":963,"o":"m 842 986 q 928 951 894 986 q 963 861 963 917 l 963 118 q 929 26 963 61 q 843 -8 896 -8 q 749 33 781 -8 l 326 560 l 326 118 q 294 26 326 61 q 208 -8 263 -8 q 122 26 156 -8 q 89 118 89 61 l 89 861 q 122 951 89 917 q 208 986 156 986 q 301 944 268 986 l 724 419 l 724 861 q 756 952 724 918 q 842 986 789 986 m 358 -251 q 303 -233 325 -251 q 282 -182 282 -214 q 303 -133 282 -151 q 358 -114 325 -114 l 694 -114 q 749 -133 728 -114 q 771 -182 771 -151 q 749 -233 771 -214 q 694 -251 728 -251 l 358 -251 z "},"Ñ":{"ha":1051,"x_min":89,"x_max":963,"o":"m 842 986 q 928 951 894 986 q 963 861 963 917 l 963 118 q 929 26 963 61 q 843 -8 896 -8 q 749 33 781 -8 l 326 560 l 326 118 q 294 26 326 61 q 208 -8 263 -8 q 122 26 156 -8 q 89 118 89 61 l 89 861 q 122 951 89 917 q 208 986 156 986 q 301 944 268 986 l 724 419 l 724 861 q 756 952 724 918 q 842 986 789 986 m 631 1079 q 525 1097 589 1079 q 421 1114 456 1114 q 400 1110 408 1114 q 379 1096 392 1106 q 329 1074 357 1074 q 294 1088 307 1074 q 281 1128 281 1103 q 299 1191 281 1158 q 349 1245 317 1224 q 419 1267 381 1267 q 525 1249 461 1267 q 629 1232 594 1232 q 671 1250 650 1232 q 721 1271 694 1271 q 757 1257 744 1271 q 769 1218 769 1243 q 751 1155 769 1188 q 700 1101 732 1122 q 631 1079 668 1079 z "},"O":{"ha":1106,"x_min":64,"x_max":1043,"o":"m 554 -12 q 294 49 404 -12 q 124 224 183 111 q 64 490 64 338 q 124 756 64 643 q 294 931 183 869 q 554 992 404 992 q 815 931 704 992 q 984 756 925 869 q 1043 490 1043 643 q 983 224 1043 338 q 813 49 924 111 q 554 -12 703 -12 m 554 183 q 728 262 665 183 q 790 490 790 340 q 727 718 790 640 q 554 796 664 796 q 381 719 443 796 q 318 490 318 642 q 381 261 318 339 q 554 183 443 183 z "},"Ó":{"ha":1106,"x_min":64,"x_max":1043,"o":"m 554 -12 q 294 49 404 -12 q 124 224 183 111 q 64 490 64 338 q 124 756 64 643 q 294 931 183 869 q 554 992 404 992 q 815 931 704 992 q 984 756 925 869 q 1043 490 1043 643 q 983 224 1043 338 q 813 49 924 111 q 554 -12 703 -12 m 554 183 q 728 262 665 183 q 790 490 790 340 q 727 718 790 640 q 554 796 664 796 q 381 719 443 796 q 318 490 318 642 q 381 261 318 339 q 554 183 443 183 m 579 1061 q 551 1056 567 1056 q 511 1071 528 1056 q 494 1107 494 1086 q 515 1149 494 1128 l 628 1254 q 703 1289 664 1289 q 765 1263 739 1289 q 790 1201 790 1236 q 728 1119 790 1149 l 579 1061 z "},"Ŏ":{"ha":1106,"x_min":64,"x_max":1043,"o":"m 554 -12 q 294 49 404 -12 q 124 224 183 111 q 64 490 64 338 q 124 756 64 643 q 294 931 183 869 q 554 992 404 992 q 815 931 704 992 q 984 756 925 869 q 1043 490 1043 643 q 983 224 1043 338 q 813 49 924 111 q 554 -12 703 -12 m 554 183 q 728 262 665 183 q 790 490 790 340 q 727 718 790 640 q 554 796 664 796 q 381 719 443 796 q 318 490 318 642 q 381 261 318 339 q 554 183 443 183 m 553 1072 q 406 1101 469 1072 q 315 1174 342 1129 q 304 1214 304 1194 q 322 1255 304 1239 q 364 1271 339 1271 q 419 1249 393 1271 q 479 1224 442 1233 q 553 1214 517 1214 q 626 1224 589 1214 q 686 1249 664 1233 q 743 1272 711 1272 q 785 1256 768 1272 q 803 1215 803 1240 q 790 1174 803 1197 q 700 1101 764 1131 q 553 1072 636 1072 z "},"Ô":{"ha":1106,"x_min":64,"x_max":1043,"o":"m 554 -12 q 294 49 404 -12 q 124 224 183 111 q 64 490 64 338 q 124 756 64 643 q 294 931 183 869 q 554 992 404 992 q 815 931 704 992 q 984 756 925 869 q 1043 490 1043 643 q 983 224 1043 338 q 813 49 924 111 q 554 -12 703 -12 m 554 183 q 728 262 665 183 q 790 490 790 340 q 727 718 790 640 q 554 796 664 796 q 381 719 443 796 q 318 490 318 642 q 381 261 318 339 q 554 183 443 183 m 465 1081 q 410 1057 440 1057 q 360 1076 381 1057 q 339 1122 339 1096 q 368 1176 339 1153 l 474 1257 q 553 1286 508 1286 q 632 1257 597 1286 l 738 1176 q 765 1122 765 1153 q 745 1076 765 1096 q 696 1057 725 1057 q 640 1081 665 1057 l 553 1158 l 465 1081 z "},"Ố":{"ha":1106,"x_min":64,"x_max":1043,"o":"m 554 -12 q 294 49 404 -12 q 124 224 183 111 q 64 490 64 338 q 124 756 64 643 q 294 931 183 869 q 554 992 404 992 q 815 931 704 992 q 984 756 925 869 q 1043 490 1043 643 q 983 224 1043 338 q 813 49 924 111 q 554 -12 703 -12 m 554 183 q 728 262 665 183 q 790 490 790 340 q 727 718 790 640 q 554 796 664 796 q 381 719 443 796 q 318 490 318 642 q 381 261 318 339 q 554 183 443 183 m 767 1211 q 742 1206 756 1206 q 704 1222 719 1206 q 689 1260 689 1238 q 704 1299 689 1279 l 768 1379 q 839 1418 799 1418 q 901 1389 874 1418 q 928 1324 928 1360 q 913 1278 928 1299 q 868 1244 899 1257 l 767 1211 m 453 1071 q 411 1057 433 1057 q 362 1077 383 1057 q 340 1124 340 1097 q 381 1185 340 1160 l 474 1233 q 553 1260 519 1260 q 632 1233 586 1260 l 725 1185 q 767 1122 767 1158 q 745 1076 767 1096 q 696 1056 724 1056 q 657 1068 675 1056 l 553 1135 l 453 1071 z "},"Ộ":{"ha":1106,"x_min":64,"x_max":1043,"o":"m 554 -12 q 294 49 404 -12 q 124 224 183 111 q 64 490 64 338 q 124 756 64 643 q 294 931 183 869 q 554 992 404 992 q 815 931 704 992 q 984 756 925 869 q 1043 490 1043 643 q 983 224 1043 338 q 813 49 924 111 q 554 -12 703 -12 m 554 183 q 728 262 665 183 q 790 490 790 340 q 727 718 790 640 q 554 796 664 796 q 381 719 443 796 q 318 490 318 642 q 381 261 318 339 q 554 183 443 183 m 554 -292 q 471 -261 503 -292 q 439 -181 439 -231 q 470 -101 439 -131 q 554 -72 501 -72 q 638 -102 606 -72 q 669 -181 669 -132 q 638 -261 669 -231 q 554 -292 606 -292 m 465 1081 q 410 1057 440 1057 q 360 1076 381 1057 q 339 1122 339 1096 q 368 1176 339 1153 l 474 1257 q 553 1286 508 1286 q 632 1257 597 1286 l 738 1176 q 765 1122 765 1153 q 745 1076 765 1096 q 696 1057 725 1057 q 640 1081 665 1057 l 553 1158 l 465 1081 z "},"Ồ":{"ha":1106,"x_min":64,"x_max":1043,"o":"m 554 -12 q 294 49 404 -12 q 124 224 183 111 q 64 490 64 338 q 124 756 64 643 q 294 931 183 869 q 554 992 404 992 q 815 931 704 992 q 984 756 925 869 q 1043 490 1043 643 q 983 224 1043 338 q 813 49 924 111 q 554 -12 703 -12 m 554 183 q 728 262 665 183 q 790 490 790 340 q 727 718 790 640 q 554 796 664 796 q 381 719 443 796 q 318 490 318 642 q 381 261 318 339 q 554 183 443 183 m 665 1251 q 614 1324 614 1278 q 644 1388 614 1358 q 710 1417 674 1417 q 776 1376 751 1417 l 831 1289 q 842 1254 842 1272 q 827 1219 842 1233 q 790 1206 813 1206 q 749 1217 774 1206 l 665 1251 m 453 1071 q 411 1057 433 1057 q 362 1077 383 1057 q 340 1124 340 1097 q 381 1185 340 1160 l 474 1233 q 553 1260 519 1260 q 632 1233 586 1260 l 725 1185 q 767 1122 767 1158 q 745 1076 767 1096 q 696 1056 724 1056 q 657 1068 675 1056 l 553 1135 l 453 1071 z "},"Ổ":{"ha":1106,"x_min":64,"x_max":1043,"o":"m 554 -12 q 294 49 404 -12 q 124 224 183 111 q 64 490 64 338 q 124 756 64 643 q 294 931 183 869 q 554 992 404 992 q 815 931 704 992 q 984 756 925 869 q 1043 490 1043 643 q 983 224 1043 338 q 813 49 924 111 q 554 -12 703 -12 m 554 183 q 728 262 665 183 q 790 490 790 340 q 727 718 790 640 q 554 796 664 796 q 381 719 443 796 q 318 490 318 642 q 381 261 318 339 q 554 183 443 183 m 804 1229 q 785 1212 800 1218 q 749 1206 769 1206 q 706 1215 724 1206 q 689 1244 689 1225 q 708 1283 689 1271 q 753 1304 726 1296 q 781 1318 781 1313 q 771 1328 781 1325 q 736 1331 761 1331 l 708 1329 q 674 1326 686 1326 q 637 1339 653 1326 q 621 1368 621 1351 q 647 1399 621 1389 q 756 1415 693 1415 q 876 1392 832 1415 q 919 1332 919 1368 q 903 1292 919 1306 q 856 1267 886 1279 q 820 1249 832 1257 q 804 1229 808 1242 m 453 1071 q 411 1057 433 1057 q 362 1077 383 1057 q 340 1124 340 1097 q 381 1185 340 1160 l 474 1233 q 553 1260 519 1260 q 632 1233 586 1260 l 725 1185 q 767 1122 767 1158 q 745 1076 767 1096 q 696 1056 724 1056 q 657 1068 675 1056 l 553 1135 l 453 1071 z "},"Ỗ":{"ha":1106,"x_min":64,"x_max":1043,"o":"m 554 -12 q 294 49 404 -12 q 124 224 183 111 q 64 490 64 338 q 124 756 64 643 q 294 931 183 869 q 554 992 404 992 q 815 931 704 992 q 984 756 925 869 q 1043 490 1043 643 q 983 224 1043 338 q 813 49 924 111 q 554 -12 703 -12 m 554 183 q 728 262 665 183 q 790 490 790 340 q 727 718 790 640 q 554 796 664 796 q 381 719 443 796 q 318 490 318 642 q 381 261 318 339 q 554 183 443 183 m 658 1261 q 600 1267 633 1261 q 538 1282 567 1274 q 497 1291 528 1285 q 449 1297 467 1297 q 427 1292 436 1297 q 407 1278 418 1288 q 357 1256 385 1256 q 322 1268 335 1256 q 308 1303 308 1281 q 327 1348 308 1322 q 378 1392 346 1374 q 447 1410 410 1410 q 568 1390 490 1410 q 657 1375 629 1375 q 678 1380 669 1375 q 699 1394 688 1385 q 749 1417 721 1417 q 785 1404 772 1417 q 797 1369 797 1392 q 778 1324 797 1350 q 728 1280 760 1299 q 658 1261 696 1261 m 453 1071 q 411 1057 433 1057 q 362 1077 383 1057 q 340 1124 340 1097 q 381 1185 340 1160 l 474 1233 q 553 1260 519 1260 q 632 1233 586 1260 l 725 1185 q 767 1122 767 1158 q 745 1076 767 1096 q 696 1056 724 1056 q 657 1068 675 1056 l 553 1135 l 453 1071 z "},"Ȍ":{"ha":1106,"x_min":64,"x_max":1043,"o":"m 554 -12 q 294 49 404 -12 q 124 224 183 111 q 64 490 64 338 q 124 756 64 643 q 294 931 183 869 q 554 992 404 992 q 815 931 704 992 q 984 756 925 869 q 1043 490 1043 643 q 983 224 1043 338 q 813 49 924 111 q 554 -12 703 -12 m 554 183 q 728 262 665 183 q 790 490 790 340 q 727 718 790 640 q 554 796 664 796 q 381 719 443 796 q 318 490 318 642 q 381 261 318 339 q 554 183 443 183 m 324 1153 q 299 1206 299 1176 q 327 1262 299 1238 q 389 1286 356 1286 q 456 1239 433 1286 l 499 1135 q 504 1108 504 1122 q 489 1071 504 1086 q 453 1056 474 1056 q 408 1075 428 1056 l 324 1153 m 526 1153 q 501 1206 501 1176 q 530 1262 501 1238 q 592 1286 558 1286 q 658 1239 636 1286 l 701 1135 q 707 1108 707 1122 q 692 1071 707 1086 q 656 1056 676 1056 q 611 1075 631 1056 l 526 1153 z "},"Ö":{"ha":1106,"x_min":64,"x_max":1043,"o":"m 554 -12 q 294 49 404 -12 q 124 224 183 111 q 64 490 64 338 q 124 756 64 643 q 294 931 183 869 q 554 992 404 992 q 815 931 704 992 q 984 756 925 869 q 1043 490 1043 643 q 983 224 1043 338 q 813 49 924 111 q 554 -12 703 -12 m 554 183 q 728 262 665 183 q 790 490 790 340 q 727 718 790 640 q 554 796 664 796 q 381 719 443 796 q 318 490 318 642 q 381 261 318 339 q 554 183 443 183 m 415 1061 q 331 1092 363 1061 q 299 1174 299 1122 q 331 1253 299 1224 q 415 1283 363 1283 q 501 1253 468 1283 q 533 1174 533 1224 q 501 1092 533 1122 q 415 1061 468 1061 m 690 1061 q 606 1092 638 1061 q 574 1174 574 1122 q 606 1253 574 1224 q 690 1283 638 1283 q 774 1253 742 1283 q 807 1174 807 1224 q 775 1092 807 1122 q 690 1061 743 1061 z "},"Ȫ":{"ha":1106,"x_min":64,"x_max":1043,"o":"m 554 -12 q 294 49 404 -12 q 124 224 183 111 q 64 490 64 338 q 124 756 64 643 q 294 931 183 869 q 554 992 404 992 q 815 931 704 992 q 984 756 925 869 q 1043 490 1043 643 q 983 224 1043 338 q 813 49 924 111 q 554 -12 703 -12 m 554 183 q 728 262 665 183 q 790 490 790 340 q 727 718 790 640 q 554 796 664 796 q 381 719 443 796 q 318 490 318 642 q 381 261 318 339 q 554 183 443 183 m 415 1061 q 331 1092 363 1061 q 299 1174 299 1122 q 331 1253 299 1224 q 415 1283 363 1283 q 501 1253 468 1283 q 533 1174 533 1224 q 501 1092 533 1122 q 415 1061 468 1061 m 690 1061 q 606 1092 638 1061 q 574 1174 574 1122 q 606 1253 574 1224 q 690 1283 638 1283 q 774 1253 742 1283 q 807 1174 807 1224 q 775 1092 807 1122 q 690 1061 743 1061 m 385 1319 q 330 1339 351 1319 q 308 1393 308 1358 q 330 1448 308 1428 q 385 1468 351 1468 l 721 1468 q 776 1448 754 1468 q 797 1393 797 1428 q 776 1339 797 1358 q 721 1319 754 1319 l 385 1319 z "},"Ȱ":{"ha":1106,"x_min":64,"x_max":1043,"o":"m 554 -12 q 294 49 404 -12 q 124 224 183 111 q 64 490 64 338 q 124 756 64 643 q 294 931 183 869 q 554 992 404 992 q 815 931 704 992 q 984 756 925 869 q 1043 490 1043 643 q 983 224 1043 338 q 813 49 924 111 q 554 -12 703 -12 m 554 183 q 728 262 665 183 q 790 490 790 340 q 727 718 790 640 q 554 796 664 796 q 381 719 443 796 q 318 490 318 642 q 381 261 318 339 q 554 183 443 183 m 553 1054 q 453 1087 490 1054 q 417 1174 417 1119 q 453 1258 417 1226 q 553 1290 490 1290 q 651 1258 614 1290 q 689 1174 689 1226 q 652 1087 689 1119 q 553 1054 615 1054 m 385 1319 q 330 1339 351 1319 q 308 1393 308 1358 q 330 1448 308 1428 q 385 1468 351 1468 l 721 1468 q 776 1448 754 1468 q 797 1393 797 1428 q 776 1339 797 1358 q 721 1319 754 1319 l 385 1319 z "},"Ọ":{"ha":1106,"x_min":64,"x_max":1043,"o":"m 554 -12 q 294 49 404 -12 q 124 224 183 111 q 64 490 64 338 q 124 756 64 643 q 294 931 183 869 q 554 992 404 992 q 815 931 704 992 q 984 756 925 869 q 1043 490 1043 643 q 983 224 1043 338 q 813 49 924 111 q 554 -12 703 -12 m 554 183 q 728 262 665 183 q 790 490 790 340 q 727 718 790 640 q 554 796 664 796 q 381 719 443 796 q 318 490 318 642 q 381 261 318 339 q 554 183 443 183 m 554 -292 q 471 -261 503 -292 q 439 -181 439 -231 q 470 -101 439 -131 q 554 -72 501 -72 q 638 -102 606 -72 q 669 -181 669 -132 q 638 -261 669 -231 q 554 -292 606 -292 z "},"Ò":{"ha":1106,"x_min":64,"x_max":1043,"o":"m 554 -12 q 294 49 404 -12 q 124 224 183 111 q 64 490 64 338 q 124 756 64 643 q 294 931 183 869 q 554 992 404 992 q 815 931 704 992 q 984 756 925 869 q 1043 490 1043 643 q 983 224 1043 338 q 813 49 924 111 q 554 -12 703 -12 m 554 183 q 728 262 665 183 q 790 490 790 340 q 727 718 790 640 q 554 796 664 796 q 381 719 443 796 q 318 490 318 642 q 381 261 318 339 q 554 183 443 183 m 378 1119 q 314 1201 314 1149 q 340 1261 314 1235 q 401 1288 365 1288 q 478 1254 440 1288 l 590 1149 q 610 1107 610 1129 q 593 1071 610 1086 q 554 1056 576 1056 q 526 1061 539 1056 l 378 1119 z "},"Ỏ":{"ha":1106,"x_min":64,"x_max":1043,"o":"m 554 -12 q 294 49 404 -12 q 124 224 183 111 q 64 490 64 338 q 124 756 64 643 q 294 931 183 869 q 554 992 404 992 q 815 931 704 992 q 984 756 925 869 q 1043 490 1043 643 q 983 224 1043 338 q 813 49 924 111 q 554 -12 703 -12 m 554 183 q 728 262 665 183 q 790 490 790 340 q 727 718 790 640 q 554 796 664 796 q 381 719 443 796 q 318 490 318 642 q 381 261 318 339 q 554 183 443 183 m 613 1088 q 592 1064 607 1072 q 557 1056 576 1056 q 515 1067 533 1056 q 497 1099 497 1079 q 514 1139 497 1126 q 560 1163 531 1151 q 577 1169 569 1165 q 585 1176 585 1172 q 543 1199 585 1199 q 523 1197 532 1199 q 506 1194 514 1196 q 468 1189 478 1189 q 441 1202 451 1189 q 431 1233 431 1215 q 456 1269 431 1260 q 564 1286 501 1286 q 683 1260 639 1286 q 728 1199 728 1235 q 710 1154 728 1169 q 661 1125 693 1139 q 628 1108 640 1117 q 613 1088 617 1100 z "},"Ơ":{"ha":1106,"x_min":64,"x_max":1043,"o":"m 892 874 q 1043 490 1043 739 q 983 224 1043 338 q 813 49 924 111 q 554 -12 703 -12 q 294 49 404 -12 q 124 224 183 111 q 64 490 64 338 q 124 756 64 643 q 294 931 183 869 q 556 992 406 992 q 639 986 586 992 q 722 979 683 979 q 797 999 774 979 q 824 1068 819 1019 q 859 1166 829 1135 q 942 1197 889 1197 q 1043 1076 1043 1197 q 1001 951 1043 1010 q 892 874 958 893 m 554 183 q 728 262 665 183 q 790 490 790 340 q 727 718 790 640 q 554 796 664 796 q 381 719 443 796 q 318 490 318 642 q 381 261 318 339 q 554 183 443 183 z "},"Ớ":{"ha":1106,"x_min":64,"x_max":1043,"o":"m 892 874 q 1043 490 1043 739 q 983 224 1043 338 q 813 49 924 111 q 554 -12 703 -12 q 294 49 404 -12 q 124 224 183 111 q 64 490 64 338 q 124 756 64 643 q 294 931 183 869 q 556 992 406 992 q 639 986 586 992 q 722 979 683 979 q 797 999 774 979 q 824 1068 819 1019 q 859 1166 829 1135 q 942 1197 889 1197 q 1043 1076 1043 1197 q 1001 951 1043 1010 q 892 874 958 893 m 554 183 q 728 262 665 183 q 790 490 790 340 q 727 718 790 640 q 554 796 664 796 q 381 719 443 796 q 318 490 318 642 q 381 261 318 339 q 554 183 443 183 m 579 1061 q 551 1056 567 1056 q 511 1071 528 1056 q 494 1107 494 1086 q 515 1149 494 1128 l 628 1254 q 703 1289 664 1289 q 765 1263 739 1289 q 790 1201 790 1236 q 728 1119 790 1149 l 579 1061 z "},"Ợ":{"ha":1106,"x_min":64,"x_max":1043,"o":"m 892 874 q 1043 490 1043 739 q 983 224 1043 338 q 813 49 924 111 q 554 -12 703 -12 q 294 49 404 -12 q 124 224 183 111 q 64 490 64 338 q 124 756 64 643 q 294 931 183 869 q 556 992 406 992 q 639 986 586 992 q 722 979 683 979 q 797 999 774 979 q 824 1068 819 1019 q 859 1166 829 1135 q 942 1197 889 1197 q 1043 1076 1043 1197 q 1001 951 1043 1010 q 892 874 958 893 m 554 183 q 728 262 665 183 q 790 490 790 340 q 727 718 790 640 q 554 796 664 796 q 381 719 443 796 q 318 490 318 642 q 381 261 318 339 q 554 183 443 183 m 554 -292 q 471 -261 503 -292 q 439 -181 439 -231 q 470 -101 439 -131 q 554 -72 501 -72 q 638 -102 606 -72 q 669 -181 669 -132 q 638 -261 669 -231 q 554 -292 606 -292 z "},"Ờ":{"ha":1106,"x_min":64,"x_max":1043,"o":"m 892 874 q 1043 490 1043 739 q 983 224 1043 338 q 813 49 924 111 q 554 -12 703 -12 q 294 49 404 -12 q 124 224 183 111 q 64 490 64 338 q 124 756 64 643 q 294 931 183 869 q 556 992 406 992 q 639 986 586 992 q 722 979 683 979 q 797 999 774 979 q 824 1068 819 1019 q 859 1166 829 1135 q 942 1197 889 1197 q 1043 1076 1043 1197 q 1001 951 1043 1010 q 892 874 958 893 m 554 183 q 728 262 665 183 q 790 490 790 340 q 727 718 790 640 q 554 796 664 796 q 381 719 443 796 q 318 490 318 642 q 381 261 318 339 q 554 183 443 183 m 378 1119 q 314 1201 314 1149 q 340 1261 314 1235 q 401 1288 365 1288 q 478 1254 440 1288 l 590 1149 q 610 1107 610 1129 q 593 1071 610 1086 q 554 1056 576 1056 q 526 1061 539 1056 l 378 1119 z "},"Ở":{"ha":1106,"x_min":64,"x_max":1043,"o":"m 892 874 q 1043 490 1043 739 q 983 224 1043 338 q 813 49 924 111 q 554 -12 703 -12 q 294 49 404 -12 q 124 224 183 111 q 64 490 64 338 q 124 756 64 643 q 294 931 183 869 q 556 992 406 992 q 639 986 586 992 q 722 979 683 979 q 797 999 774 979 q 824 1068 819 1019 q 859 1166 829 1135 q 942 1197 889 1197 q 1043 1076 1043 1197 q 1001 951 1043 1010 q 892 874 958 893 m 554 183 q 728 262 665 183 q 790 490 790 340 q 727 718 790 640 q 554 796 664 796 q 381 719 443 796 q 318 490 318 642 q 381 261 318 339 q 554 183 443 183 m 613 1088 q 592 1064 607 1072 q 557 1056 576 1056 q 515 1067 533 1056 q 497 1099 497 1079 q 514 1139 497 1126 q 560 1163 531 1151 q 577 1169 569 1165 q 585 1176 585 1172 q 543 1199 585 1199 q 523 1197 532 1199 q 506 1194 514 1196 q 468 1189 478 1189 q 441 1202 451 1189 q 431 1233 431 1215 q 456 1269 431 1260 q 564 1286 501 1286 q 683 1260 639 1286 q 728 1199 728 1235 q 710 1154 728 1169 q 661 1125 693 1139 q 628 1108 640 1117 q 613 1088 617 1100 z "},"Ỡ":{"ha":1106,"x_min":64,"x_max":1043,"o":"m 892 874 q 1043 490 1043 739 q 983 224 1043 338 q 813 49 924 111 q 554 -12 703 -12 q 294 49 404 -12 q 124 224 183 111 q 64 490 64 338 q 124 756 64 643 q 294 931 183 869 q 556 992 406 992 q 639 986 586 992 q 722 979 683 979 q 797 999 774 979 q 824 1068 819 1019 q 859 1166 829 1135 q 942 1197 889 1197 q 1043 1076 1043 1197 q 1001 951 1043 1010 q 892 874 958 893 m 554 183 q 728 262 665 183 q 790 490 790 340 q 727 718 790 640 q 554 796 664 796 q 381 719 443 796 q 318 490 318 642 q 381 261 318 339 q 554 183 443 183 m 658 1079 q 553 1097 617 1079 q 449 1114 483 1114 q 428 1110 436 1114 q 407 1096 419 1106 q 357 1074 385 1074 q 322 1088 335 1074 q 308 1128 308 1103 q 326 1191 308 1158 q 376 1245 344 1224 q 447 1267 408 1267 q 553 1249 489 1267 q 657 1232 622 1232 q 699 1250 678 1232 q 749 1271 722 1271 q 785 1257 772 1271 q 797 1218 797 1243 q 778 1155 797 1188 q 728 1101 760 1122 q 658 1079 696 1079 z "},"Ő":{"ha":1106,"x_min":64,"x_max":1043,"o":"m 554 -12 q 294 49 404 -12 q 124 224 183 111 q 64 490 64 338 q 124 756 64 643 q 294 931 183 869 q 554 992 404 992 q 815 931 704 992 q 984 756 925 869 q 1043 490 1043 643 q 983 224 1043 338 q 813 49 924 111 q 554 -12 703 -12 m 554 183 q 728 262 665 183 q 790 490 790 340 q 727 718 790 640 q 554 796 664 796 q 381 719 443 796 q 318 490 318 642 q 381 261 318 339 q 554 183 443 183 m 494 1075 q 450 1056 475 1056 q 414 1070 429 1056 q 399 1107 399 1085 q 404 1135 399 1122 l 447 1239 q 514 1286 469 1286 q 576 1262 547 1286 q 604 1206 604 1238 q 579 1153 604 1176 l 494 1075 m 697 1075 q 653 1056 678 1056 q 617 1070 632 1056 q 601 1107 601 1085 q 607 1135 601 1122 l 650 1239 q 717 1286 672 1286 q 778 1262 750 1286 q 807 1206 807 1238 q 782 1153 807 1176 l 697 1075 z "},"Ȏ":{"ha":1106,"x_min":64,"x_max":1043,"o":"m 554 -12 q 294 49 404 -12 q 124 224 183 111 q 64 490 64 338 q 124 756 64 643 q 294 931 183 869 q 554 992 404 992 q 815 931 704 992 q 984 756 925 869 q 1043 490 1043 643 q 983 224 1043 338 q 813 49 924 111 q 554 -12 703 -12 m 554 183 q 728 262 665 183 q 790 490 790 340 q 727 718 790 640 q 554 796 664 796 q 381 719 443 796 q 318 490 318 642 q 381 261 318 339 q 554 183 443 183 m 419 1094 q 363 1071 394 1071 q 320 1087 338 1071 q 303 1128 303 1103 q 315 1169 303 1147 q 406 1242 342 1213 q 553 1271 469 1271 q 701 1242 638 1271 q 790 1169 764 1214 q 801 1129 801 1149 q 784 1088 801 1104 q 742 1072 767 1072 q 686 1094 713 1072 q 627 1119 664 1110 q 553 1129 590 1129 q 478 1119 515 1129 q 419 1094 442 1110 z "},"Ō":{"ha":1106,"x_min":64,"x_max":1043,"o":"m 554 -12 q 294 49 404 -12 q 124 224 183 111 q 64 490 64 338 q 124 756 64 643 q 294 931 183 869 q 554 992 404 992 q 815 931 704 992 q 984 756 925 869 q 1043 490 1043 643 q 983 224 1043 338 q 813 49 924 111 q 554 -12 703 -12 m 554 183 q 728 262 665 183 q 790 490 790 340 q 727 718 790 640 q 554 796 664 796 q 381 719 443 796 q 318 490 318 642 q 381 261 318 339 q 554 183 443 183 m 385 1097 q 330 1117 351 1097 q 308 1171 308 1136 q 330 1226 308 1206 q 385 1246 351 1246 l 721 1246 q 776 1226 754 1246 q 797 1171 797 1206 q 776 1117 797 1136 q 721 1097 754 1097 l 385 1097 z "},"Ṓ":{"ha":1106,"x_min":64,"x_max":1043,"o":"m 554 -12 q 294 49 404 -12 q 124 224 183 111 q 64 490 64 338 q 124 756 64 643 q 294 931 183 869 q 554 992 404 992 q 815 931 704 992 q 984 756 925 869 q 1043 490 1043 643 q 983 224 1043 338 q 813 49 924 111 q 554 -12 703 -12 m 554 183 q 728 262 665 183 q 790 490 790 340 q 727 718 790 640 q 554 796 664 796 q 381 719 443 796 q 318 490 318 642 q 381 261 318 339 q 554 183 443 183 m 385 1097 q 330 1117 351 1097 q 308 1171 308 1136 q 330 1226 308 1206 q 385 1246 351 1246 l 721 1246 q 776 1226 754 1246 q 797 1171 797 1206 q 776 1117 797 1136 q 721 1097 754 1097 l 385 1097 m 579 1283 q 551 1278 567 1278 q 511 1293 528 1278 q 494 1329 494 1308 q 515 1371 494 1350 l 628 1476 q 703 1511 664 1511 q 765 1485 739 1511 q 790 1424 790 1458 q 728 1342 790 1371 l 579 1283 z "},"Ṑ":{"ha":1106,"x_min":64,"x_max":1043,"o":"m 554 -12 q 294 49 404 -12 q 124 224 183 111 q 64 490 64 338 q 124 756 64 643 q 294 931 183 869 q 554 992 404 992 q 815 931 704 992 q 984 756 925 869 q 1043 490 1043 643 q 983 224 1043 338 q 813 49 924 111 q 554 -12 703 -12 m 554 183 q 728 262 665 183 q 790 490 790 340 q 727 718 790 640 q 554 796 664 796 q 381 719 443 796 q 318 490 318 642 q 381 261 318 339 q 554 183 443 183 m 385 1097 q 330 1117 351 1097 q 308 1171 308 1136 q 330 1226 308 1206 q 385 1246 351 1246 l 721 1246 q 776 1226 754 1246 q 797 1171 797 1206 q 776 1117 797 1136 q 721 1097 754 1097 l 385 1097 m 378 1342 q 314 1424 314 1371 q 340 1483 314 1457 q 401 1510 365 1510 q 478 1476 440 1510 l 590 1371 q 610 1329 610 1351 q 593 1293 610 1308 q 554 1278 576 1278 q 526 1283 539 1278 l 378 1342 z "},"Ǫ":{"ha":1106,"x_min":64,"x_max":1043,"o":"m 715 7 q 654 -28 675 -4 q 633 -83 633 -51 q 652 -133 633 -114 q 700 -153 671 -153 q 767 -143 724 -153 q 778 -142 771 -142 q 808 -157 797 -142 q 819 -193 819 -172 q 813 -220 819 -207 q 793 -242 806 -233 q 663 -275 736 -275 q 532 -231 583 -275 q 481 -121 481 -187 q 521 -12 481 -57 q 278 58 381 -6 q 119 232 175 121 q 64 490 64 343 q 124 756 64 643 q 294 931 183 869 q 554 992 404 992 q 815 931 704 992 q 984 756 925 869 q 1043 490 1043 643 q 958 180 1043 306 q 715 7 872 54 m 554 183 q 728 262 665 183 q 790 490 790 340 q 727 718 790 640 q 554 796 664 796 q 381 719 443 796 q 318 490 318 642 q 381 261 318 339 q 554 183 443 183 z "},"Ø":{"ha":1106,"x_min":64,"x_max":1043,"o":"m 888 879 q 1003 715 963 814 q 1043 490 1043 615 q 983 224 1043 338 q 813 49 924 111 q 554 -12 703 -12 q 383 11 463 -12 l 364 -21 q 319 -70 344 -54 q 268 -86 294 -86 q 208 -61 233 -86 q 182 3 182 -36 q 203 72 182 35 l 219 101 q 104 267 144 168 q 64 490 64 365 q 124 756 64 643 q 294 931 183 869 q 554 992 404 992 q 724 968 644 992 l 742 1000 q 786 1049 761 1033 q 838 1065 811 1065 q 898 1040 872 1065 q 924 976 924 1015 q 903 907 924 944 l 888 879 m 318 490 q 347 321 318 388 l 618 788 q 554 796 589 796 q 381 719 443 796 q 318 490 318 642 m 554 183 q 728 262 665 183 q 790 490 790 340 q 760 661 790 592 l 488 192 q 554 183 519 183 z "},"Ǿ":{"ha":1106,"x_min":64,"x_max":1043,"o":"m 888 879 q 1003 715 963 814 q 1043 490 1043 615 q 983 224 1043 338 q 813 49 924 111 q 554 -12 703 -12 q 383 11 463 -12 l 364 -21 q 319 -70 344 -54 q 268 -86 294 -86 q 208 -61 233 -86 q 182 3 182 -36 q 203 72 182 35 l 219 101 q 104 267 144 168 q 64 490 64 365 q 124 756 64 643 q 294 931 183 869 q 554 992 404 992 q 724 968 644 992 l 742 1000 q 786 1049 761 1033 q 838 1065 811 1065 q 898 1040 872 1065 q 924 976 924 1015 q 903 907 924 944 l 888 879 m 318 490 q 347 321 318 388 l 618 788 q 554 796 589 796 q 381 719 443 796 q 318 490 318 642 m 554 183 q 728 262 665 183 q 790 490 790 340 q 760 661 790 592 l 488 192 q 554 183 519 183 m 579 1061 q 551 1056 567 1056 q 511 1071 528 1056 q 494 1107 494 1086 q 515 1149 494 1128 l 628 1254 q 703 1289 664 1289 q 765 1263 739 1289 q 790 1201 790 1236 q 728 1119 790 1149 l 579 1061 z "},"Õ":{"ha":1106,"x_min":64,"x_max":1043,"o":"m 554 -12 q 294 49 404 -12 q 124 224 183 111 q 64 490 64 338 q 124 756 64 643 q 294 931 183 869 q 554 992 404 992 q 815 931 704 992 q 984 756 925 869 q 1043 490 1043 643 q 983 224 1043 338 q 813 49 924 111 q 554 -12 703 -12 m 554 183 q 728 262 665 183 q 790 490 790 340 q 727 718 790 640 q 554 796 664 796 q 381 719 443 796 q 318 490 318 642 q 381 261 318 339 q 554 183 443 183 m 658 1079 q 553 1097 617 1079 q 449 1114 483 1114 q 428 1110 436 1114 q 407 1096 419 1106 q 357 1074 385 1074 q 322 1088 335 1074 q 308 1128 308 1103 q 326 1191 308 1158 q 376 1245 344 1224 q 447 1267 408 1267 q 553 1249 489 1267 q 657 1232 622 1232 q 699 1250 678 1232 q 749 1271 722 1271 q 785 1257 772 1271 q 797 1218 797 1243 q 778 1155 797 1188 q 728 1101 760 1122 q 658 1079 696 1079 z "},"Ṍ":{"ha":1106,"x_min":64,"x_max":1043,"o":"m 554 -12 q 294 49 404 -12 q 124 224 183 111 q 64 490 64 338 q 124 756 64 643 q 294 931 183 869 q 554 992 404 992 q 815 931 704 992 q 984 756 925 869 q 1043 490 1043 643 q 983 224 1043 338 q 813 49 924 111 q 554 -12 703 -12 m 554 183 q 728 262 665 183 q 790 490 790 340 q 727 718 790 640 q 554 796 664 796 q 381 719 443 796 q 318 490 318 642 q 381 261 318 339 q 554 183 443 183 m 658 1079 q 553 1097 617 1079 q 449 1114 483 1114 q 428 1110 436 1114 q 407 1096 419 1106 q 357 1074 385 1074 q 322 1088 335 1074 q 308 1128 308 1103 q 326 1191 308 1158 q 376 1245 344 1224 q 447 1267 408 1267 q 553 1249 489 1267 q 657 1232 622 1232 q 699 1250 678 1232 q 749 1271 722 1271 q 785 1257 772 1271 q 797 1218 797 1243 q 778 1155 797 1188 q 728 1101 760 1122 q 658 1079 696 1079 m 579 1283 q 551 1278 567 1278 q 511 1293 528 1278 q 494 1329 494 1308 q 515 1371 494 1350 l 628 1476 q 703 1511 664 1511 q 765 1485 739 1511 q 790 1424 790 1458 q 728 1342 790 1371 l 579 1283 z "},"Ṏ":{"ha":1106,"x_min":64,"x_max":1043,"o":"m 554 -12 q 294 49 404 -12 q 124 224 183 111 q 64 490 64 338 q 124 756 64 643 q 294 931 183 869 q 554 992 404 992 q 815 931 704 992 q 984 756 925 869 q 1043 490 1043 643 q 983 224 1043 338 q 813 49 924 111 q 554 -12 703 -12 m 554 183 q 728 262 665 183 q 790 490 790 340 q 727 718 790 640 q 554 796 664 796 q 381 719 443 796 q 318 490 318 642 q 381 261 318 339 q 554 183 443 183 m 658 1079 q 553 1097 617 1079 q 449 1114 483 1114 q 428 1110 436 1114 q 407 1096 419 1106 q 357 1074 385 1074 q 322 1088 335 1074 q 308 1128 308 1103 q 326 1191 308 1158 q 376 1245 344 1224 q 447 1267 408 1267 q 553 1249 489 1267 q 657 1232 622 1232 q 699 1250 678 1232 q 749 1271 722 1271 q 785 1257 772 1271 q 797 1218 797 1243 q 778 1155 797 1188 q 728 1101 760 1122 q 658 1079 696 1079 m 415 1283 q 331 1314 363 1283 q 299 1396 299 1344 q 331 1476 299 1446 q 415 1506 363 1506 q 501 1476 468 1506 q 533 1396 533 1446 q 501 1314 533 1344 q 415 1283 468 1283 m 690 1283 q 606 1314 638 1283 q 574 1396 574 1344 q 606 1476 574 1446 q 690 1506 638 1506 q 774 1476 742 1506 q 807 1396 807 1446 q 775 1314 807 1344 q 690 1283 743 1283 z "},"Ȭ":{"ha":1106,"x_min":64,"x_max":1043,"o":"m 554 -12 q 294 49 404 -12 q 124 224 183 111 q 64 490 64 338 q 124 756 64 643 q 294 931 183 869 q 554 992 404 992 q 815 931 704 992 q 984 756 925 869 q 1043 490 1043 643 q 983 224 1043 338 q 813 49 924 111 q 554 -12 703 -12 m 554 183 q 728 262 665 183 q 790 490 790 340 q 727 718 790 640 q 554 796 664 796 q 381 719 443 796 q 318 490 318 642 q 381 261 318 339 q 554 183 443 183 m 658 1079 q 553 1097 617 1079 q 449 1114 483 1114 q 428 1110 436 1114 q 407 1096 419 1106 q 357 1074 385 1074 q 322 1088 335 1074 q 308 1128 308 1103 q 326 1191 308 1158 q 376 1245 344 1224 q 447 1267 408 1267 q 553 1249 489 1267 q 657 1232 622 1232 q 699 1250 678 1232 q 749 1271 722 1271 q 785 1257 772 1271 q 797 1218 797 1243 q 778 1155 797 1188 q 728 1101 760 1122 q 658 1079 696 1079 m 385 1319 q 330 1339 351 1319 q 308 1393 308 1358 q 330 1448 308 1428 q 385 1468 351 1468 l 721 1468 q 776 1448 754 1468 q 797 1393 797 1428 q 776 1339 797 1358 q 721 1319 754 1319 l 385 1319 z "},"Œ":{"ha":1450,"x_min":64,"x_max":1429,"o":"m 586 0 q 305 58 422 0 q 126 227 188 117 q 64 490 64 338 q 126 751 64 642 q 306 920 189 861 q 586 979 424 979 l 1311 979 q 1399 954 1369 979 q 1429 882 1429 929 q 1398 808 1429 833 q 1307 782 1367 782 l 956 782 l 956 596 l 1279 596 q 1401 497 1401 596 q 1370 425 1401 450 q 1279 400 1339 400 l 956 400 l 956 197 l 1307 197 q 1398 172 1367 197 q 1429 97 1429 146 q 1399 25 1429 50 q 1310 0 1368 0 l 586 0 m 707 782 l 603 782 q 391 710 464 782 q 318 490 318 638 q 603 197 318 197 l 707 197 l 707 782 z "},"P":{"ha":940,"x_min":89,"x_max":906,"o":"m 215 -8 q 123 26 157 -8 q 89 118 89 60 l 89 861 q 119 949 89 918 q 207 979 150 979 l 563 979 q 815 897 725 979 q 906 667 906 814 q 815 438 906 521 q 563 354 724 354 l 344 354 l 344 118 q 310 26 344 60 q 215 -8 275 -8 m 528 546 q 633 575 599 546 q 667 665 667 604 q 528 786 667 786 l 344 786 l 344 546 l 528 546 z "},"Þ":{"ha":943,"x_min":89,"x_max":906,"o":"m 561 789 q 814 711 722 789 q 906 497 906 633 q 813 284 906 363 q 561 206 721 206 l 339 206 l 339 118 q 305 26 339 61 q 214 -8 271 -8 q 123 26 157 -8 q 89 118 89 60 l 89 861 q 123 952 89 918 q 214 986 157 986 q 305 952 271 986 q 339 861 339 918 l 339 789 l 561 789 m 517 399 q 631 422 596 399 q 667 497 667 444 q 631 572 667 549 q 517 596 594 596 l 339 596 l 339 399 l 517 399 z "},"Q":{"ha":1106,"x_min":64,"x_max":1043,"o":"m 954 -83 q 978 -154 978 -121 q 940 -230 978 -200 q 854 -260 903 -260 q 792 -244 821 -260 q 743 -197 763 -228 l 660 -57 q 622 -23 646 -33 q 554 -12 599 -12 q 294 49 404 -12 q 124 224 183 111 q 64 490 64 338 q 124 756 64 643 q 294 931 183 869 q 554 992 404 992 q 815 931 704 992 q 984 756 925 869 q 1043 490 1043 643 q 984 225 1043 339 q 814 50 925 111 q 925 -35 888 28 l 954 -83 m 554 183 q 728 262 665 183 q 790 490 790 340 q 727 718 790 640 q 554 796 664 796 q 381 719 443 796 q 318 490 318 642 q 381 261 318 339 q 554 183 443 183 z "},"R":{"ha":982,"x_min":89,"x_max":938,"o":"m 913 163 q 938 92 938 125 q 901 17 938 47 q 815 -12 864 -12 q 753 3 782 -12 q 703 49 724 18 l 522 313 q 481 353 503 340 q 431 367 460 367 l 340 367 l 340 118 q 307 26 340 60 q 215 -8 274 -8 q 123 26 157 -8 q 89 118 89 60 l 89 861 q 119 949 89 918 q 207 979 150 979 l 556 979 q 823 902 733 979 q 913 679 913 825 q 851 491 913 568 q 679 388 790 414 q 759 357 725 381 q 826 286 793 333 l 913 163 m 515 558 q 637 585 600 558 q 674 671 674 611 q 637 759 674 732 q 515 786 600 786 l 338 786 l 338 558 l 515 558 z "},"Ŕ":{"ha":982,"x_min":89,"x_max":938,"o":"m 913 163 q 938 92 938 125 q 901 17 938 47 q 815 -12 864 -12 q 753 3 782 -12 q 703 49 724 18 l 522 313 q 481 353 503 340 q 431 367 460 367 l 340 367 l 340 118 q 307 26 340 60 q 215 -8 274 -8 q 123 26 157 -8 q 89 118 89 60 l 89 861 q 119 949 89 918 q 207 979 150 979 l 556 979 q 823 902 733 979 q 913 679 913 825 q 851 491 913 568 q 679 388 790 414 q 759 357 725 381 q 826 286 793 333 l 913 163 m 515 558 q 637 585 600 558 q 674 671 674 611 q 637 759 674 732 q 515 786 600 786 l 338 786 l 338 558 l 515 558 m 522 1061 q 494 1056 510 1056 q 454 1071 471 1056 q 438 1107 438 1086 q 458 1149 438 1128 l 571 1254 q 646 1289 607 1289 q 708 1263 682 1289 q 733 1201 733 1236 q 671 1119 733 1149 l 522 1061 z "},"Ř":{"ha":982,"x_min":89,"x_max":938,"o":"m 913 163 q 938 92 938 125 q 901 17 938 47 q 815 -12 864 -12 q 753 3 782 -12 q 703 49 724 18 l 522 313 q 481 353 503 340 q 431 367 460 367 l 340 367 l 340 118 q 307 26 340 60 q 215 -8 274 -8 q 123 26 157 -8 q 89 118 89 60 l 89 861 q 119 949 89 918 q 207 979 150 979 l 556 979 q 823 902 733 979 q 913 679 913 825 q 851 491 913 568 q 679 388 790 414 q 759 357 725 381 q 826 286 793 333 l 913 163 m 515 558 q 637 585 600 558 q 674 671 674 611 q 637 759 674 732 q 515 786 600 786 l 338 786 l 338 558 l 515 558 m 496 1056 q 417 1085 451 1056 l 311 1167 q 283 1219 283 1190 q 304 1266 283 1246 q 353 1286 325 1286 q 408 1263 383 1286 l 496 1183 l 583 1263 q 639 1286 608 1286 q 688 1266 667 1286 q 708 1219 708 1246 q 681 1167 708 1189 l 575 1085 q 496 1056 540 1056 z "},"Ŗ":{"ha":982,"x_min":89,"x_max":938,"o":"m 913 163 q 938 92 938 125 q 901 17 938 47 q 815 -12 864 -12 q 753 3 782 -12 q 703 49 724 18 l 522 313 q 481 353 503 340 q 431 367 460 367 l 340 367 l 340 118 q 307 26 340 60 q 215 -8 274 -8 q 123 26 157 -8 q 89 118 89 60 l 89 861 q 119 949 89 918 q 207 979 150 979 l 556 979 q 823 902 733 979 q 913 679 913 825 q 851 491 913 568 q 679 388 790 414 q 759 357 725 381 q 826 286 793 333 l 913 163 m 515 558 q 637 585 600 558 q 674 671 674 611 q 637 759 674 732 q 515 786 600 786 l 338 786 l 338 558 l 515 558 m 494 -81 q 588 -115 553 -81 q 624 -217 624 -150 q 609 -299 624 -261 q 575 -358 594 -336 q 547 -380 563 -372 q 514 -387 531 -387 q 476 -376 492 -387 q 460 -347 460 -365 q 471 -318 460 -333 q 494 -271 485 -297 l 486 -271 q 412 -248 443 -271 q 381 -183 381 -225 q 413 -108 381 -136 q 494 -81 444 -81 z "},"Ȑ":{"ha":982,"x_min":89,"x_max":938,"o":"m 913 163 q 938 92 938 125 q 901 17 938 47 q 815 -12 864 -12 q 753 3 782 -12 q 703 49 724 18 l 522 313 q 481 353 503 340 q 431 367 460 367 l 340 367 l 340 118 q 307 26 340 60 q 215 -8 274 -8 q 123 26 157 -8 q 89 118 89 60 l 89 861 q 119 949 89 918 q 207 979 150 979 l 556 979 q 823 902 733 979 q 913 679 913 825 q 851 491 913 568 q 679 388 790 414 q 759 357 725 381 q 826 286 793 333 l 913 163 m 515 558 q 637 585 600 558 q 674 671 674 611 q 637 759 674 732 q 515 786 600 786 l 338 786 l 338 558 l 515 558 m 267 1153 q 242 1206 242 1176 q 270 1262 242 1238 q 332 1286 299 1286 q 399 1239 376 1286 l 442 1135 q 447 1108 447 1122 q 432 1071 447 1086 q 396 1056 417 1056 q 351 1075 371 1056 l 267 1153 m 469 1153 q 444 1206 444 1176 q 473 1262 444 1238 q 535 1286 501 1286 q 601 1239 579 1286 l 644 1135 q 650 1108 650 1122 q 635 1071 650 1086 q 599 1056 619 1056 q 554 1075 574 1056 l 469 1153 z "},"Ṛ":{"ha":982,"x_min":89,"x_max":938,"o":"m 913 163 q 938 92 938 125 q 901 17 938 47 q 815 -12 864 -12 q 753 3 782 -12 q 703 49 724 18 l 522 313 q 481 353 503 340 q 431 367 460 367 l 340 367 l 340 118 q 307 26 340 60 q 215 -8 274 -8 q 123 26 157 -8 q 89 118 89 60 l 89 861 q 119 949 89 918 q 207 979 150 979 l 556 979 q 823 902 733 979 q 913 679 913 825 q 851 491 913 568 q 679 388 790 414 q 759 357 725 381 q 826 286 793 333 l 913 163 m 515 558 q 637 585 600 558 q 674 671 674 611 q 637 759 674 732 q 515 786 600 786 l 338 786 l 338 558 l 515 558 m 497 -292 q 414 -261 446 -292 q 382 -181 382 -231 q 413 -101 382 -131 q 497 -72 444 -72 q 581 -102 549 -72 q 613 -181 613 -132 q 581 -261 613 -231 q 497 -292 549 -292 z "},"Ȓ":{"ha":982,"x_min":89,"x_max":938,"o":"m 913 163 q 938 92 938 125 q 901 17 938 47 q 815 -12 864 -12 q 753 3 782 -12 q 703 49 724 18 l 522 313 q 481 353 503 340 q 431 367 460 367 l 340 367 l 340 118 q 307 26 340 60 q 215 -8 274 -8 q 123 26 157 -8 q 89 118 89 60 l 89 861 q 119 949 89 918 q 207 979 150 979 l 556 979 q 823 902 733 979 q 913 679 913 825 q 851 491 913 568 q 679 388 790 414 q 759 357 725 381 q 826 286 793 333 l 913 163 m 515 558 q 637 585 600 558 q 674 671 674 611 q 637 759 674 732 q 515 786 600 786 l 338 786 l 338 558 l 515 558 m 363 1094 q 306 1071 338 1071 q 263 1087 281 1071 q 246 1128 246 1103 q 258 1169 246 1147 q 349 1242 285 1213 q 496 1271 413 1271 q 644 1242 581 1271 q 733 1169 707 1214 q 744 1129 744 1149 q 727 1088 744 1104 q 685 1072 710 1072 q 629 1094 656 1072 q 570 1119 607 1110 q 496 1129 533 1129 q 422 1119 458 1129 q 363 1094 385 1110 z "},"Ṟ":{"ha":982,"x_min":89,"x_max":938,"o":"m 913 163 q 938 92 938 125 q 901 17 938 47 q 815 -12 864 -12 q 753 3 782 -12 q 703 49 724 18 l 522 313 q 481 353 503 340 q 431 367 460 367 l 340 367 l 340 118 q 307 26 340 60 q 215 -8 274 -8 q 123 26 157 -8 q 89 118 89 60 l 89 861 q 119 949 89 918 q 207 979 150 979 l 556 979 q 823 902 733 979 q 913 679 913 825 q 851 491 913 568 q 679 388 790 414 q 759 357 725 381 q 826 286 793 333 l 913 163 m 515 558 q 637 585 600 558 q 674 671 674 611 q 637 759 674 732 q 515 786 600 786 l 338 786 l 338 558 l 515 558 m 329 -251 q 274 -233 296 -251 q 253 -182 253 -214 q 274 -133 253 -151 q 329 -114 296 -114 l 665 -114 q 720 -133 699 -114 q 742 -182 742 -151 q 720 -233 742 -214 q 665 -251 699 -251 l 329 -251 z "},"S":{"ha":922,"x_min":50,"x_max":867,"o":"m 457 -12 q 251 12 346 -12 q 94 79 156 36 q 60 117 71 97 q 50 167 50 136 q 75 239 50 208 q 133 269 100 269 q 168 264 151 269 q 210 243 185 258 q 323 197 267 211 q 450 183 379 183 q 574 208 532 183 q 617 279 617 232 q 577 334 617 311 q 426 379 538 357 q 211 449 289 408 q 102 544 133 489 q 71 676 71 599 q 124 838 71 765 q 269 951 176 910 q 476 992 361 992 q 657 969 578 992 q 801 900 736 947 q 837 862 826 882 q 847 813 847 842 q 823 740 847 771 q 765 710 799 710 q 732 715 747 710 q 689 736 717 719 q 649 758 682 740 q 573 785 617 775 q 478 796 529 796 q 364 769 407 796 q 321 697 321 742 q 336 654 321 671 q 393 622 351 638 q 517 589 435 606 q 726 519 650 560 q 835 424 803 478 q 867 296 867 369 q 815 134 867 204 q 672 26 764 64 q 457 -12 579 -12 z "},"Ś":{"ha":922,"x_min":50,"x_max":867,"o":"m 457 -12 q 251 12 346 -12 q 94 79 156 36 q 60 117 71 97 q 50 167 50 136 q 75 239 50 208 q 133 269 100 269 q 168 264 151 269 q 210 243 185 258 q 323 197 267 211 q 450 183 379 183 q 574 208 532 183 q 617 279 617 232 q 577 334 617 311 q 426 379 538 357 q 211 449 289 408 q 102 544 133 489 q 71 676 71 599 q 124 838 71 765 q 269 951 176 910 q 476 992 361 992 q 657 969 578 992 q 801 900 736 947 q 837 862 826 882 q 847 813 847 842 q 823 740 847 771 q 765 710 799 710 q 732 715 747 710 q 689 736 717 719 q 649 758 682 740 q 573 785 617 775 q 478 796 529 796 q 364 769 407 796 q 321 697 321 742 q 336 654 321 671 q 393 622 351 638 q 517 589 435 606 q 726 519 650 560 q 835 424 803 478 q 867 296 867 369 q 815 134 867 204 q 672 26 764 64 q 457 -12 579 -12 m 493 1061 q 465 1056 481 1056 q 425 1071 442 1056 q 408 1107 408 1086 q 429 1149 408 1128 l 542 1254 q 617 1289 578 1289 q 678 1263 653 1289 q 704 1201 704 1236 q 642 1119 704 1149 l 493 1061 z "},"Ṥ":{"ha":922,"x_min":50,"x_max":867,"o":"m 457 -12 q 251 12 346 -12 q 94 79 156 36 q 60 117 71 97 q 50 167 50 136 q 75 239 50 208 q 133 269 100 269 q 168 264 151 269 q 210 243 185 258 q 323 197 267 211 q 450 183 379 183 q 574 208 532 183 q 617 279 617 232 q 577 334 617 311 q 426 379 538 357 q 211 449 289 408 q 102 544 133 489 q 71 676 71 599 q 124 838 71 765 q 269 951 176 910 q 476 992 361 992 q 657 969 578 992 q 801 900 736 947 q 837 862 826 882 q 847 813 847 842 q 823 740 847 771 q 765 710 799 710 q 732 715 747 710 q 689 736 717 719 q 649 758 682 740 q 573 785 617 775 q 478 796 529 796 q 364 769 407 796 q 321 697 321 742 q 336 654 321 671 q 393 622 351 638 q 517 589 435 606 q 726 519 650 560 q 835 424 803 478 q 867 296 867 369 q 815 134 867 204 q 672 26 764 64 q 457 -12 579 -12 m 539 1061 q 511 1056 526 1056 q 471 1071 488 1056 q 454 1107 454 1086 q 475 1149 454 1128 l 588 1254 q 663 1289 624 1289 q 724 1263 699 1289 q 750 1201 750 1236 q 688 1119 750 1149 l 539 1061 m 292 1050 q 192 1083 229 1050 q 156 1169 156 1115 q 192 1254 156 1222 q 292 1286 229 1286 q 390 1254 353 1286 q 428 1169 428 1222 q 391 1083 428 1115 q 292 1050 354 1050 z "},"Š":{"ha":922,"x_min":50,"x_max":867,"o":"m 457 -12 q 251 12 346 -12 q 94 79 156 36 q 60 117 71 97 q 50 167 50 136 q 75 239 50 208 q 133 269 100 269 q 168 264 151 269 q 210 243 185 258 q 323 197 267 211 q 450 183 379 183 q 574 208 532 183 q 617 279 617 232 q 577 334 617 311 q 426 379 538 357 q 211 449 289 408 q 102 544 133 489 q 71 676 71 599 q 124 838 71 765 q 269 951 176 910 q 476 992 361 992 q 657 969 578 992 q 801 900 736 947 q 837 862 826 882 q 847 813 847 842 q 823 740 847 771 q 765 710 799 710 q 732 715 747 710 q 689 736 717 719 q 649 758 682 740 q 573 785 617 775 q 478 796 529 796 q 364 769 407 796 q 321 697 321 742 q 336 654 321 671 q 393 622 351 638 q 517 589 435 606 q 726 519 650 560 q 835 424 803 478 q 867 296 867 369 q 815 134 867 204 q 672 26 764 64 q 457 -12 579 -12 m 467 1056 q 388 1085 422 1056 l 282 1167 q 254 1219 254 1190 q 275 1266 254 1246 q 324 1286 296 1286 q 379 1263 354 1286 l 467 1183 l 554 1263 q 610 1286 579 1286 q 658 1266 638 1286 q 679 1219 679 1246 q 651 1167 679 1189 l 546 1085 q 467 1056 511 1056 z "},"Ṧ":{"ha":922,"x_min":50,"x_max":867,"o":"m 457 -12 q 251 12 346 -12 q 94 79 156 36 q 60 117 71 97 q 50 167 50 136 q 75 239 50 208 q 133 269 100 269 q 168 264 151 269 q 210 243 185 258 q 323 197 267 211 q 450 183 379 183 q 574 208 532 183 q 617 279 617 232 q 577 334 617 311 q 426 379 538 357 q 211 449 289 408 q 102 544 133 489 q 71 676 71 599 q 124 838 71 765 q 269 951 176 910 q 476 992 361 992 q 657 969 578 992 q 801 900 736 947 q 837 862 826 882 q 847 813 847 842 q 823 740 847 771 q 765 710 799 710 q 732 715 747 710 q 689 736 717 719 q 649 758 682 740 q 573 785 617 775 q 478 796 529 796 q 364 769 407 796 q 321 697 321 742 q 336 654 321 671 q 393 622 351 638 q 517 589 435 606 q 726 519 650 560 q 835 424 803 478 q 867 296 867 369 q 815 134 867 204 q 672 26 764 64 q 457 -12 579 -12 m 467 1056 q 388 1085 422 1056 l 282 1167 q 254 1219 254 1190 q 275 1266 254 1246 q 324 1286 296 1286 q 379 1263 354 1286 l 467 1183 l 554 1263 q 610 1286 579 1286 q 658 1266 638 1286 q 679 1219 679 1246 q 651 1167 679 1189 l 546 1085 q 467 1056 511 1056 m 467 1276 q 367 1309 404 1276 q 331 1396 331 1342 q 367 1481 331 1449 q 467 1513 404 1513 q 565 1481 528 1513 q 603 1396 603 1449 q 566 1309 603 1342 q 467 1276 529 1276 z "},"Ş":{"ha":922,"x_min":50,"x_max":867,"o":"m 867 296 q 822 144 867 211 q 695 36 778 76 q 504 -11 613 -4 l 496 -57 q 525 -56 507 -56 q 598 -82 568 -56 q 628 -151 628 -108 q 577 -241 628 -207 q 432 -275 526 -275 q 332 -262 369 -275 q 301 -218 301 -253 q 315 -181 301 -197 q 346 -171 328 -165 q 424 -182 401 -182 q 482 -151 482 -182 q 451 -128 482 -128 q 422 -131 440 -128 q 394 -135 404 -135 q 372 -127 381 -135 q 367 -106 364 -119 l 379 -10 q 218 20 292 -3 q 94 79 144 43 q 60 117 71 97 q 50 167 50 136 q 75 239 50 208 q 133 269 100 269 q 168 264 151 269 q 210 243 185 258 q 323 197 267 211 q 450 183 379 183 q 574 208 532 183 q 617 279 617 232 q 577 334 617 311 q 426 379 538 357 q 211 449 289 408 q 102 544 133 489 q 71 676 71 599 q 124 838 71 765 q 269 951 176 910 q 476 992 361 992 q 657 969 578 992 q 801 900 736 947 q 837 862 826 882 q 847 813 847 842 q 823 740 847 771 q 765 710 799 710 q 732 715 747 710 q 689 736 717 719 q 649 758 682 740 q 573 785 617 775 q 478 796 529 796 q 364 769 407 796 q 321 697 321 742 q 336 654 321 671 q 393 622 351 638 q 517 589 435 606 q 726 519 650 560 q 835 424 803 478 q 867 296 867 369 z "},"Ŝ":{"ha":922,"x_min":50,"x_max":867,"o":"m 457 -12 q 251 12 346 -12 q 94 79 156 36 q 60 117 71 97 q 50 167 50 136 q 75 239 50 208 q 133 269 100 269 q 168 264 151 269 q 210 243 185 258 q 323 197 267 211 q 450 183 379 183 q 574 208 532 183 q 617 279 617 232 q 577 334 617 311 q 426 379 538 357 q 211 449 289 408 q 102 544 133 489 q 71 676 71 599 q 124 838 71 765 q 269 951 176 910 q 476 992 361 992 q 657 969 578 992 q 801 900 736 947 q 837 862 826 882 q 847 813 847 842 q 823 740 847 771 q 765 710 799 710 q 732 715 747 710 q 689 736 717 719 q 649 758 682 740 q 573 785 617 775 q 478 796 529 796 q 364 769 407 796 q 321 697 321 742 q 336 654 321 671 q 393 622 351 638 q 517 589 435 606 q 726 519 650 560 q 835 424 803 478 q 867 296 867 369 q 815 134 867 204 q 672 26 764 64 q 457 -12 579 -12 m 379 1081 q 324 1057 354 1057 q 274 1076 294 1057 q 253 1122 253 1096 q 282 1176 253 1153 l 388 1257 q 467 1286 422 1286 q 546 1257 511 1286 l 651 1176 q 679 1122 679 1153 q 659 1076 679 1096 q 610 1057 639 1057 q 554 1081 579 1057 l 467 1158 l 379 1081 z "},"Ș":{"ha":922,"x_min":50,"x_max":867,"o":"m 457 -12 q 251 12 346 -12 q 94 79 156 36 q 60 117 71 97 q 50 167 50 136 q 75 239 50 208 q 133 269 100 269 q 168 264 151 269 q 210 243 185 258 q 323 197 267 211 q 450 183 379 183 q 574 208 532 183 q 617 279 617 232 q 577 334 617 311 q 426 379 538 357 q 211 449 289 408 q 102 544 133 489 q 71 676 71 599 q 124 838 71 765 q 269 951 176 910 q 476 992 361 992 q 657 969 578 992 q 801 900 736 947 q 837 862 826 882 q 847 813 847 842 q 823 740 847 771 q 765 710 799 710 q 732 715 747 710 q 689 736 717 719 q 649 758 682 740 q 573 785 617 775 q 478 796 529 796 q 364 769 407 796 q 321 697 321 742 q 336 654 321 671 q 393 622 351 638 q 517 589 435 606 q 726 519 650 560 q 835 424 803 478 q 867 296 867 369 q 815 134 867 204 q 672 26 764 64 q 457 -12 579 -12 m 454 -81 q 548 -115 513 -81 q 583 -217 583 -150 q 569 -299 583 -261 q 535 -358 554 -336 q 506 -380 522 -372 q 474 -387 490 -387 q 435 -376 451 -387 q 419 -347 419 -365 q 431 -318 419 -333 q 454 -271 444 -297 l 446 -271 q 372 -248 403 -271 q 340 -183 340 -225 q 372 -108 340 -136 q 454 -81 404 -81 z "},"Ṡ":{"ha":922,"x_min":50,"x_max":867,"o":"m 457 -12 q 251 12 346 -12 q 94 79 156 36 q 60 117 71 97 q 50 167 50 136 q 75 239 50 208 q 133 269 100 269 q 168 264 151 269 q 210 243 185 258 q 323 197 267 211 q 450 183 379 183 q 574 208 532 183 q 617 279 617 232 q 577 334 617 311 q 426 379 538 357 q 211 449 289 408 q 102 544 133 489 q 71 676 71 599 q 124 838 71 765 q 269 951 176 910 q 476 992 361 992 q 657 969 578 992 q 801 900 736 947 q 837 862 826 882 q 847 813 847 842 q 823 740 847 771 q 765 710 799 710 q 732 715 747 710 q 689 736 717 719 q 649 758 682 740 q 573 785 617 775 q 478 796 529 796 q 364 769 407 796 q 321 697 321 742 q 336 654 321 671 q 393 622 351 638 q 517 589 435 606 q 726 519 650 560 q 835 424 803 478 q 867 296 867 369 q 815 134 867 204 q 672 26 764 64 q 457 -12 579 -12 m 467 1054 q 367 1087 404 1054 q 331 1174 331 1119 q 367 1258 331 1226 q 467 1290 404 1290 q 565 1258 528 1290 q 603 1174 603 1226 q 566 1087 603 1119 q 467 1054 529 1054 z "},"Ṣ":{"ha":922,"x_min":50,"x_max":867,"o":"m 457 -12 q 251 12 346 -12 q 94 79 156 36 q 60 117 71 97 q 50 167 50 136 q 75 239 50 208 q 133 269 100 269 q 168 264 151 269 q 210 243 185 258 q 323 197 267 211 q 450 183 379 183 q 574 208 532 183 q 617 279 617 232 q 577 334 617 311 q 426 379 538 357 q 211 449 289 408 q 102 544 133 489 q 71 676 71 599 q 124 838 71 765 q 269 951 176 910 q 476 992 361 992 q 657 969 578 992 q 801 900 736 947 q 837 862 826 882 q 847 813 847 842 q 823 740 847 771 q 765 710 799 710 q 732 715 747 710 q 689 736 717 719 q 649 758 682 740 q 573 785 617 775 q 478 796 529 796 q 364 769 407 796 q 321 697 321 742 q 336 654 321 671 q 393 622 351 638 q 517 589 435 606 q 726 519 650 560 q 835 424 803 478 q 867 296 867 369 q 815 134 867 204 q 672 26 764 64 q 457 -12 579 -12 m 457 -292 q 374 -261 406 -292 q 342 -181 342 -231 q 373 -101 342 -131 q 457 -72 404 -72 q 540 -102 508 -72 q 572 -181 572 -132 q 540 -261 572 -231 q 457 -292 508 -292 z "},"Ṩ":{"ha":922,"x_min":50,"x_max":867,"o":"m 457 -12 q 251 12 346 -12 q 94 79 156 36 q 60 117 71 97 q 50 167 50 136 q 75 239 50 208 q 133 269 100 269 q 168 264 151 269 q 210 243 185 258 q 323 197 267 211 q 450 183 379 183 q 574 208 532 183 q 617 279 617 232 q 577 334 617 311 q 426 379 538 357 q 211 449 289 408 q 102 544 133 489 q 71 676 71 599 q 124 838 71 765 q 269 951 176 910 q 476 992 361 992 q 657 969 578 992 q 801 900 736 947 q 837 862 826 882 q 847 813 847 842 q 823 740 847 771 q 765 710 799 710 q 732 715 747 710 q 689 736 717 719 q 649 758 682 740 q 573 785 617 775 q 478 796 529 796 q 364 769 407 796 q 321 697 321 742 q 336 654 321 671 q 393 622 351 638 q 517 589 435 606 q 726 519 650 560 q 835 424 803 478 q 867 296 867 369 q 815 134 867 204 q 672 26 764 64 q 457 -12 579 -12 m 457 -292 q 374 -261 406 -292 q 342 -181 342 -231 q 373 -101 342 -131 q 457 -72 404 -72 q 540 -102 508 -72 q 572 -181 572 -132 q 540 -261 572 -231 q 457 -292 508 -292 m 467 1054 q 367 1087 404 1054 q 331 1174 331 1119 q 367 1258 331 1226 q 467 1290 404 1290 q 565 1258 528 1290 q 603 1174 603 1226 q 566 1087 603 1119 q 467 1054 529 1054 z "},"ẞ":{"ha":999,"x_min":89,"x_max":958,"o":"m 754 511 q 904 429 850 492 q 958 275 958 367 q 917 131 958 196 q 805 28 876 65 q 644 -8 733 -8 q 524 6 576 -8 q 426 50 472 19 q 394 82 406 61 q 383 131 383 103 q 403 201 383 174 q 456 228 424 228 q 485 224 471 228 q 522 210 500 221 q 553 197 535 206 q 588 183 571 189 q 626 178 606 178 q 693 207 668 178 q 718 285 718 236 q 681 372 718 346 q 550 397 643 397 l 499 397 q 425 426 451 397 q 399 496 399 456 q 425 564 399 535 q 499 593 451 593 l 531 593 q 646 686 646 593 q 610 764 646 735 q 513 793 574 793 q 385 746 431 793 q 339 614 339 699 l 339 115 q 305 24 339 58 q 214 -10 271 -10 q 123 24 157 -10 q 89 115 89 58 l 89 606 q 203 888 89 786 q 519 989 317 989 q 711 955 629 989 q 838 858 793 921 q 882 710 882 794 q 848 592 882 644 q 754 511 814 539 z "},"Ə":{"ha":1079,"x_min":64,"x_max":1015,"o":"m 506 992 q 775 930 660 992 q 953 755 890 868 q 1015 490 1015 642 q 957 231 1015 346 q 792 52 899 117 q 546 -12 685 -12 q 289 46 397 -12 q 122 217 181 104 q 64 488 64 329 q 90 564 64 536 q 160 592 115 592 l 753 592 q 489 790 711 790 q 390 776 444 790 q 285 736 336 761 q 243 715 257 721 q 208 710 229 710 q 150 740 174 710 q 126 813 126 769 q 136 860 126 842 q 169 899 146 879 q 316 967 228 943 q 506 992 404 992 m 546 183 q 757 399 728 183 l 321 399 q 392 238 335 292 q 546 183 450 183 z "},"T":{"ha":878,"x_min":-7,"x_max":885,"o":"m 439 -7 q 345 27 381 -7 q 310 118 310 61 l 310 772 l 114 772 q 23 798 53 772 q -7 876 -7 824 q 23 954 -7 929 q 114 979 53 979 l 764 979 q 855 954 825 979 q 885 876 885 929 q 855 798 885 824 q 764 772 825 772 l 568 772 l 568 118 q 533 27 568 61 q 439 -7 497 -7 z "},"Ŧ":{"ha":878,"x_min":-7,"x_max":885,"o":"m 568 772 l 568 590 l 661 590 q 747 565 717 590 q 776 494 776 540 q 747 422 776 447 q 661 397 717 397 l 568 397 l 568 118 q 533 27 568 61 q 439 -7 497 -7 q 345 27 381 -7 q 310 118 310 61 l 310 397 l 215 397 q 131 422 160 397 q 101 494 101 447 q 131 565 101 540 q 215 590 160 590 l 310 590 l 310 772 l 114 772 q 23 798 53 772 q -7 876 -7 824 q 23 954 -7 929 q 114 979 53 979 l 764 979 q 855 954 825 979 q 885 876 885 929 q 855 798 885 824 q 764 772 825 772 l 568 772 z "},"Ť":{"ha":878,"x_min":-7,"x_max":885,"o":"m 439 -7 q 345 27 381 -7 q 310 118 310 61 l 310 772 l 114 772 q 23 798 53 772 q -7 876 -7 824 q 23 954 -7 929 q 114 979 53 979 l 764 979 q 855 954 825 979 q 885 876 885 929 q 855 798 885 824 q 764 772 825 772 l 568 772 l 568 118 q 533 27 568 61 q 439 -7 497 -7 m 439 1056 q 360 1085 394 1056 l 254 1167 q 226 1219 226 1190 q 247 1266 226 1246 q 296 1286 268 1286 q 351 1263 326 1286 l 439 1183 l 526 1263 q 582 1286 551 1286 q 631 1266 610 1286 q 651 1219 651 1246 q 624 1167 651 1189 l 518 1085 q 439 1056 483 1056 z "},"Ţ":{"ha":878,"x_min":-7,"x_max":885,"o":"m 764 979 q 855 954 825 979 q 885 876 885 929 q 855 798 885 824 q 764 772 825 772 l 568 772 l 568 118 q 546 42 568 74 q 485 0 524 11 l 476 -57 q 506 -56 488 -56 q 578 -82 549 -56 q 608 -151 608 -108 q 557 -241 608 -207 q 411 -275 506 -275 q 311 -262 349 -275 q 282 -219 282 -253 q 294 -181 282 -197 q 326 -171 307 -165 q 404 -182 382 -182 q 461 -151 461 -182 q 431 -128 461 -128 q 403 -131 421 -128 q 374 -135 385 -135 q 352 -127 360 -135 q 346 -106 344 -119 l 361 14 q 310 118 310 50 l 310 772 l 114 772 q 23 798 53 772 q -7 876 -7 824 q 23 954 -7 929 q 114 979 53 979 l 764 979 z "},"Ț":{"ha":878,"x_min":-7,"x_max":885,"o":"m 439 -7 q 345 27 381 -7 q 310 118 310 61 l 310 772 l 114 772 q 23 798 53 772 q -7 876 -7 824 q 23 954 -7 929 q 114 979 53 979 l 764 979 q 855 954 825 979 q 885 876 885 929 q 855 798 885 824 q 764 772 825 772 l 568 772 l 568 118 q 533 27 568 61 q 439 -7 497 -7 m 436 -81 q 530 -115 494 -81 q 565 -217 565 -150 q 551 -299 565 -261 q 517 -358 536 -336 q 488 -380 504 -372 q 456 -387 472 -387 q 417 -376 433 -387 q 401 -347 401 -365 q 413 -318 401 -333 q 436 -271 426 -297 l 428 -271 q 353 -248 385 -271 q 322 -183 322 -225 q 354 -108 322 -136 q 436 -81 386 -81 z "},"Ṭ":{"ha":878,"x_min":-7,"x_max":885,"o":"m 439 -7 q 345 27 381 -7 q 310 118 310 61 l 310 772 l 114 772 q 23 798 53 772 q -7 876 -7 824 q 23 954 -7 929 q 114 979 53 979 l 764 979 q 855 954 825 979 q 885 876 885 929 q 855 798 885 824 q 764 772 825 772 l 568 772 l 568 118 q 533 27 568 61 q 439 -7 497 -7 m 439 -292 q 356 -261 388 -292 q 324 -181 324 -231 q 355 -101 324 -131 q 439 -72 386 -72 q 522 -102 490 -72 q 554 -181 554 -132 q 522 -261 554 -231 q 439 -292 490 -292 z "},"Ṯ":{"ha":878,"x_min":-7,"x_max":885,"o":"m 439 -7 q 345 27 381 -7 q 310 118 310 61 l 310 772 l 114 772 q 23 798 53 772 q -7 876 -7 824 q 23 954 -7 929 q 114 979 53 979 l 764 979 q 855 954 825 979 q 885 876 885 929 q 855 798 885 824 q 764 772 825 772 l 568 772 l 568 118 q 533 27 568 61 q 439 -7 497 -7 m 271 -251 q 216 -233 238 -251 q 194 -182 194 -214 q 216 -133 194 -151 q 271 -114 238 -114 l 607 -114 q 662 -133 640 -114 q 683 -182 683 -151 q 662 -233 683 -214 q 607 -251 640 -251 l 271 -251 z "},"U":{"ha":1035,"x_min":83,"x_max":951,"o":"m 517 -12 q 194 96 304 -12 q 83 413 83 204 l 83 861 q 117 952 83 918 q 208 986 151 986 q 299 952 265 986 q 333 861 333 918 l 333 403 q 381 240 333 297 q 517 183 428 183 q 653 240 606 183 q 700 403 700 297 l 700 861 q 734 952 700 918 q 825 986 768 986 q 917 952 882 986 q 951 861 951 918 l 951 413 q 840 97 951 206 q 517 -12 728 -12 z "},"Ú":{"ha":1035,"x_min":83,"x_max":951,"o":"m 517 -12 q 194 96 304 -12 q 83 413 83 204 l 83 861 q 117 952 83 918 q 208 986 151 986 q 299 952 265 986 q 333 861 333 918 l 333 403 q 381 240 333 297 q 517 183 428 183 q 653 240 606 183 q 700 403 700 297 l 700 861 q 734 952 700 918 q 825 986 768 986 q 917 952 882 986 q 951 861 951 918 l 951 413 q 840 97 951 206 q 517 -12 728 -12 m 543 1061 q 515 1056 531 1056 q 475 1071 492 1056 q 458 1107 458 1086 q 479 1149 458 1128 l 592 1254 q 667 1289 628 1289 q 728 1263 703 1289 q 754 1201 754 1236 q 692 1119 754 1149 l 543 1061 z "},"Ŭ":{"ha":1035,"x_min":83,"x_max":951,"o":"m 517 -12 q 194 96 304 -12 q 83 413 83 204 l 83 861 q 117 952 83 918 q 208 986 151 986 q 299 952 265 986 q 333 861 333 918 l 333 403 q 381 240 333 297 q 517 183 428 183 q 653 240 606 183 q 700 403 700 297 l 700 861 q 734 952 700 918 q 825 986 768 986 q 917 952 882 986 q 951 861 951 918 l 951 413 q 840 97 951 206 q 517 -12 728 -12 m 517 1072 q 369 1101 433 1072 q 279 1174 306 1129 q 268 1214 268 1194 q 285 1255 268 1239 q 328 1271 303 1271 q 383 1249 357 1271 q 443 1224 406 1233 q 517 1214 481 1214 q 590 1224 553 1214 q 650 1249 628 1233 q 707 1272 675 1272 q 749 1256 732 1272 q 767 1215 767 1240 q 754 1174 767 1197 q 664 1101 728 1131 q 517 1072 600 1072 z "},"Û":{"ha":1035,"x_min":83,"x_max":951,"o":"m 517 -12 q 194 96 304 -12 q 83 413 83 204 l 83 861 q 117 952 83 918 q 208 986 151 986 q 299 952 265 986 q 333 861 333 918 l 333 403 q 381 240 333 297 q 517 183 428 183 q 653 240 606 183 q 700 403 700 297 l 700 861 q 734 952 700 918 q 825 986 768 986 q 917 952 882 986 q 951 861 951 918 l 951 413 q 840 97 951 206 q 517 -12 728 -12 m 429 1081 q 374 1057 404 1057 q 324 1076 344 1057 q 303 1122 303 1096 q 332 1176 303 1153 l 438 1257 q 517 1286 472 1286 q 596 1257 561 1286 l 701 1176 q 729 1122 729 1153 q 709 1076 729 1096 q 660 1057 689 1057 q 604 1081 629 1057 l 517 1158 l 429 1081 z "},"Ȕ":{"ha":1035,"x_min":83,"x_max":951,"o":"m 517 -12 q 194 96 304 -12 q 83 413 83 204 l 83 861 q 117 952 83 918 q 208 986 151 986 q 299 952 265 986 q 333 861 333 918 l 333 403 q 381 240 333 297 q 517 183 428 183 q 653 240 606 183 q 700 403 700 297 l 700 861 q 734 952 700 918 q 825 986 768 986 q 917 952 882 986 q 951 861 951 918 l 951 413 q 840 97 951 206 q 517 -12 728 -12 m 288 1153 q 263 1206 263 1176 q 291 1262 263 1238 q 353 1286 319 1286 q 419 1239 397 1286 l 463 1135 q 468 1108 468 1122 q 453 1071 468 1086 q 417 1056 438 1056 q 372 1075 392 1056 l 288 1153 m 490 1153 q 465 1206 465 1176 q 494 1262 465 1238 q 556 1286 522 1286 q 622 1239 600 1286 l 665 1135 q 671 1108 671 1122 q 656 1071 671 1086 q 619 1056 640 1056 q 575 1075 594 1056 l 490 1153 z "},"Ü":{"ha":1035,"x_min":83,"x_max":951,"o":"m 517 -12 q 194 96 304 -12 q 83 413 83 204 l 83 861 q 117 952 83 918 q 208 986 151 986 q 299 952 265 986 q 333 861 333 918 l 333 403 q 381 240 333 297 q 517 183 428 183 q 653 240 606 183 q 700 403 700 297 l 700 861 q 734 952 700 918 q 825 986 768 986 q 917 952 882 986 q 951 861 951 918 l 951 413 q 840 97 951 206 q 517 -12 728 -12 m 379 1061 q 294 1092 326 1061 q 263 1174 263 1122 q 294 1253 263 1224 q 379 1283 326 1283 q 465 1253 432 1283 q 497 1174 497 1224 q 465 1092 497 1122 q 379 1061 432 1061 m 654 1061 q 569 1092 601 1061 q 538 1174 538 1122 q 569 1253 538 1224 q 654 1283 601 1283 q 738 1253 706 1283 q 771 1174 771 1224 q 739 1092 771 1122 q 654 1061 707 1061 z "},"Ụ":{"ha":1035,"x_min":83,"x_max":951,"o":"m 517 -12 q 194 96 304 -12 q 83 413 83 204 l 83 861 q 117 952 83 918 q 208 986 151 986 q 299 952 265 986 q 333 861 333 918 l 333 403 q 381 240 333 297 q 517 183 428 183 q 653 240 606 183 q 700 403 700 297 l 700 861 q 734 952 700 918 q 825 986 768 986 q 917 952 882 986 q 951 861 951 918 l 951 413 q 840 97 951 206 q 517 -12 728 -12 m 517 -292 q 433 -261 465 -292 q 401 -181 401 -231 q 433 -101 401 -131 q 517 -72 464 -72 q 600 -102 568 -72 q 632 -181 632 -132 q 600 -261 632 -231 q 517 -292 568 -292 z "},"Ù":{"ha":1035,"x_min":83,"x_max":951,"o":"m 517 -12 q 194 96 304 -12 q 83 413 83 204 l 83 861 q 117 952 83 918 q 208 986 151 986 q 299 952 265 986 q 333 861 333 918 l 333 403 q 381 240 333 297 q 517 183 428 183 q 653 240 606 183 q 700 403 700 297 l 700 861 q 734 952 700 918 q 825 986 768 986 q 917 952 882 986 q 951 861 951 918 l 951 413 q 840 97 951 206 q 517 -12 728 -12 m 342 1119 q 278 1201 278 1149 q 303 1261 278 1235 q 365 1288 329 1288 q 442 1254 404 1288 l 554 1149 q 574 1107 574 1129 q 557 1071 574 1086 q 518 1056 540 1056 q 490 1061 503 1056 l 342 1119 z "},"Ủ":{"ha":1035,"x_min":83,"x_max":951,"o":"m 517 -12 q 194 96 304 -12 q 83 413 83 204 l 83 861 q 117 952 83 918 q 208 986 151 986 q 299 952 265 986 q 333 861 333 918 l 333 403 q 381 240 333 297 q 517 183 428 183 q 653 240 606 183 q 700 403 700 297 l 700 861 q 734 952 700 918 q 825 986 768 986 q 917 952 882 986 q 951 861 951 918 l 951 413 q 840 97 951 206 q 517 -12 728 -12 m 576 1088 q 556 1064 571 1072 q 521 1056 540 1056 q 479 1067 497 1056 q 461 1099 461 1079 q 478 1139 461 1126 q 524 1163 494 1151 q 541 1169 533 1165 q 549 1176 549 1172 q 507 1199 549 1199 q 487 1197 496 1199 q 469 1194 478 1196 q 432 1189 442 1189 q 405 1202 415 1189 q 394 1233 394 1215 q 419 1269 394 1260 q 528 1286 465 1286 q 647 1260 603 1286 q 692 1199 692 1235 q 674 1154 692 1169 q 625 1125 657 1139 q 592 1108 604 1117 q 576 1088 581 1100 z "},"Ư":{"ha":1035,"x_min":83,"x_max":1106,"o":"m 1106 1078 q 1064 951 1106 1008 q 951 872 1022 893 l 951 413 q 840 97 951 206 q 517 -12 728 -12 q 194 96 304 -12 q 83 413 83 204 l 83 861 q 117 952 83 918 q 208 986 151 986 q 299 952 265 986 q 333 861 333 918 l 333 403 q 381 240 333 297 q 517 183 428 183 q 653 240 606 183 q 700 403 700 297 l 700 861 q 732 951 700 915 q 817 988 764 986 q 865 1005 850 989 q 886 1069 881 1021 q 1006 1200 899 1200 q 1106 1078 1106 1200 z "},"Ứ":{"ha":1035,"x_min":83,"x_max":1106,"o":"m 1106 1078 q 1064 951 1106 1008 q 951 872 1022 893 l 951 413 q 840 97 951 206 q 517 -12 728 -12 q 194 96 304 -12 q 83 413 83 204 l 83 861 q 117 952 83 918 q 208 986 151 986 q 299 952 265 986 q 333 861 333 918 l 333 403 q 381 240 333 297 q 517 183 428 183 q 653 240 606 183 q 700 403 700 297 l 700 861 q 732 951 700 915 q 817 988 764 986 q 865 1005 850 989 q 886 1069 881 1021 q 1006 1200 899 1200 q 1106 1078 1106 1200 m 543 1061 q 515 1056 531 1056 q 475 1071 492 1056 q 458 1107 458 1086 q 479 1149 458 1128 l 592 1254 q 667 1289 628 1289 q 728 1263 703 1289 q 754 1201 754 1236 q 692 1119 754 1149 l 543 1061 z "},"Ự":{"ha":1035,"x_min":83,"x_max":1106,"o":"m 1106 1078 q 1064 951 1106 1008 q 951 872 1022 893 l 951 413 q 840 97 951 206 q 517 -12 728 -12 q 194 96 304 -12 q 83 413 83 204 l 83 861 q 117 952 83 918 q 208 986 151 986 q 299 952 265 986 q 333 861 333 918 l 333 403 q 381 240 333 297 q 517 183 428 183 q 653 240 606 183 q 700 403 700 297 l 700 861 q 732 951 700 915 q 817 988 764 986 q 865 1005 850 989 q 886 1069 881 1021 q 1006 1200 899 1200 q 1106 1078 1106 1200 m 517 -292 q 433 -261 465 -292 q 401 -181 401 -231 q 433 -101 401 -131 q 517 -72 464 -72 q 600 -102 568 -72 q 632 -181 632 -132 q 600 -261 632 -231 q 517 -292 568 -292 z "},"Ừ":{"ha":1035,"x_min":83,"x_max":1106,"o":"m 1106 1078 q 1064 951 1106 1008 q 951 872 1022 893 l 951 413 q 840 97 951 206 q 517 -12 728 -12 q 194 96 304 -12 q 83 413 83 204 l 83 861 q 117 952 83 918 q 208 986 151 986 q 299 952 265 986 q 333 861 333 918 l 333 403 q 381 240 333 297 q 517 183 428 183 q 653 240 606 183 q 700 403 700 297 l 700 861 q 732 951 700 915 q 817 988 764 986 q 865 1005 850 989 q 886 1069 881 1021 q 1006 1200 899 1200 q 1106 1078 1106 1200 m 342 1119 q 278 1201 278 1149 q 303 1261 278 1235 q 365 1288 329 1288 q 442 1254 404 1288 l 554 1149 q 574 1107 574 1129 q 557 1071 574 1086 q 518 1056 540 1056 q 490 1061 503 1056 l 342 1119 z "},"Ử":{"ha":1035,"x_min":83,"x_max":1106,"o":"m 1106 1078 q 1064 951 1106 1008 q 951 872 1022 893 l 951 413 q 840 97 951 206 q 517 -12 728 -12 q 194 96 304 -12 q 83 413 83 204 l 83 861 q 117 952 83 918 q 208 986 151 986 q 299 952 265 986 q 333 861 333 918 l 333 403 q 381 240 333 297 q 517 183 428 183 q 653 240 606 183 q 700 403 700 297 l 700 861 q 732 951 700 915 q 817 988 764 986 q 865 1005 850 989 q 886 1069 881 1021 q 1006 1200 899 1200 q 1106 1078 1106 1200 m 576 1088 q 556 1064 571 1072 q 521 1056 540 1056 q 479 1067 497 1056 q 461 1099 461 1079 q 478 1139 461 1126 q 524 1163 494 1151 q 541 1169 533 1165 q 549 1176 549 1172 q 507 1199 549 1199 q 487 1197 496 1199 q 469 1194 478 1196 q 432 1189 442 1189 q 405 1202 415 1189 q 394 1233 394 1215 q 419 1269 394 1260 q 528 1286 465 1286 q 647 1260 603 1286 q 692 1199 692 1235 q 674 1154 692 1169 q 625 1125 657 1139 q 592 1108 604 1117 q 576 1088 581 1100 z "},"Ữ":{"ha":1035,"x_min":83,"x_max":1106,"o":"m 1106 1078 q 1064 951 1106 1008 q 951 872 1022 893 l 951 413 q 840 97 951 206 q 517 -12 728 -12 q 194 96 304 -12 q 83 413 83 204 l 83 861 q 117 952 83 918 q 208 986 151 986 q 299 952 265 986 q 333 861 333 918 l 333 403 q 381 240 333 297 q 517 183 428 183 q 653 240 606 183 q 700 403 700 297 l 700 861 q 732 951 700 915 q 817 988 764 986 q 865 1005 850 989 q 886 1069 881 1021 q 1006 1200 899 1200 q 1106 1078 1106 1200 m 622 1079 q 517 1097 581 1079 q 413 1114 447 1114 q 392 1110 400 1114 q 371 1096 383 1106 q 321 1074 349 1074 q 285 1088 299 1074 q 272 1128 272 1103 q 290 1191 272 1158 q 340 1245 308 1224 q 411 1267 372 1267 q 517 1249 453 1267 q 621 1232 586 1232 q 663 1250 642 1232 q 713 1271 686 1271 q 749 1257 736 1271 q 761 1218 761 1243 q 742 1155 761 1188 q 692 1101 724 1122 q 622 1079 660 1079 z "},"Ű":{"ha":1035,"x_min":83,"x_max":951,"o":"m 517 -12 q 194 96 304 -12 q 83 413 83 204 l 83 861 q 117 952 83 918 q 208 986 151 986 q 299 952 265 986 q 333 861 333 918 l 333 403 q 381 240 333 297 q 517 183 428 183 q 653 240 606 183 q 700 403 700 297 l 700 861 q 734 952 700 918 q 825 986 768 986 q 917 952 882 986 q 951 861 951 918 l 951 413 q 840 97 951 206 q 517 -12 728 -12 m 458 1075 q 414 1056 439 1056 q 378 1070 393 1056 q 363 1107 363 1085 q 368 1135 363 1122 l 411 1239 q 478 1286 433 1286 q 540 1262 511 1286 q 568 1206 568 1238 q 543 1153 568 1176 l 458 1075 m 661 1075 q 617 1056 642 1056 q 581 1070 596 1056 q 565 1107 565 1085 q 571 1135 565 1122 l 614 1239 q 681 1286 636 1286 q 742 1262 714 1286 q 771 1206 771 1238 q 746 1153 771 1176 l 661 1075 z "},"Ȗ":{"ha":1035,"x_min":83,"x_max":951,"o":"m 517 -12 q 194 96 304 -12 q 83 413 83 204 l 83 861 q 117 952 83 918 q 208 986 151 986 q 299 952 265 986 q 333 861 333 918 l 333 403 q 381 240 333 297 q 517 183 428 183 q 653 240 606 183 q 700 403 700 297 l 700 861 q 734 952 700 918 q 825 986 768 986 q 917 952 882 986 q 951 861 951 918 l 951 413 q 840 97 951 206 q 517 -12 728 -12 m 383 1094 q 326 1071 358 1071 q 284 1087 301 1071 q 267 1128 267 1103 q 279 1169 267 1147 q 369 1242 306 1213 q 517 1271 433 1271 q 665 1242 601 1271 q 754 1169 728 1214 q 765 1129 765 1149 q 748 1088 765 1104 q 706 1072 731 1072 q 650 1094 676 1072 q 591 1119 628 1110 q 517 1129 554 1129 q 442 1119 479 1129 q 383 1094 406 1110 z "},"Ū":{"ha":1035,"x_min":83,"x_max":951,"o":"m 517 -12 q 194 96 304 -12 q 83 413 83 204 l 83 861 q 117 952 83 918 q 208 986 151 986 q 299 952 265 986 q 333 861 333 918 l 333 403 q 381 240 333 297 q 517 183 428 183 q 653 240 606 183 q 700 403 700 297 l 700 861 q 734 952 700 918 q 825 986 768 986 q 917 952 882 986 q 951 861 951 918 l 951 413 q 840 97 951 206 q 517 -12 728 -12 m 349 1097 q 294 1117 315 1097 q 272 1171 272 1136 q 294 1226 272 1206 q 349 1246 315 1246 l 685 1246 q 740 1226 718 1246 q 761 1171 761 1206 q 740 1117 761 1136 q 685 1097 718 1097 l 349 1097 z "},"Ṻ":{"ha":1035,"x_min":83,"x_max":951,"o":"m 517 -12 q 194 96 304 -12 q 83 413 83 204 l 83 861 q 117 952 83 918 q 208 986 151 986 q 299 952 265 986 q 333 861 333 918 l 333 403 q 381 240 333 297 q 517 183 428 183 q 653 240 606 183 q 700 403 700 297 l 700 861 q 734 952 700 918 q 825 986 768 986 q 917 952 882 986 q 951 861 951 918 l 951 413 q 840 97 951 206 q 517 -12 728 -12 m 349 1097 q 294 1117 315 1097 q 272 1171 272 1136 q 294 1226 272 1206 q 349 1246 315 1246 l 685 1246 q 740 1226 718 1246 q 761 1171 761 1206 q 740 1117 761 1136 q 685 1097 718 1097 l 349 1097 m 379 1283 q 294 1314 326 1283 q 263 1396 263 1344 q 294 1476 263 1446 q 379 1506 326 1506 q 465 1476 432 1506 q 497 1396 497 1446 q 465 1314 497 1344 q 379 1283 432 1283 m 654 1283 q 569 1314 601 1283 q 538 1396 538 1344 q 569 1476 538 1446 q 654 1506 601 1506 q 738 1476 706 1506 q 771 1396 771 1446 q 739 1314 771 1344 q 654 1283 707 1283 z "},"Ų":{"ha":1035,"x_min":83,"x_max":951,"o":"m 825 986 q 917 952 882 986 q 951 861 951 918 l 951 413 q 881 147 951 251 q 679 8 811 43 q 621 -26 642 -1 q 600 -83 600 -50 q 619 -133 600 -114 q 668 -153 638 -153 q 735 -143 703 -153 q 746 -142 739 -142 q 776 -157 764 -142 q 788 -192 788 -172 q 760 -242 788 -226 q 631 -275 704 -275 q 500 -231 551 -275 q 449 -121 449 -187 q 460 -63 449 -92 q 492 -12 471 -35 q 187 103 290 -6 q 83 413 83 211 l 83 861 q 117 952 83 918 q 208 986 151 986 q 299 952 265 986 q 333 861 333 918 l 333 403 q 381 240 333 297 q 517 183 428 183 q 653 240 606 183 q 700 403 700 297 l 700 861 q 734 952 700 918 q 825 986 768 986 z "},"Ů":{"ha":1035,"x_min":83,"x_max":951,"o":"m 517 -12 q 194 96 304 -12 q 83 413 83 204 l 83 861 q 117 952 83 918 q 208 986 151 986 q 299 952 265 986 q 333 861 333 918 l 333 403 q 381 240 333 297 q 517 183 428 183 q 653 240 606 183 q 700 403 700 297 l 700 861 q 734 952 700 918 q 825 986 768 986 q 917 952 882 986 q 951 861 951 918 l 951 413 q 840 97 951 206 q 517 -12 728 -12 m 517 1056 q 406 1100 451 1056 q 360 1210 360 1144 q 406 1318 360 1274 q 517 1363 451 1363 q 628 1318 582 1363 q 674 1210 674 1274 q 628 1100 674 1144 q 517 1056 582 1056 m 517 1149 q 558 1166 542 1149 q 574 1210 574 1183 q 558 1252 574 1235 q 517 1269 542 1269 q 476 1252 492 1269 q 460 1210 460 1235 q 476 1166 460 1183 q 517 1149 492 1149 z "},"Ũ":{"ha":1035,"x_min":83,"x_max":951,"o":"m 517 -12 q 194 96 304 -12 q 83 413 83 204 l 83 861 q 117 952 83 918 q 208 986 151 986 q 299 952 265 986 q 333 861 333 918 l 333 403 q 381 240 333 297 q 517 183 428 183 q 653 240 606 183 q 700 403 700 297 l 700 861 q 734 952 700 918 q 825 986 768 986 q 917 952 882 986 q 951 861 951 918 l 951 413 q 840 97 951 206 q 517 -12 728 -12 m 622 1079 q 517 1097 581 1079 q 413 1114 447 1114 q 392 1110 400 1114 q 371 1096 383 1106 q 321 1074 349 1074 q 285 1088 299 1074 q 272 1128 272 1103 q 290 1191 272 1158 q 340 1245 308 1224 q 411 1267 372 1267 q 517 1249 453 1267 q 621 1232 586 1232 q 663 1250 642 1232 q 713 1271 686 1271 q 749 1257 736 1271 q 761 1218 761 1243 q 742 1155 761 1188 q 692 1101 724 1122 q 622 1079 660 1079 z "},"Ṹ":{"ha":1035,"x_min":83,"x_max":951,"o":"m 517 -12 q 194 96 304 -12 q 83 413 83 204 l 83 861 q 117 952 83 918 q 208 986 151 986 q 299 952 265 986 q 333 861 333 918 l 333 403 q 381 240 333 297 q 517 183 428 183 q 653 240 606 183 q 700 403 700 297 l 700 861 q 734 952 700 918 q 825 986 768 986 q 917 952 882 986 q 951 861 951 918 l 951 413 q 840 97 951 206 q 517 -12 728 -12 m 622 1079 q 517 1097 581 1079 q 413 1114 447 1114 q 392 1110 400 1114 q 371 1096 383 1106 q 321 1074 349 1074 q 285 1088 299 1074 q 272 1128 272 1103 q 290 1191 272 1158 q 340 1245 308 1224 q 411 1267 372 1267 q 517 1249 453 1267 q 621 1232 586 1232 q 663 1250 642 1232 q 713 1271 686 1271 q 749 1257 736 1271 q 761 1218 761 1243 q 742 1155 761 1188 q 692 1101 724 1122 q 622 1079 660 1079 m 543 1283 q 515 1278 531 1278 q 475 1293 492 1278 q 458 1329 458 1308 q 479 1371 458 1350 l 592 1476 q 667 1511 628 1511 q 728 1485 703 1511 q 754 1424 754 1458 q 692 1342 754 1371 l 543 1283 z "},"V":{"ha":1032,"x_min":6,"x_max":1026,"o":"m 792 919 q 835 969 807 953 q 896 986 863 986 q 986 954 946 986 q 1026 874 1026 922 q 1014 825 1026 850 l 647 68 q 593 10 629 31 q 515 -10 557 -10 q 438 10 474 -10 q 383 68 401 31 l 17 825 q 6 874 6 847 q 47 953 6 921 q 140 986 89 986 q 202 969 174 986 q 246 919 231 953 l 519 328 l 792 919 z "},"W":{"ha":1557,"x_min":42,"x_max":1515,"o":"m 1288 908 q 1333 968 1301 947 q 1401 989 1364 989 q 1481 960 1447 989 q 1515 881 1515 931 q 1504 825 1515 858 l 1225 69 q 1174 9 1211 31 q 1093 -12 1138 -12 q 1013 9 1049 -12 q 963 69 976 31 l 782 585 l 593 69 q 542 9 578 31 q 463 -12 506 -12 q 382 9 418 -12 q 332 69 346 31 l 51 825 q 42 878 42 853 q 78 959 42 929 q 164 989 115 989 q 235 969 203 989 q 282 908 268 949 l 472 361 l 674 908 q 719 968 688 947 q 788 989 750 989 q 856 968 825 989 q 900 907 886 947 l 1089 349 l 1288 908 z "},"Ẃ":{"ha":1557,"x_min":42,"x_max":1515,"o":"m 1288 908 q 1333 968 1301 947 q 1401 989 1364 989 q 1481 960 1447 989 q 1515 881 1515 931 q 1504 825 1515 858 l 1225 69 q 1174 9 1211 31 q 1093 -12 1138 -12 q 1013 9 1049 -12 q 963 69 976 31 l 782 585 l 593 69 q 542 9 578 31 q 463 -12 506 -12 q 382 9 418 -12 q 332 69 346 31 l 51 825 q 42 878 42 853 q 78 959 42 929 q 164 989 115 989 q 235 969 203 989 q 282 908 268 949 l 472 361 l 674 908 q 719 968 688 947 q 788 989 750 989 q 856 968 825 989 q 900 907 886 947 l 1089 349 l 1288 908 m 804 1061 q 776 1056 792 1056 q 736 1071 753 1056 q 719 1107 719 1086 q 740 1149 719 1128 l 853 1254 q 928 1289 889 1289 q 990 1263 964 1289 q 1015 1201 1015 1236 q 953 1119 1015 1149 l 804 1061 z "},"Ŵ":{"ha":1557,"x_min":42,"x_max":1515,"o":"m 1288 908 q 1333 968 1301 947 q 1401 989 1364 989 q 1481 960 1447 989 q 1515 881 1515 931 q 1504 825 1515 858 l 1225 69 q 1174 9 1211 31 q 1093 -12 1138 -12 q 1013 9 1049 -12 q 963 69 976 31 l 782 585 l 593 69 q 542 9 578 31 q 463 -12 506 -12 q 382 9 418 -12 q 332 69 346 31 l 51 825 q 42 878 42 853 q 78 959 42 929 q 164 989 115 989 q 235 969 203 989 q 282 908 268 949 l 472 361 l 674 908 q 719 968 688 947 q 788 989 750 989 q 856 968 825 989 q 900 907 886 947 l 1089 349 l 1288 908 m 690 1081 q 635 1057 665 1057 q 585 1076 606 1057 q 564 1122 564 1096 q 593 1176 564 1153 l 699 1257 q 778 1286 733 1286 q 857 1257 822 1286 l 963 1176 q 990 1122 990 1153 q 970 1076 990 1096 q 921 1057 950 1057 q 865 1081 890 1057 l 778 1158 l 690 1081 z "},"Ẅ":{"ha":1557,"x_min":42,"x_max":1515,"o":"m 1288 908 q 1333 968 1301 947 q 1401 989 1364 989 q 1481 960 1447 989 q 1515 881 1515 931 q 1504 825 1515 858 l 1225 69 q 1174 9 1211 31 q 1093 -12 1138 -12 q 1013 9 1049 -12 q 963 69 976 31 l 782 585 l 593 69 q 542 9 578 31 q 463 -12 506 -12 q 382 9 418 -12 q 332 69 346 31 l 51 825 q 42 878 42 853 q 78 959 42 929 q 164 989 115 989 q 235 969 203 989 q 282 908 268 949 l 472 361 l 674 908 q 719 968 688 947 q 788 989 750 989 q 856 968 825 989 q 900 907 886 947 l 1089 349 l 1288 908 m 640 1061 q 556 1092 588 1061 q 524 1174 524 1122 q 556 1253 524 1224 q 640 1283 588 1283 q 726 1253 693 1283 q 758 1174 758 1224 q 726 1092 758 1122 q 640 1061 693 1061 m 915 1061 q 831 1092 863 1061 q 799 1174 799 1122 q 831 1253 799 1224 q 915 1283 863 1283 q 999 1253 967 1283 q 1032 1174 1032 1224 q 1000 1092 1032 1122 q 915 1061 968 1061 z "},"Ẁ":{"ha":1557,"x_min":42,"x_max":1515,"o":"m 1288 908 q 1333 968 1301 947 q 1401 989 1364 989 q 1481 960 1447 989 q 1515 881 1515 931 q 1504 825 1515 858 l 1225 69 q 1174 9 1211 31 q 1093 -12 1138 -12 q 1013 9 1049 -12 q 963 69 976 31 l 782 585 l 593 69 q 542 9 578 31 q 463 -12 506 -12 q 382 9 418 -12 q 332 69 346 31 l 51 825 q 42 878 42 853 q 78 959 42 929 q 164 989 115 989 q 235 969 203 989 q 282 908 268 949 l 472 361 l 674 908 q 719 968 688 947 q 788 989 750 989 q 856 968 825 989 q 900 907 886 947 l 1089 349 l 1288 908 m 603 1119 q 539 1201 539 1149 q 565 1261 539 1235 q 626 1288 590 1288 q 703 1254 665 1288 l 815 1149 q 835 1107 835 1129 q 818 1071 835 1086 q 779 1056 801 1056 q 751 1061 764 1056 l 603 1119 z "},"X":{"ha":953,"x_min":32,"x_max":921,"o":"m 890 185 q 921 108 921 150 q 884 26 921 61 q 801 -10 847 -10 q 717 32 753 -10 l 478 318 l 235 32 q 151 -10 199 -10 q 69 26 106 -10 q 32 110 32 63 q 61 185 32 150 l 328 493 l 68 794 q 38 869 38 831 q 74 952 38 917 q 158 988 111 988 q 243 946 207 988 l 478 668 l 711 946 q 793 988 744 988 q 877 952 840 988 q 914 869 914 917 q 885 794 914 829 l 625 493 l 890 185 z "},"Y":{"ha":903,"x_min":3,"x_max":901,"o":"m 697 946 q 782 988 733 988 q 865 952 828 988 q 901 871 901 917 q 871 794 901 831 l 579 457 l 579 118 q 544 24 579 57 q 453 -8 508 -8 q 360 24 396 -8 q 324 118 324 57 l 324 457 l 35 794 q 3 872 3 831 q 39 953 3 918 q 121 988 75 988 q 206 946 169 988 l 451 654 l 697 946 z "},"Ý":{"ha":903,"x_min":3,"x_max":901,"o":"m 697 946 q 782 988 733 988 q 865 952 828 988 q 901 871 901 917 q 871 794 901 831 l 579 457 l 579 118 q 544 24 579 57 q 453 -8 508 -8 q 360 24 396 -8 q 324 118 324 57 l 324 457 l 35 794 q 3 872 3 831 q 39 953 3 918 q 121 988 75 988 q 206 946 169 988 l 451 654 l 697 946 m 478 1061 q 450 1056 465 1056 q 410 1071 426 1056 q 393 1107 393 1086 q 414 1149 393 1128 l 526 1254 q 601 1289 563 1289 q 663 1263 638 1289 q 689 1201 689 1236 q 626 1119 689 1149 l 478 1061 z "},"Ŷ":{"ha":903,"x_min":3,"x_max":901,"o":"m 697 946 q 782 988 733 988 q 865 952 828 988 q 901 871 901 917 q 871 794 901 831 l 579 457 l 579 118 q 544 24 579 57 q 453 -8 508 -8 q 360 24 396 -8 q 324 118 324 57 l 324 457 l 35 794 q 3 872 3 831 q 39 953 3 918 q 121 988 75 988 q 206 946 169 988 l 451 654 l 697 946 m 364 1081 q 308 1057 339 1057 q 258 1076 279 1057 q 238 1122 238 1096 q 267 1176 238 1153 l 372 1257 q 451 1286 407 1286 q 531 1257 496 1286 l 636 1176 q 664 1122 664 1153 q 644 1076 664 1096 q 594 1057 624 1057 q 539 1081 564 1057 l 451 1158 l 364 1081 z "},"Ÿ":{"ha":903,"x_min":3,"x_max":901,"o":"m 697 946 q 782 988 733 988 q 865 952 828 988 q 901 871 901 917 q 871 794 901 831 l 579 457 l 579 118 q 544 24 579 57 q 453 -8 508 -8 q 360 24 396 -8 q 324 118 324 57 l 324 457 l 35 794 q 3 872 3 831 q 39 953 3 918 q 121 988 75 988 q 206 946 169 988 l 451 654 l 697 946 m 314 1061 q 229 1092 261 1061 q 197 1174 197 1122 q 229 1253 197 1224 q 314 1283 261 1283 q 399 1253 367 1283 q 432 1174 432 1224 q 399 1092 432 1122 q 314 1061 367 1061 m 589 1061 q 504 1092 536 1061 q 472 1174 472 1122 q 504 1253 472 1224 q 589 1283 536 1283 q 673 1253 640 1283 q 706 1174 706 1224 q 674 1092 706 1122 q 589 1061 642 1061 z "},"Ẏ":{"ha":903,"x_min":3,"x_max":901,"o":"m 697 946 q 782 988 733 988 q 865 952 828 988 q 901 871 901 917 q 871 794 901 831 l 579 457 l 579 118 q 544 24 579 57 q 453 -8 508 -8 q 360 24 396 -8 q 324 118 324 57 l 324 457 l 35 794 q 3 872 3 831 q 39 953 3 918 q 121 988 75 988 q 206 946 169 988 l 451 654 l 697 946 m 451 1054 q 352 1087 389 1054 q 315 1174 315 1119 q 352 1258 315 1226 q 451 1290 389 1290 q 550 1258 513 1290 q 588 1174 588 1226 q 551 1087 588 1119 q 451 1054 514 1054 z "},"Ỵ":{"ha":903,"x_min":3,"x_max":901,"o":"m 697 946 q 782 988 733 988 q 865 952 828 988 q 901 871 901 917 q 871 794 901 831 l 579 457 l 579 118 q 544 24 579 57 q 453 -8 508 -8 q 360 24 396 -8 q 324 118 324 57 l 324 457 l 35 794 q 3 872 3 831 q 39 953 3 918 q 121 988 75 988 q 206 946 169 988 l 451 654 l 697 946 m 453 -292 q 369 -261 401 -292 q 338 -181 338 -231 q 369 -101 338 -131 q 453 -72 400 -72 q 536 -102 504 -72 q 568 -181 568 -132 q 536 -261 568 -231 q 453 -292 504 -292 z "},"Ỳ":{"ha":903,"x_min":3,"x_max":901,"o":"m 697 946 q 782 988 733 988 q 865 952 828 988 q 901 871 901 917 q 871 794 901 831 l 579 457 l 579 118 q 544 24 579 57 q 453 -8 508 -8 q 360 24 396 -8 q 324 118 324 57 l 324 457 l 35 794 q 3 872 3 831 q 39 953 3 918 q 121 988 75 988 q 206 946 169 988 l 451 654 l 697 946 m 276 1119 q 213 1201 213 1149 q 238 1261 213 1235 q 300 1288 264 1288 q 376 1254 339 1288 l 489 1149 q 508 1107 508 1129 q 492 1071 508 1086 q 453 1056 475 1056 q 425 1061 438 1056 l 276 1119 z "},"Ỷ":{"ha":903,"x_min":3,"x_max":901,"o":"m 697 946 q 782 988 733 988 q 865 952 828 988 q 901 871 901 917 q 871 794 901 831 l 579 457 l 579 118 q 544 24 579 57 q 453 -8 508 -8 q 360 24 396 -8 q 324 118 324 57 l 324 457 l 35 794 q 3 872 3 831 q 39 953 3 918 q 121 988 75 988 q 206 946 169 988 l 451 654 l 697 946 m 511 1088 q 490 1064 506 1072 q 456 1056 475 1056 q 414 1067 432 1056 q 396 1099 396 1079 q 413 1139 396 1126 q 458 1163 429 1151 q 476 1169 468 1165 q 483 1176 483 1172 q 442 1199 483 1199 q 422 1197 431 1199 q 404 1194 413 1196 q 367 1189 376 1189 q 340 1202 350 1189 q 329 1233 329 1215 q 354 1269 329 1260 q 463 1286 400 1286 q 582 1260 538 1286 q 626 1199 626 1235 q 609 1154 626 1169 q 560 1125 592 1139 q 527 1108 539 1117 q 511 1088 515 1100 z "},"Ȳ":{"ha":903,"x_min":3,"x_max":901,"o":"m 697 946 q 782 988 733 988 q 865 952 828 988 q 901 871 901 917 q 871 794 901 831 l 579 457 l 579 118 q 544 24 579 57 q 453 -8 508 -8 q 360 24 396 -8 q 324 118 324 57 l 324 457 l 35 794 q 3 872 3 831 q 39 953 3 918 q 121 988 75 988 q 206 946 169 988 l 451 654 l 697 946 m 283 1097 q 228 1117 250 1097 q 207 1171 207 1136 q 228 1226 207 1206 q 283 1246 250 1246 l 619 1246 q 674 1226 653 1246 q 696 1171 696 1206 q 674 1117 696 1136 q 619 1097 653 1097 l 283 1097 z "},"Ỹ":{"ha":903,"x_min":3,"x_max":901,"o":"m 697 946 q 782 988 733 988 q 865 952 828 988 q 901 871 901 917 q 871 794 901 831 l 579 457 l 579 118 q 544 24 579 57 q 453 -8 508 -8 q 360 24 396 -8 q 324 118 324 57 l 324 457 l 35 794 q 3 872 3 831 q 39 953 3 918 q 121 988 75 988 q 206 946 169 988 l 451 654 l 697 946 m 557 1079 q 451 1097 515 1079 q 347 1114 382 1114 q 326 1110 335 1114 q 306 1096 318 1106 q 256 1074 283 1074 q 220 1088 233 1074 q 207 1128 207 1103 q 225 1191 207 1158 q 275 1245 243 1224 q 346 1267 307 1267 q 451 1249 388 1267 q 556 1232 521 1232 q 597 1250 576 1232 q 647 1271 621 1271 q 683 1257 671 1271 q 696 1218 696 1243 q 677 1155 696 1188 q 626 1101 658 1122 q 557 1079 594 1079 z "},"Z":{"ha":857,"x_min":47,"x_max":835,"o":"m 714 200 q 805 176 775 200 q 835 101 835 153 q 806 24 835 49 q 714 0 776 0 l 158 0 q 77 31 107 0 q 47 107 47 61 q 79 197 47 153 l 507 779 l 171 779 q 78 803 108 779 q 49 878 49 828 q 78 955 49 931 q 171 979 108 979 l 704 979 q 784 949 754 979 q 814 874 814 919 q 782 782 814 826 l 354 200 l 714 200 z "},"Ź":{"ha":857,"x_min":47,"x_max":835,"o":"m 714 200 q 805 176 775 200 q 835 101 835 153 q 806 24 835 49 q 714 0 776 0 l 158 0 q 77 31 107 0 q 47 107 47 61 q 79 197 47 153 l 507 779 l 171 779 q 78 803 108 779 q 49 878 49 828 q 78 955 49 931 q 171 979 108 979 l 704 979 q 784 949 754 979 q 814 874 814 919 q 782 782 814 826 l 354 200 l 714 200 m 458 1061 q 431 1056 446 1056 q 390 1071 407 1056 q 374 1107 374 1086 q 394 1149 374 1128 l 507 1254 q 582 1289 543 1289 q 644 1263 618 1289 q 669 1201 669 1236 q 607 1119 669 1149 l 458 1061 z "},"Ž":{"ha":857,"x_min":47,"x_max":835,"o":"m 714 200 q 805 176 775 200 q 835 101 835 153 q 806 24 835 49 q 714 0 776 0 l 158 0 q 77 31 107 0 q 47 107 47 61 q 79 197 47 153 l 507 779 l 171 779 q 78 803 108 779 q 49 878 49 828 q 78 955 49 931 q 171 979 108 979 l 704 979 q 784 949 754 979 q 814 874 814 919 q 782 782 814 826 l 354 200 l 714 200 m 432 1056 q 353 1085 388 1056 l 247 1167 q 219 1219 219 1190 q 240 1266 219 1246 q 289 1286 261 1286 q 344 1263 319 1286 l 432 1183 l 519 1263 q 575 1286 544 1286 q 624 1266 603 1286 q 644 1219 644 1246 q 617 1167 644 1189 l 511 1085 q 432 1056 476 1056 z "},"Ż":{"ha":857,"x_min":47,"x_max":835,"o":"m 714 200 q 805 176 775 200 q 835 101 835 153 q 806 24 835 49 q 714 0 776 0 l 158 0 q 77 31 107 0 q 47 107 47 61 q 79 197 47 153 l 507 779 l 171 779 q 78 803 108 779 q 49 878 49 828 q 78 955 49 931 q 171 979 108 979 l 704 979 q 784 949 754 979 q 814 874 814 919 q 782 782 814 826 l 354 200 l 714 200 m 432 1054 q 333 1087 369 1054 q 296 1174 296 1119 q 333 1258 296 1226 q 432 1290 369 1290 q 531 1258 493 1290 q 568 1174 568 1226 q 531 1087 568 1119 q 432 1054 494 1054 z "},"Ẓ":{"ha":857,"x_min":47,"x_max":835,"o":"m 714 200 q 805 176 775 200 q 835 101 835 153 q 806 24 835 49 q 714 0 776 0 l 158 0 q 77 31 107 0 q 47 107 47 61 q 79 197 47 153 l 507 779 l 171 779 q 78 803 108 779 q 49 878 49 828 q 78 955 49 931 q 171 979 108 979 l 704 979 q 784 949 754 979 q 814 874 814 919 q 782 782 814 826 l 354 200 l 714 200 m 422 -292 q 339 -261 371 -292 q 307 -181 307 -231 q 338 -101 307 -131 q 422 -72 369 -72 q 506 -102 474 -72 q 538 -181 538 -132 q 506 -261 538 -231 q 422 -292 474 -292 z "},"a":{"ha":767,"x_min":43,"x_max":700,"o":"m 390 700 q 624 624 549 700 q 700 394 700 549 l 700 104 q 669 22 700 51 q 582 -8 638 -8 q 502 19 533 -8 q 468 94 471 47 q 403 17 449 44 q 293 -11 357 -11 q 165 17 222 -11 q 76 97 108 46 q 43 211 43 147 q 81 328 43 285 q 203 392 119 372 q 428 411 286 411 l 465 411 l 465 428 q 443 498 465 476 q 368 519 421 519 q 201 481 311 519 q 147 469 169 469 q 92 494 113 469 q 71 560 71 519 q 83 610 71 590 q 124 644 96 629 q 246 685 172 669 q 390 700 319 700 m 351 154 q 433 190 401 154 q 465 281 465 225 l 465 297 l 443 297 q 317 281 354 297 q 279 228 279 265 q 299 175 279 196 q 351 154 319 154 z "},"á":{"ha":767,"x_min":43,"x_max":700,"o":"m 390 700 q 624 624 549 700 q 700 394 700 549 l 700 104 q 669 22 700 51 q 582 -8 638 -8 q 502 19 533 -8 q 468 94 471 47 q 403 17 449 44 q 293 -11 357 -11 q 165 17 222 -11 q 76 97 108 46 q 43 211 43 147 q 81 328 43 285 q 203 392 119 372 q 428 411 286 411 l 465 411 l 465 428 q 443 498 465 476 q 368 519 421 519 q 201 481 311 519 q 147 469 169 469 q 92 494 113 469 q 71 560 71 519 q 83 610 71 590 q 124 644 96 629 q 246 685 172 669 q 390 700 319 700 m 351 154 q 433 190 401 154 q 465 281 465 225 l 465 297 l 443 297 q 317 281 354 297 q 279 228 279 265 q 299 175 279 196 q 351 154 319 154 m 438 779 q 396 765 418 765 q 351 783 369 765 q 333 825 333 801 q 349 867 333 847 l 451 1008 q 495 1048 471 1035 q 544 1061 519 1061 q 615 1033 585 1061 q 646 965 646 1004 q 594 882 646 917 l 438 779 z "},"ă":{"ha":767,"x_min":43,"x_max":700,"o":"m 390 700 q 624 624 549 700 q 700 394 700 549 l 700 104 q 669 22 700 51 q 582 -8 638 -8 q 502 19 533 -8 q 468 94 471 47 q 403 17 449 44 q 293 -11 357 -11 q 165 17 222 -11 q 76 97 108 46 q 43 211 43 147 q 81 328 43 285 q 203 392 119 372 q 428 411 286 411 l 465 411 l 465 428 q 443 498 465 476 q 368 519 421 519 q 201 481 311 519 q 147 469 169 469 q 92 494 113 469 q 71 560 71 519 q 83 610 71 590 q 124 644 96 629 q 246 685 172 669 q 390 700 319 700 m 351 154 q 433 190 401 154 q 465 281 465 225 l 465 297 l 443 297 q 317 281 354 297 q 279 228 279 265 q 299 175 279 196 q 351 154 319 154 m 390 792 q 235 838 306 792 q 140 953 165 883 q 136 979 136 968 q 156 1025 136 1007 q 201 1043 175 1043 q 258 1011 236 1043 q 390 946 306 946 q 522 1011 475 946 q 579 1043 544 1043 q 625 1025 606 1043 q 644 979 644 1007 q 640 953 644 968 q 545 838 615 883 q 390 792 475 792 z "},"ắ":{"ha":767,"x_min":43,"x_max":700,"o":"m 390 700 q 624 624 549 700 q 700 394 700 549 l 700 104 q 669 22 700 51 q 582 -8 638 -8 q 502 19 533 -8 q 468 94 471 47 q 403 17 449 44 q 293 -11 357 -11 q 165 17 222 -11 q 76 97 108 46 q 43 211 43 147 q 81 328 43 285 q 203 392 119 372 q 428 411 286 411 l 465 411 l 465 428 q 443 498 465 476 q 368 519 421 519 q 201 481 311 519 q 147 469 169 469 q 92 494 113 469 q 71 560 71 519 q 83 610 71 590 q 124 644 96 629 q 246 685 172 669 q 390 700 319 700 m 351 154 q 433 190 401 154 q 465 281 465 225 l 465 297 l 443 297 q 317 281 354 297 q 279 228 279 265 q 299 175 279 196 q 351 154 319 154 m 408 919 q 386 915 399 915 q 350 929 365 915 q 335 964 335 943 q 363 1014 335 990 l 467 1096 q 535 1125 501 1125 q 588 1103 567 1125 q 608 1050 608 1081 q 554 978 608 1001 l 408 919 m 390 765 q 243 794 307 765 q 153 867 179 822 q 140 911 140 892 q 153 947 140 933 q 188 960 167 960 q 240 939 215 960 q 390 883 318 883 q 540 939 463 883 q 592 960 565 960 q 626 946 613 960 q 640 910 640 932 q 628 867 640 890 q 538 794 601 824 q 390 765 474 765 z "},"ặ":{"ha":767,"x_min":43,"x_max":700,"o":"m 390 700 q 624 624 549 700 q 700 394 700 549 l 700 104 q 669 22 700 51 q 582 -8 638 -8 q 502 19 533 -8 q 468 94 471 47 q 403 17 449 44 q 293 -11 357 -11 q 165 17 222 -11 q 76 97 108 46 q 43 211 43 147 q 81 328 43 285 q 203 392 119 372 q 428 411 286 411 l 465 411 l 465 428 q 443 498 465 476 q 368 519 421 519 q 201 481 311 519 q 147 469 169 469 q 92 494 113 469 q 71 560 71 519 q 83 610 71 590 q 124 644 96 629 q 246 685 172 669 q 390 700 319 700 m 351 154 q 433 190 401 154 q 465 281 465 225 l 465 297 l 443 297 q 317 281 354 297 q 279 228 279 265 q 299 175 279 196 q 351 154 319 154 m 383 -292 q 300 -261 332 -292 q 268 -181 268 -231 q 299 -101 268 -131 q 383 -72 331 -72 q 467 -102 435 -72 q 499 -181 499 -132 q 467 -261 499 -231 q 383 -292 435 -292 m 390 792 q 235 838 306 792 q 140 953 165 883 q 136 979 136 968 q 156 1025 136 1007 q 201 1043 175 1043 q 258 1011 236 1043 q 390 946 306 946 q 522 1011 475 946 q 579 1043 544 1043 q 625 1025 606 1043 q 644 979 644 1007 q 640 953 644 968 q 545 838 615 883 q 390 792 475 792 z "},"ằ":{"ha":767,"x_min":43,"x_max":700,"o":"m 390 700 q 624 624 549 700 q 700 394 700 549 l 700 104 q 669 22 700 51 q 582 -8 638 -8 q 502 19 533 -8 q 468 94 471 47 q 403 17 449 44 q 293 -11 357 -11 q 165 17 222 -11 q 76 97 108 46 q 43 211 43 147 q 81 328 43 285 q 203 392 119 372 q 428 411 286 411 l 465 411 l 465 428 q 443 498 465 476 q 368 519 421 519 q 201 481 311 519 q 147 469 169 469 q 92 494 113 469 q 71 560 71 519 q 83 610 71 590 q 124 644 96 629 q 246 685 172 669 q 390 700 319 700 m 351 154 q 433 190 401 154 q 465 281 465 225 l 465 297 l 443 297 q 317 281 354 297 q 279 228 279 265 q 299 175 279 196 q 351 154 319 154 m 226 978 q 172 1050 172 1001 q 193 1103 172 1081 q 246 1125 214 1125 q 314 1096 279 1125 l 418 1014 q 446 964 446 990 q 431 929 446 943 q 394 915 415 915 q 372 919 382 915 l 226 978 m 390 765 q 243 794 307 765 q 153 867 179 824 q 140 910 140 890 q 154 946 140 932 q 189 960 168 960 q 240 939 213 960 q 390 883 318 883 q 540 939 463 883 q 592 960 565 960 q 626 946 613 960 q 640 910 640 932 q 628 867 640 890 q 538 794 601 822 q 390 765 474 765 z "},"ẳ":{"ha":767,"x_min":43,"x_max":700,"o":"m 390 700 q 624 624 549 700 q 700 394 700 549 l 700 104 q 669 22 700 51 q 582 -8 638 -8 q 502 19 533 -8 q 468 94 471 47 q 403 17 449 44 q 293 -11 357 -11 q 165 17 222 -11 q 76 97 108 46 q 43 211 43 147 q 81 328 43 285 q 203 392 119 372 q 428 411 286 411 l 465 411 l 465 428 q 443 498 465 476 q 368 519 421 519 q 201 481 311 519 q 147 469 169 469 q 92 494 113 469 q 71 560 71 519 q 83 610 71 590 q 124 644 96 629 q 246 685 172 669 q 390 700 319 700 m 351 154 q 433 190 401 154 q 465 281 465 225 l 465 297 l 443 297 q 317 281 354 297 q 279 228 279 265 q 299 175 279 196 q 351 154 319 154 m 450 942 q 430 924 446 931 q 393 917 414 917 q 351 927 369 917 q 333 956 333 938 q 352 994 333 982 q 398 1015 371 1007 q 425 1029 425 1024 q 415 1039 425 1036 q 381 1042 406 1042 q 352 1040 368 1042 q 319 1038 336 1038 q 283 1050 299 1038 q 267 1079 267 1063 q 293 1110 267 1100 q 401 1126 335 1126 q 522 1103 478 1126 q 565 1044 565 1081 q 549 1004 565 1018 q 500 978 532 990 q 465 960 476 967 q 450 942 454 954 m 390 765 q 243 794 307 765 q 153 867 179 824 q 140 910 140 890 q 154 946 140 932 q 189 960 168 960 q 240 939 213 960 q 390 883 318 883 q 540 939 463 883 q 592 960 565 960 q 626 946 613 960 q 640 910 640 932 q 628 867 640 890 q 538 794 601 822 q 390 765 474 765 z "},"ẵ":{"ha":767,"x_min":43,"x_max":700,"o":"m 390 700 q 624 624 549 700 q 700 394 700 549 l 700 104 q 669 22 700 51 q 582 -8 638 -8 q 502 19 533 -8 q 468 94 471 47 q 403 17 449 44 q 293 -11 357 -11 q 165 17 222 -11 q 76 97 108 46 q 43 211 43 147 q 81 328 43 285 q 203 392 119 372 q 428 411 286 411 l 465 411 l 465 428 q 443 498 465 476 q 368 519 421 519 q 201 481 311 519 q 147 469 169 469 q 92 494 113 469 q 71 560 71 519 q 83 610 71 590 q 124 644 96 629 q 246 685 172 669 q 390 700 319 700 m 351 154 q 433 190 401 154 q 465 281 465 225 l 465 297 l 443 297 q 317 281 354 297 q 279 228 279 265 q 299 175 279 196 q 351 154 319 154 m 496 971 q 438 977 471 971 q 375 992 404 983 q 335 1001 365 994 q 286 1007 304 1007 q 265 1002 274 1007 q 244 988 256 997 q 194 965 222 965 q 159 978 172 965 q 146 1013 146 990 q 165 1058 146 1032 q 215 1102 183 1083 q 285 1121 247 1121 q 343 1115 310 1121 q 406 1100 376 1108 q 446 1091 415 1097 q 494 1085 476 1085 q 516 1090 507 1085 q 536 1104 525 1094 q 586 1126 558 1126 q 622 1114 610 1126 q 635 1079 635 1101 q 616 1034 635 1060 q 565 990 597 1008 q 496 971 533 971 m 390 765 q 243 794 307 765 q 153 867 179 824 q 142 903 142 885 q 159 939 142 925 q 200 953 176 953 q 240 939 225 953 q 390 883 318 883 q 540 939 463 883 q 583 954 560 954 q 623 941 607 954 q 639 904 639 928 q 628 867 639 885 q 538 794 601 822 q 390 765 474 765 z "},"ǎ":{"ha":767,"x_min":43,"x_max":700,"o":"m 390 700 q 624 624 549 700 q 700 394 700 549 l 700 104 q 669 22 700 51 q 582 -8 638 -8 q 502 19 533 -8 q 468 94 471 47 q 403 17 449 44 q 293 -11 357 -11 q 165 17 222 -11 q 76 97 108 46 q 43 211 43 147 q 81 328 43 285 q 203 392 119 372 q 428 411 286 411 l 465 411 l 465 428 q 443 498 465 476 q 368 519 421 519 q 201 481 311 519 q 147 469 169 469 q 92 494 113 469 q 71 560 71 519 q 83 610 71 590 q 124 644 96 629 q 246 685 172 669 q 390 700 319 700 m 351 154 q 433 190 401 154 q 465 281 465 225 l 465 297 l 443 297 q 317 281 354 297 q 279 228 279 265 q 299 175 279 196 q 351 154 319 154 m 390 765 q 342 777 361 765 q 300 817 322 789 l 186 950 q 169 996 169 971 q 192 1044 169 1024 q 243 1065 214 1065 q 306 1029 281 1065 l 390 911 l 475 1029 q 538 1065 500 1065 q 590 1044 567 1065 q 613 996 613 1024 q 594 950 613 972 l 481 815 q 439 777 458 789 q 390 765 419 765 z "},"â":{"ha":767,"x_min":43,"x_max":700,"o":"m 390 700 q 624 624 549 700 q 700 394 700 549 l 700 104 q 669 22 700 51 q 582 -8 638 -8 q 502 19 533 -8 q 468 94 471 47 q 403 17 449 44 q 293 -11 357 -11 q 165 17 222 -11 q 76 97 108 46 q 43 211 43 147 q 81 328 43 285 q 203 392 119 372 q 428 411 286 411 l 465 411 l 465 428 q 443 498 465 476 q 368 519 421 519 q 201 481 311 519 q 147 469 169 469 q 92 494 113 469 q 71 560 71 519 q 83 610 71 590 q 124 644 96 629 q 246 685 172 669 q 390 700 319 700 m 351 154 q 433 190 401 154 q 465 281 465 225 l 465 297 l 443 297 q 317 281 354 297 q 279 228 279 265 q 299 175 279 196 q 351 154 319 154 m 306 801 q 243 765 279 765 q 191 786 214 765 q 168 836 168 807 q 186 882 168 860 l 300 1017 q 341 1054 321 1043 q 390 1065 361 1065 q 440 1053 421 1065 q 481 1014 458 1042 l 594 882 q 611 836 611 861 q 589 786 611 807 q 538 765 567 765 q 475 801 501 765 l 390 919 l 306 801 z "},"ấ":{"ha":767,"x_min":43,"x_max":765,"o":"m 390 700 q 624 624 549 700 q 700 394 700 549 l 700 104 q 669 22 700 51 q 582 -8 638 -8 q 502 19 533 -8 q 468 94 471 47 q 403 17 449 44 q 293 -11 357 -11 q 165 17 222 -11 q 76 97 108 46 q 43 211 43 147 q 81 328 43 285 q 203 392 119 372 q 428 411 286 411 l 465 411 l 465 428 q 443 498 465 476 q 368 519 421 519 q 201 481 311 519 q 147 469 169 469 q 92 494 113 469 q 71 560 71 519 q 83 610 71 590 q 124 644 96 629 q 246 685 172 669 q 390 700 319 700 m 351 154 q 433 190 401 154 q 465 281 465 225 l 465 297 l 443 297 q 317 281 354 297 q 279 228 279 265 q 299 175 279 196 q 351 154 319 154 m 604 919 q 579 914 593 914 q 542 930 557 914 q 526 968 526 946 q 542 1007 526 988 l 606 1088 q 676 1126 636 1126 q 738 1097 711 1126 q 765 1032 765 1068 q 751 986 765 1007 q 706 953 736 965 l 604 919 m 290 779 q 249 765 271 765 q 199 785 221 765 q 178 831 178 804 q 218 892 178 867 l 311 942 q 390 967 354 967 q 469 942 426 967 l 563 892 q 604 831 604 867 q 583 784 604 804 q 533 764 561 764 q 494 776 513 764 l 390 843 l 290 779 z "},"ậ":{"ha":767,"x_min":43,"x_max":700,"o":"m 390 700 q 624 624 549 700 q 700 394 700 549 l 700 104 q 669 22 700 51 q 582 -8 638 -8 q 502 19 533 -8 q 468 94 471 47 q 403 17 449 44 q 293 -11 357 -11 q 165 17 222 -11 q 76 97 108 46 q 43 211 43 147 q 81 328 43 285 q 203 392 119 372 q 428 411 286 411 l 465 411 l 465 428 q 443 498 465 476 q 368 519 421 519 q 201 481 311 519 q 147 469 169 469 q 92 494 113 469 q 71 560 71 519 q 83 610 71 590 q 124 644 96 629 q 246 685 172 669 q 390 700 319 700 m 351 154 q 433 190 401 154 q 465 281 465 225 l 465 297 l 443 297 q 317 281 354 297 q 279 228 279 265 q 299 175 279 196 q 351 154 319 154 m 383 -292 q 300 -261 332 -292 q 268 -181 268 -231 q 299 -101 268 -131 q 383 -72 331 -72 q 467 -102 435 -72 q 499 -181 499 -132 q 467 -261 499 -231 q 383 -292 435 -292 m 306 801 q 243 765 279 765 q 191 786 214 765 q 168 836 168 807 q 186 882 168 860 l 300 1017 q 341 1054 321 1043 q 390 1065 361 1065 q 440 1053 421 1065 q 481 1014 458 1042 l 594 882 q 611 836 611 861 q 589 786 611 807 q 538 765 567 765 q 475 801 501 765 l 390 919 l 306 801 z "},"ầ":{"ha":767,"x_min":43,"x_max":700,"o":"m 390 700 q 624 624 549 700 q 700 394 700 549 l 700 104 q 669 22 700 51 q 582 -8 638 -8 q 502 19 533 -8 q 468 94 471 47 q 403 17 449 44 q 293 -11 357 -11 q 165 17 222 -11 q 76 97 108 46 q 43 211 43 147 q 81 328 43 285 q 203 392 119 372 q 428 411 286 411 l 465 411 l 465 428 q 443 498 465 476 q 368 519 421 519 q 201 481 311 519 q 147 469 169 469 q 92 494 113 469 q 71 560 71 519 q 83 610 71 590 q 124 644 96 629 q 246 685 172 669 q 390 700 319 700 m 351 154 q 433 190 401 154 q 465 281 465 225 l 465 297 l 443 297 q 317 281 354 297 q 279 228 279 265 q 299 175 279 196 q 351 154 319 154 m 519 994 q 493 1046 493 1019 q 524 1103 493 1078 q 590 1128 554 1128 q 631 1115 613 1128 q 660 1075 650 1101 l 689 985 q 694 960 694 968 q 680 926 694 939 q 644 913 665 913 q 590 936 615 913 l 519 994 m 290 779 q 249 765 271 765 q 199 785 221 765 q 178 831 178 804 q 218 892 178 867 l 311 942 q 390 967 354 967 q 469 942 426 967 l 563 892 q 604 831 604 867 q 583 784 604 804 q 533 764 561 764 q 494 776 513 764 l 390 843 l 290 779 z "},"ẩ":{"ha":767,"x_min":43,"x_max":757,"o":"m 390 700 q 624 624 549 700 q 700 394 700 549 l 700 104 q 669 22 700 51 q 582 -8 638 -8 q 502 19 533 -8 q 468 94 471 47 q 403 17 449 44 q 293 -11 357 -11 q 165 17 222 -11 q 76 97 108 46 q 43 211 43 147 q 81 328 43 285 q 203 392 119 372 q 428 411 286 411 l 465 411 l 465 428 q 443 498 465 476 q 368 519 421 519 q 201 481 311 519 q 147 469 169 469 q 92 494 113 469 q 71 560 71 519 q 83 610 71 590 q 124 644 96 629 q 246 685 172 669 q 390 700 319 700 m 351 154 q 433 190 401 154 q 465 281 465 225 l 465 297 l 443 297 q 317 281 354 297 q 279 228 279 265 q 299 175 279 196 q 351 154 319 154 m 642 938 q 622 920 638 926 q 586 914 607 914 q 544 924 561 914 q 526 953 526 933 q 545 992 526 979 q 591 1013 564 1004 q 618 1025 618 1021 q 608 1036 618 1033 q 574 1039 599 1039 q 539 1036 561 1039 q 504 1035 517 1033 q 472 1049 485 1036 q 458 1076 458 1061 q 485 1107 458 1097 q 593 1124 531 1124 q 713 1100 669 1124 q 757 1040 757 1076 q 741 1001 757 1014 q 693 975 725 988 q 658 958 669 965 q 642 938 646 950 m 290 779 q 249 765 271 765 q 199 785 221 765 q 178 831 178 804 q 218 892 178 867 l 311 942 q 390 967 354 967 q 469 942 426 967 l 563 892 q 604 831 604 867 q 583 784 604 804 q 533 764 561 764 q 494 776 513 764 l 390 843 l 290 779 z "},"ẫ":{"ha":767,"x_min":43,"x_max":700,"o":"m 390 700 q 624 624 549 700 q 700 394 700 549 l 700 104 q 669 22 700 51 q 582 -8 638 -8 q 502 19 533 -8 q 468 94 471 47 q 403 17 449 44 q 293 -11 357 -11 q 165 17 222 -11 q 76 97 108 46 q 43 211 43 147 q 81 328 43 285 q 203 392 119 372 q 428 411 286 411 l 465 411 l 465 428 q 443 498 465 476 q 368 519 421 519 q 201 481 311 519 q 147 469 169 469 q 92 494 113 469 q 71 560 71 519 q 83 610 71 590 q 124 644 96 629 q 246 685 172 669 q 390 700 319 700 m 351 154 q 433 190 401 154 q 465 281 465 225 l 465 297 l 443 297 q 317 281 354 297 q 279 228 279 265 q 299 175 279 196 q 351 154 319 154 m 496 983 q 404 999 465 983 q 286 1018 324 1018 q 265 1013 274 1018 q 244 999 256 1008 q 194 976 222 976 q 159 989 172 976 q 146 1024 146 1001 q 165 1069 146 1043 q 215 1113 183 1094 q 285 1132 247 1132 q 343 1126 310 1132 q 406 1111 376 1119 q 446 1102 415 1108 q 494 1096 476 1096 q 516 1101 507 1096 q 536 1115 525 1106 q 586 1138 558 1138 q 635 1092 635 1138 q 616 1047 635 1072 q 565 1002 597 1021 q 496 983 533 983 m 290 779 q 249 765 271 765 q 199 785 221 765 q 178 831 178 804 q 218 892 178 867 l 311 942 q 390 965 351 965 q 469 942 429 965 l 563 892 q 604 831 604 867 q 583 784 604 804 q 533 764 561 764 q 494 776 513 764 l 390 843 l 290 779 z "},"ȁ":{"ha":767,"x_min":43,"x_max":700,"o":"m 390 700 q 624 624 549 700 q 700 394 700 549 l 700 104 q 669 22 700 51 q 582 -8 638 -8 q 502 19 533 -8 q 468 94 471 47 q 403 17 449 44 q 293 -11 357 -11 q 165 17 222 -11 q 76 97 108 46 q 43 211 43 147 q 81 328 43 285 q 203 392 119 372 q 428 411 286 411 l 465 411 l 465 428 q 443 498 465 476 q 368 519 421 519 q 201 481 311 519 q 147 469 169 469 q 92 494 113 469 q 71 560 71 519 q 83 610 71 590 q 124 644 96 629 q 246 685 172 669 q 390 700 319 700 m 351 154 q 433 190 401 154 q 465 281 465 225 l 465 297 l 443 297 q 317 281 354 297 q 279 228 279 265 q 299 175 279 196 q 351 154 319 154 m 158 935 q 143 989 143 961 q 168 1045 143 1024 q 226 1067 193 1067 q 283 1045 258 1067 q 317 982 308 1024 l 342 831 q 343 818 343 826 q 327 779 343 794 q 289 764 311 764 q 239 794 257 764 l 158 935 m 360 935 q 344 988 344 961 q 370 1044 344 1022 q 429 1067 396 1067 q 485 1045 461 1067 q 518 982 510 1024 l 543 831 q 544 817 544 826 q 529 778 544 793 q 492 764 514 764 q 442 794 460 764 l 360 935 z "},"ä":{"ha":767,"x_min":43,"x_max":700,"o":"m 390 700 q 624 624 549 700 q 700 394 700 549 l 700 104 q 669 22 700 51 q 582 -8 638 -8 q 502 19 533 -8 q 468 94 471 47 q 403 17 449 44 q 293 -11 357 -11 q 165 17 222 -11 q 76 97 108 46 q 43 211 43 147 q 81 328 43 285 q 203 392 119 372 q 428 411 286 411 l 465 411 l 465 428 q 443 498 465 476 q 368 519 421 519 q 201 481 311 519 q 147 469 169 469 q 92 494 113 469 q 71 560 71 519 q 83 610 71 590 q 124 644 96 629 q 246 685 172 669 q 390 700 319 700 m 351 154 q 433 190 401 154 q 465 281 465 225 l 465 297 l 443 297 q 317 281 354 297 q 279 228 279 265 q 299 175 279 196 q 351 154 319 154 m 253 803 q 168 833 200 803 q 136 914 136 864 q 168 994 136 964 q 253 1024 200 1024 q 338 994 306 1024 q 371 914 371 964 q 338 833 371 864 q 253 803 306 803 m 528 803 q 443 833 475 803 q 411 914 411 864 q 443 994 411 964 q 528 1024 475 1024 q 612 994 579 1024 q 644 914 644 964 q 613 833 644 864 q 528 803 581 803 z "},"ȧ":{"ha":767,"x_min":43,"x_max":700,"o":"m 390 700 q 624 624 549 700 q 700 394 700 549 l 700 104 q 669 22 700 51 q 582 -8 638 -8 q 502 19 533 -8 q 468 94 471 47 q 403 17 449 44 q 293 -11 357 -11 q 165 17 222 -11 q 76 97 108 46 q 43 211 43 147 q 81 328 43 285 q 203 392 119 372 q 428 411 286 411 l 465 411 l 465 428 q 443 498 465 476 q 368 519 421 519 q 201 481 311 519 q 147 469 169 469 q 92 494 113 469 q 71 560 71 519 q 83 610 71 590 q 124 644 96 629 q 246 685 172 669 q 390 700 319 700 m 351 154 q 433 190 401 154 q 465 281 465 225 l 465 297 l 443 297 q 317 281 354 297 q 279 228 279 265 q 299 175 279 196 q 351 154 319 154 m 390 794 q 291 827 328 794 q 254 914 254 860 q 291 1000 254 968 q 390 1032 328 1032 q 489 1000 451 1032 q 526 914 526 968 q 490 827 526 860 q 390 794 453 794 z "},"ạ":{"ha":767,"x_min":43,"x_max":700,"o":"m 390 700 q 624 624 549 700 q 700 394 700 549 l 700 104 q 669 22 700 51 q 582 -8 638 -8 q 502 19 533 -8 q 468 94 471 47 q 403 17 449 44 q 293 -11 357 -11 q 165 17 222 -11 q 76 97 108 46 q 43 211 43 147 q 81 328 43 285 q 203 392 119 372 q 428 411 286 411 l 465 411 l 465 428 q 443 498 465 476 q 368 519 421 519 q 201 481 311 519 q 147 469 169 469 q 92 494 113 469 q 71 560 71 519 q 83 610 71 590 q 124 644 96 629 q 246 685 172 669 q 390 700 319 700 m 351 154 q 433 190 401 154 q 465 281 465 225 l 465 297 l 443 297 q 317 281 354 297 q 279 228 279 265 q 299 175 279 196 q 351 154 319 154 m 383 -292 q 300 -261 332 -292 q 268 -181 268 -231 q 299 -101 268 -131 q 383 -72 331 -72 q 467 -102 435 -72 q 499 -181 499 -132 q 467 -261 499 -231 q 383 -292 435 -292 z "},"à":{"ha":767,"x_min":43,"x_max":700,"o":"m 390 700 q 624 624 549 700 q 700 394 700 549 l 700 104 q 669 22 700 51 q 582 -8 638 -8 q 502 19 533 -8 q 468 94 471 47 q 403 17 449 44 q 293 -11 357 -11 q 165 17 222 -11 q 76 97 108 46 q 43 211 43 147 q 81 328 43 285 q 203 392 119 372 q 428 411 286 411 l 465 411 l 465 428 q 443 498 465 476 q 368 519 421 519 q 201 481 311 519 q 147 469 169 469 q 92 494 113 469 q 71 560 71 519 q 83 610 71 590 q 124 644 96 629 q 246 685 172 669 q 390 700 319 700 m 351 154 q 433 190 401 154 q 465 281 465 225 l 465 297 l 443 297 q 317 281 354 297 q 279 228 279 265 q 299 175 279 196 q 351 154 319 154 m 186 882 q 135 967 135 918 q 165 1034 135 1006 q 236 1063 196 1063 q 329 1008 290 1063 l 432 867 q 447 825 447 847 q 429 783 447 800 q 385 765 411 765 q 343 779 363 765 l 186 882 z "},"ả":{"ha":767,"x_min":43,"x_max":700,"o":"m 390 700 q 624 624 549 700 q 700 394 700 549 l 700 104 q 669 22 700 51 q 582 -8 638 -8 q 502 19 533 -8 q 468 94 471 47 q 403 17 449 44 q 293 -11 357 -11 q 165 17 222 -11 q 76 97 108 46 q 43 211 43 147 q 81 328 43 285 q 203 392 119 372 q 428 411 286 411 l 465 411 l 465 428 q 443 498 465 476 q 368 519 421 519 q 201 481 311 519 q 147 469 169 469 q 92 494 113 469 q 71 560 71 519 q 83 610 71 590 q 124 644 96 629 q 246 685 172 669 q 390 700 319 700 m 351 154 q 433 190 401 154 q 465 281 465 225 l 465 297 l 443 297 q 317 281 354 297 q 279 228 279 265 q 299 175 279 196 q 351 154 319 154 m 450 806 q 430 773 447 785 q 390 761 413 761 q 351 774 368 761 q 335 810 335 786 q 347 855 335 838 q 385 892 360 872 q 406 911 399 903 q 413 929 413 919 q 372 961 413 961 q 340 956 358 961 q 313 950 322 951 q 280 961 293 944 q 267 1000 267 978 q 274 1027 267 1015 q 297 1044 282 1039 q 396 1061 347 1061 q 521 1030 476 1061 q 565 954 565 999 q 548 899 565 919 q 497 856 531 879 q 464 830 475 840 q 450 806 453 819 z "},"ȃ":{"ha":767,"x_min":43,"x_max":700,"o":"m 390 700 q 624 624 549 700 q 700 394 700 549 l 700 104 q 669 22 700 51 q 582 -8 638 -8 q 502 19 533 -8 q 468 94 471 47 q 403 17 449 44 q 293 -11 357 -11 q 165 17 222 -11 q 76 97 108 46 q 43 211 43 147 q 81 328 43 285 q 203 392 119 372 q 428 411 286 411 l 465 411 l 465 428 q 443 498 465 476 q 368 519 421 519 q 201 481 311 519 q 147 469 169 469 q 92 494 113 469 q 71 560 71 519 q 83 610 71 590 q 124 644 96 629 q 246 685 172 669 q 390 700 319 700 m 351 154 q 433 190 401 154 q 465 281 465 225 l 465 297 l 443 297 q 317 281 354 297 q 279 228 279 265 q 299 175 279 196 q 351 154 319 154 m 258 829 q 201 797 236 797 q 156 816 175 797 q 136 863 136 835 q 140 888 136 875 q 235 1003 165 957 q 390 1049 306 1049 q 545 1003 475 1049 q 640 888 615 957 q 644 863 644 875 q 625 816 644 835 q 579 797 606 797 q 522 829 544 797 q 390 894 475 894 q 258 829 306 894 z "},"ā":{"ha":767,"x_min":43,"x_max":700,"o":"m 390 700 q 624 624 549 700 q 700 394 700 549 l 700 104 q 669 22 700 51 q 582 -8 638 -8 q 502 19 533 -8 q 468 94 471 47 q 403 17 449 44 q 293 -11 357 -11 q 165 17 222 -11 q 76 97 108 46 q 43 211 43 147 q 81 328 43 285 q 203 392 119 372 q 428 411 286 411 l 465 411 l 465 428 q 443 498 465 476 q 368 519 421 519 q 201 481 311 519 q 147 469 169 469 q 92 494 113 469 q 71 560 71 519 q 83 610 71 590 q 124 644 96 629 q 246 685 172 669 q 390 700 319 700 m 351 154 q 433 190 401 154 q 465 281 465 225 l 465 297 l 443 297 q 317 281 354 297 q 279 228 279 265 q 299 175 279 196 q 351 154 319 154 m 222 839 q 167 858 189 839 q 146 913 146 878 q 167 967 146 947 q 222 986 189 986 l 558 986 q 613 967 592 986 q 635 913 635 947 q 613 858 635 878 q 558 839 592 839 l 222 839 z "},"ą":{"ha":767,"x_min":43,"x_max":757,"o":"m 706 -143 q 717 -142 710 -142 q 746 -157 735 -142 q 757 -192 757 -172 q 731 -242 757 -225 q 601 -275 675 -275 q 470 -231 521 -275 q 419 -115 419 -186 q 496 26 419 -31 q 468 94 471 54 q 403 17 449 46 q 296 -11 358 -11 q 166 17 224 -11 q 76 97 108 46 q 43 211 43 147 q 81 328 43 285 q 203 391 119 371 q 428 411 286 411 l 465 411 l 465 428 q 443 498 465 476 q 368 519 421 519 q 201 481 311 519 q 147 469 169 469 q 92 494 113 469 q 71 560 71 519 q 83 610 71 590 q 124 644 96 629 q 246 685 172 669 q 390 700 319 700 q 624 624 549 700 q 700 394 700 549 l 700 104 q 644 4 700 31 q 588 -38 606 -18 q 571 -83 571 -58 q 590 -133 571 -114 q 639 -153 608 -153 q 706 -143 663 -153 m 351 154 q 433 190 401 154 q 465 281 465 225 l 465 297 l 443 297 q 317 281 356 297 q 279 228 279 264 q 299 175 279 196 q 351 154 319 154 z "},"å":{"ha":767,"x_min":43,"x_max":700,"o":"m 390 700 q 624 624 549 700 q 700 394 700 549 l 700 104 q 669 22 700 51 q 582 -8 638 -8 q 502 19 533 -8 q 468 94 471 47 q 403 17 449 44 q 293 -11 357 -11 q 165 17 222 -11 q 76 97 108 46 q 43 211 43 147 q 81 328 43 285 q 203 392 119 372 q 428 411 286 411 l 465 411 l 465 428 q 443 498 465 476 q 368 519 421 519 q 201 481 311 519 q 147 469 169 469 q 92 494 113 469 q 71 560 71 519 q 83 610 71 590 q 124 644 96 629 q 246 685 172 669 q 390 700 319 700 m 351 154 q 433 190 401 154 q 465 281 465 225 l 465 297 l 443 297 q 317 281 354 297 q 279 228 279 265 q 299 175 279 196 q 351 154 319 154 m 390 763 q 279 807 325 763 q 233 917 233 851 q 279 1025 233 981 q 390 1069 325 1069 q 501 1025 456 1069 q 547 917 547 981 q 501 807 547 851 q 390 763 456 763 m 390 856 q 431 873 415 856 q 447 917 447 890 q 431 959 447 942 q 390 976 415 976 q 349 959 365 976 q 333 917 333 942 q 349 873 333 890 q 390 856 365 856 z "},"ǻ":{"ha":767,"x_min":43,"x_max":728,"o":"m 567 1160 q 643 1194 601 1194 q 703 1169 678 1194 q 728 1111 728 1144 q 713 1065 728 1086 q 664 1028 697 1043 l 535 975 q 546 917 546 946 q 501 807 546 851 q 390 763 456 763 q 279 807 325 763 q 233 917 233 851 q 279 1025 233 981 q 390 1069 325 1069 q 454 1057 425 1069 l 567 1160 m 390 856 q 431 873 415 856 q 447 917 447 890 q 431 959 447 942 q 390 976 415 976 q 349 959 365 976 q 332 917 332 942 q 348 873 332 890 q 390 856 364 856 m 390 700 q 624 624 549 700 q 700 394 700 549 l 700 104 q 669 22 700 51 q 582 -8 638 -8 q 502 19 533 -8 q 468 94 471 47 q 403 17 449 44 q 293 -11 357 -11 q 165 17 222 -11 q 76 97 108 46 q 43 211 43 147 q 81 328 43 285 q 203 392 119 372 q 428 411 286 411 l 465 411 l 465 428 q 443 498 465 476 q 368 519 421 519 q 201 481 311 519 q 147 469 169 469 q 92 494 113 469 q 71 560 71 519 q 83 610 71 590 q 124 644 96 629 q 246 685 172 669 q 390 700 319 700 m 351 154 q 433 190 401 154 q 465 281 465 225 l 465 297 l 443 297 q 317 281 354 297 q 279 228 279 265 q 299 175 279 196 q 351 154 319 154 z "},"ã":{"ha":767,"x_min":43,"x_max":700,"o":"m 390 700 q 624 624 549 700 q 700 394 700 549 l 700 104 q 669 22 700 51 q 582 -8 638 -8 q 502 19 533 -8 q 468 94 471 47 q 403 17 449 44 q 293 -11 357 -11 q 165 17 222 -11 q 76 97 108 46 q 43 211 43 147 q 81 328 43 285 q 203 392 119 372 q 428 411 286 411 l 465 411 l 465 428 q 443 498 465 476 q 368 519 421 519 q 201 481 311 519 q 147 469 169 469 q 92 494 113 469 q 71 560 71 519 q 83 610 71 590 q 124 644 96 629 q 246 685 172 669 q 390 700 319 700 m 351 154 q 433 190 401 154 q 465 281 465 225 l 465 297 l 443 297 q 317 281 354 297 q 279 228 279 265 q 299 175 279 196 q 351 154 319 154 m 496 801 q 447 811 471 801 q 385 840 424 821 q 340 861 363 851 q 303 871 318 871 q 269 861 282 871 q 242 833 256 851 q 217 809 228 817 q 190 801 207 801 q 158 818 171 801 q 146 863 146 835 q 165 931 146 893 q 215 997 183 969 q 285 1024 247 1024 q 333 1014 310 1024 q 396 985 357 1004 q 440 964 418 974 q 478 954 463 954 q 512 964 499 954 q 539 992 525 974 q 563 1016 553 1008 q 590 1024 574 1024 q 623 1007 611 1024 q 635 963 635 990 q 616 894 635 932 q 565 828 597 856 q 496 801 533 801 z "},"æ":{"ha":1154,"x_min":43,"x_max":1114,"o":"m 1039 219 q 1091 194 1071 219 q 1111 129 1111 169 q 1097 81 1111 103 q 1057 44 1082 58 q 947 5 1011 21 q 831 -11 882 -11 q 554 113 642 -11 q 461 21 521 53 q 324 -11 401 -11 q 179 17 243 -11 q 79 97 115 46 q 43 211 43 147 q 81 328 43 285 q 201 392 118 372 q 424 411 283 411 l 461 411 l 461 429 q 438 498 461 476 q 365 519 415 519 q 289 512 321 519 q 217 489 257 504 q 142 469 171 469 q 90 494 110 469 q 71 560 71 519 q 124 644 71 615 q 241 685 172 671 q 382 700 310 700 q 603 622 533 700 q 815 700 688 700 q 971 658 903 700 q 1076 538 1039 615 q 1114 361 1114 461 q 1057 294 1114 294 l 700 294 q 742 199 710 229 q 836 169 775 169 q 897 177 868 169 q 961 199 925 185 q 1002 213 982 207 q 1039 219 1022 219 m 811 533 q 697 411 710 533 l 907 411 q 878 502 903 471 q 811 533 854 533 m 358 154 q 431 191 401 154 q 461 279 461 228 l 461 297 l 438 297 q 316 281 353 297 q 279 228 279 265 q 301 174 279 194 q 358 154 322 154 z "},"ǽ":{"ha":1154,"x_min":43,"x_max":1114,"o":"m 1039 219 q 1091 194 1071 219 q 1111 129 1111 169 q 1097 81 1111 103 q 1057 44 1082 58 q 947 5 1011 21 q 831 -11 882 -11 q 554 113 642 -11 q 461 21 521 53 q 324 -11 401 -11 q 179 17 243 -11 q 79 97 115 46 q 43 211 43 147 q 81 328 43 285 q 201 392 118 372 q 424 411 283 411 l 461 411 l 461 429 q 438 498 461 476 q 365 519 415 519 q 289 512 321 519 q 217 489 257 504 q 142 469 171 469 q 90 494 110 469 q 71 560 71 519 q 124 644 71 615 q 241 685 172 671 q 382 700 310 700 q 603 622 533 700 q 815 700 688 700 q 971 658 903 700 q 1076 538 1039 615 q 1114 361 1114 461 q 1057 294 1114 294 l 700 294 q 742 199 710 229 q 836 169 775 169 q 897 177 868 169 q 961 199 925 185 q 1002 213 982 207 q 1039 219 1022 219 m 811 533 q 697 411 710 533 l 907 411 q 878 502 903 471 q 811 533 854 533 m 358 154 q 431 191 401 154 q 461 279 461 228 l 461 297 l 438 297 q 316 281 353 297 q 279 228 279 265 q 301 174 279 194 q 358 154 322 154 m 625 779 q 583 765 606 765 q 539 783 557 765 q 521 825 521 801 q 536 867 521 847 l 639 1008 q 683 1048 658 1035 q 732 1061 707 1061 q 803 1033 772 1061 q 833 965 833 1004 q 782 882 833 917 l 625 779 z "},"b":{"ha":868,"x_min":72,"x_max":826,"o":"m 525 700 q 682 657 614 700 q 788 534 750 614 q 826 349 826 454 q 788 161 826 243 q 681 34 750 79 q 525 -11 613 -11 q 401 17 457 -11 q 315 93 344 44 q 278 19 311 46 q 193 -8 246 -8 q 105 23 138 -8 q 72 106 72 54 l 72 875 q 107 955 72 924 q 199 986 142 986 q 286 957 253 986 q 319 879 319 928 l 319 603 q 405 674 350 647 q 525 700 460 700 m 449 174 q 547 219 513 174 q 582 349 582 264 q 548 472 582 429 q 450 515 514 515 q 350 472 385 515 q 315 346 315 428 q 350 218 315 263 q 449 174 385 174 z "},"c":{"ha":694,"x_min":40,"x_max":678,"o":"m 401 -11 q 138 83 235 -11 q 40 340 40 178 q 88 529 40 447 q 220 656 135 611 q 415 700 306 700 q 532 685 474 700 q 635 642 590 669 q 678 561 678 615 q 658 491 678 518 q 606 464 638 464 q 565 470 585 464 q 522 489 546 476 q 475 508 494 501 q 432 514 456 514 q 294 346 294 514 q 330 219 294 263 q 432 175 365 175 q 476 181 456 175 q 521 200 496 188 q 566 219 549 213 q 604 225 583 225 q 656 198 636 225 q 676 128 676 171 q 665 80 676 101 q 635 47 654 58 q 401 -11 539 -11 z "},"ć":{"ha":694,"x_min":40,"x_max":678,"o":"m 401 -11 q 138 83 235 -11 q 40 340 40 178 q 88 529 40 447 q 220 656 135 611 q 415 700 306 700 q 532 685 474 700 q 635 642 590 669 q 678 561 678 615 q 658 491 678 518 q 606 464 638 464 q 565 470 585 464 q 522 489 546 476 q 475 508 494 501 q 432 514 456 514 q 294 346 294 514 q 330 219 294 263 q 432 175 365 175 q 476 181 456 175 q 521 200 496 188 q 566 219 549 213 q 604 225 583 225 q 656 198 636 225 q 676 128 676 171 q 665 80 676 101 q 635 47 654 58 q 401 -11 539 -11 m 463 779 q 421 765 443 765 q 376 783 394 765 q 358 825 358 801 q 374 867 358 847 l 476 1008 q 520 1048 496 1035 q 569 1061 544 1061 q 640 1033 610 1061 q 671 965 671 1004 q 619 882 671 917 l 463 779 z "},"č":{"ha":694,"x_min":40,"x_max":678,"o":"m 401 -11 q 138 83 235 -11 q 40 340 40 178 q 88 529 40 447 q 220 656 135 611 q 415 700 306 700 q 532 685 474 700 q 635 642 590 669 q 678 561 678 615 q 658 491 678 518 q 606 464 638 464 q 565 470 585 464 q 522 489 546 476 q 475 508 494 501 q 432 514 456 514 q 294 346 294 514 q 330 219 294 263 q 432 175 365 175 q 476 181 456 175 q 521 200 496 188 q 566 219 549 213 q 604 225 583 225 q 656 198 636 225 q 676 128 676 171 q 665 80 676 101 q 635 47 654 58 q 401 -11 539 -11 m 415 765 q 367 777 386 765 q 325 817 347 789 l 211 950 q 194 996 194 971 q 217 1044 194 1024 q 268 1065 239 1065 q 331 1029 306 1065 l 415 911 l 500 1029 q 563 1065 525 1065 q 615 1044 592 1065 q 638 996 638 1024 q 619 950 638 972 l 506 815 q 464 777 483 789 q 415 765 444 765 z "},"ç":{"ha":694,"x_min":40,"x_max":678,"o":"m 604 225 q 656 198 636 225 q 676 128 676 171 q 665 80 676 101 q 635 47 654 58 q 449 -10 558 1 l 440 -57 q 469 -56 451 -56 q 542 -82 513 -56 q 572 -151 572 -108 q 522 -241 572 -207 q 376 -275 471 -275 q 276 -262 314 -275 q 246 -218 246 -253 q 259 -181 246 -197 q 290 -171 272 -165 q 368 -182 346 -182 q 426 -151 426 -182 q 396 -128 426 -128 q 367 -131 385 -128 q 339 -135 349 -135 q 317 -127 325 -135 q 311 -106 308 -119 l 324 -6 q 115 108 190 17 q 40 340 40 199 q 88 529 40 447 q 220 656 135 611 q 415 700 306 700 q 532 685 474 700 q 635 642 590 669 q 678 561 678 615 q 658 491 678 518 q 606 464 638 464 q 565 470 585 464 q 522 489 546 476 q 475 508 494 501 q 432 514 456 514 q 294 346 294 514 q 330 219 294 263 q 432 175 365 175 q 476 181 456 175 q 521 200 496 188 q 566 219 549 213 q 604 225 583 225 z "},"ḉ":{"ha":694,"x_min":40,"x_max":678,"o":"m 463 779 q 421 765 443 765 q 376 783 394 765 q 358 825 358 801 q 374 867 358 847 l 476 1008 q 520 1048 496 1035 q 569 1061 544 1061 q 640 1033 610 1061 q 671 965 671 1004 q 619 882 671 917 l 463 779 m 604 225 q 656 198 636 225 q 676 128 676 171 q 665 80 676 101 q 635 47 654 58 q 449 -10 558 1 l 440 -57 q 469 -56 451 -56 q 542 -82 513 -56 q 572 -151 572 -108 q 522 -241 572 -207 q 376 -275 471 -275 q 276 -262 314 -275 q 246 -218 246 -253 q 259 -181 246 -197 q 290 -171 272 -165 q 368 -182 346 -182 q 426 -151 426 -182 q 396 -128 426 -128 q 367 -131 385 -128 q 339 -135 349 -135 q 317 -127 325 -135 q 311 -106 308 -119 l 324 -6 q 115 108 190 17 q 40 340 40 199 q 88 529 40 447 q 220 656 135 611 q 415 700 306 700 q 532 685 474 700 q 635 642 590 669 q 678 561 678 615 q 658 491 678 518 q 606 464 638 464 q 565 470 585 464 q 522 489 546 476 q 475 508 494 501 q 432 514 456 514 q 294 346 294 514 q 330 219 294 263 q 432 175 365 175 q 476 181 456 175 q 521 200 496 188 q 566 219 549 213 q 604 225 583 225 z "},"ĉ":{"ha":694,"x_min":40,"x_max":678,"o":"m 401 -11 q 138 83 235 -11 q 40 340 40 178 q 88 529 40 447 q 220 656 135 611 q 415 700 306 700 q 532 685 474 700 q 635 642 590 669 q 678 561 678 615 q 658 491 678 518 q 606 464 638 464 q 565 470 585 464 q 522 489 546 476 q 475 508 494 501 q 432 514 456 514 q 294 346 294 514 q 330 219 294 263 q 432 175 365 175 q 476 181 456 175 q 521 200 496 188 q 566 219 549 213 q 604 225 583 225 q 656 198 636 225 q 676 128 676 171 q 665 80 676 101 q 635 47 654 58 q 401 -11 539 -11 m 331 801 q 268 765 304 765 q 216 786 239 765 q 193 836 193 807 q 211 882 193 860 l 325 1017 q 366 1054 346 1043 q 415 1065 386 1065 q 465 1053 446 1065 q 506 1014 483 1042 l 619 882 q 636 836 636 861 q 614 786 636 807 q 563 765 592 765 q 500 801 526 765 l 415 919 l 331 801 z "},"ċ":{"ha":694,"x_min":40,"x_max":678,"o":"m 401 -11 q 138 83 235 -11 q 40 340 40 178 q 88 529 40 447 q 220 656 135 611 q 415 700 306 700 q 532 685 474 700 q 635 642 590 669 q 678 561 678 615 q 658 491 678 518 q 606 464 638 464 q 565 470 585 464 q 522 489 546 476 q 475 508 494 501 q 432 514 456 514 q 294 346 294 514 q 330 219 294 263 q 432 175 365 175 q 476 181 456 175 q 521 200 496 188 q 566 219 549 213 q 604 225 583 225 q 656 198 636 225 q 676 128 676 171 q 665 80 676 101 q 635 47 654 58 q 401 -11 539 -11 m 415 794 q 316 827 353 794 q 279 914 279 860 q 316 1000 279 968 q 415 1032 353 1032 q 514 1000 476 1032 q 551 914 551 968 q 515 827 551 860 q 415 794 478 794 z "},"d":{"ha":868,"x_min":40,"x_max":796,"o":"m 669 986 q 760 955 725 986 q 796 875 796 924 l 796 106 q 763 22 796 53 q 674 -8 729 -8 q 590 19 622 -8 q 553 93 557 46 q 467 17 524 44 q 343 -11 411 -11 q 187 34 256 -11 q 79 161 118 79 q 40 349 40 243 q 78 534 40 454 q 185 657 117 614 q 343 700 254 700 q 463 674 408 700 q 549 603 518 647 l 549 879 q 581 957 549 928 q 669 986 614 986 m 418 174 q 518 218 483 174 q 553 346 553 263 q 518 472 553 428 q 418 515 483 515 q 319 472 354 515 q 285 349 285 429 q 320 219 285 265 q 418 174 356 174 z "}}}
